SplineFontDB: 3.2
FontName: ExodarOutline
FullName: Exodar-Outline
FamilyName: Exodar-Outline
Weight: Book
Copyright: Exodar (c) (Rometheme). 2018. All Rights Reserved
Version: 1.00;April 3, 2018;FontCreator 11.5.0.2422 64-bit
ItalicAngle: 0
UnderlinePosition: -292
UnderlineWidth: 150
Ascent: 1638
Descent: 410
InvalidEm: 0
sfntRevision: 0x00010000
LayerCount: 2
Layer: 0 1 "Back" 1
Layer: 1 1 "Fore" 0
XUID: [1021 700 -199658478 23239]
StyleMap: 0x0040
FSType: 0
OS2Version: 3
OS2_WeightWidthSlopeOnly: 0
OS2_UseTypoMetrics: 0
CreationTime: 1522403898
ModificationTime: 1664185823
PfmFamily: 17
TTFWeight: 400
TTFWidth: 5
LineGap: 1
VLineGap: 0
Panose: 2 0 5 0 0 0 0 0 0 0
OS2TypoAscent: 1436
OS2TypoAOffset: 0
OS2TypoDescent: -1
OS2TypoDOffset: 0
OS2TypoLinegap: 205
OS2WinAscent: 1937
OS2WinAOffset: 0
OS2WinDescent: 418
OS2WinDOffset: 0
HheadAscent: 1937
HheadAOffset: 0
HheadDescent: -418
HheadDOffset: 0
OS2SubXSize: 1434
OS2SubYSize: 1331
OS2SubXOff: 0
OS2SubYOff: 283
OS2SupXSize: 1434
OS2SupYSize: 1331
OS2SupXOff: 0
OS2SupYOff: 977
OS2StrikeYSize: 102
OS2StrikeYPos: 530
OS2CapHeight: 1434
OS2XHeight: 1024
OS2Vendor: 'HL  '
OS2CodePages: 20000001.00000000
OS2UnicodeRanges: 00000003.10000000.00000000.00000000
Lookup: 258 4 0 "'kern' Horizontal Kerning in Latin lookup 0" { "'kern' Horizontal Kerning in Latin lookup 0 subtable"  } ['kern' ('latn' <'dflt' > ) ]
DEI: 91125
TtTable: prep
SVTCA[y-axis]
MPPEM
PUSHW_1
 200
GT
IF
PUSHB_2
 1
 1
INSTCTRL
EIF
PUSHB_1
 1
PUSHW_2
 2048
 2048
MUL
WCVTF
PUSHB_2
 0
 7
WS
PUSHB_3
 23
 1
 0
LOOPCALL
PUSHB_2
 0
 7
WS
PUSHB_4
 12
 8
 1
 10
LOOPCALL
PUSHB_2
 0
 7
WS
PUSHB_4
 20
 6
 1
 10
LOOPCALL
PUSHB_2
 0
 8
WS
PUSHW_3
 832
 1
 11
LOOPCALL
PUSHB_2
 0
 9
WS
PUSHW_3
 64
 1
 11
LOOPCALL
PUSHW_2
 3
 0
WCVTP
PUSHB_2
 36
 1
GETINFO
LTEQ
IF
PUSHB_1
 64
GETINFO
IF
PUSHW_2
 3
 100
WCVTP
PUSHB_2
 40
 1
GETINFO
LTEQ
IF
PUSHW_1
 2048
GETINFO
IF
PUSHW_2
 3
 0
WCVTP
EIF
ELSE
PUSHB_2
 39
 1
GETINFO
LTEQ
IF
PUSHW_3
 2176
 1
 1088
GETINFO
MUL
EQ
IF
PUSHW_2

StartChar: .notdef
Encoding: 65536 -1 0
Width: 1024
GlyphClass: 2
Flags: W
LayerCount: 2
Fore
SplineSet
100 0 m 1,0,-1
 100 1434 l 1,1,-1
 924 1434 l 1,2,-1
 924 0 l 1,3,-1
 100 0 l 1,0,-1
150 50 m 1,4,-1
 874 50 l 1,5,-1
 874 1384 l 1,6,-1
 150 1384 l 1,7,-1
 150 50 l 1,4,-1
325 1148 m 1,8,9
 356 1176 356 1176 383 1191 c 0,10,11
 436 1221 436 1221 495 1221 c 0,12,13
 587 1221 587 1221 643 1173.5 c 128,-1,14
 699 1126 699 1126 699 1046 c 0,15,16
 699 997 699 997 676 947.5 c 128,-1,17
 653 898 653 898 589 818 c 0,18,19
 526 738 526 738 490 686 c 128,-1,20
 454 634 454 634 454 587 c 0,21,22
 454 549 454 549 478 454 c 1,23,-1
 446 454 l 1,24,25
 411 551 411 551 411 602 c 0,26,27
 411 678 411 678 492.5 820 c 128,-1,28
 574 962 574 962 574 1037 c 0,29,30
 574 1094 574 1094 541 1127 c 128,-1,31
 508 1160 508 1160 450 1160 c 0,32,33
 412 1160 412 1160 381 1143 c 0,34,35
 355 1128 355 1128 325 1103 c 1,36,-1
 325 1148 l 1,8,9
389 334 m 2,37,-1
 446 392 l 2,38,39
 457 402 457 402 466 402 c 0,40,41
 476 402 476 402 488 391 c 2,42,-1
 544 331 l 2,43,44
 553 320 553 320 553 311 c 0,45,46
 553 300 553 300 543 289 c 2,47,-1
 487 227 l 2,48,49
 473 213 473 213 466 213 c 0,50,51
 455 213 455 213 446 223 c 2,52,-1
 385 294 l 2,53,54
 378 303 378 303 378 312 c 0,55,56
 378 322 378 322 389 334 c 2,37,-1
EndSplineSet
EndChar

StartChar: exclam
Encoding: 33 33 4
Width: 466
GlyphClass: 2
Flags: W
LayerCount: 2
Fore
SplineSet
133 -1 m 1,0,-1
 133 -1 l 1,1,2
 188 -1 188 -1 227 38 c 128,-1,3
 266 77 266 77 266 131 c 0,4,5
 266 186 266 186 227 225 c 128,-1,6
 188 264 188 264 133 264 c 256,7,8
 78 264 78 264 39 225 c 128,-1,9
 0 186 0 186 0 131 c 0,10,11
 0 77 0 77 39 38 c 128,-1,12
 78 -1 78 -1 133 -1 c 1,0,-1
133 216 m 1,13,-1
 133 216 l 1,14,15
 168 216 168 216 192.5 191 c 128,-1,16
 217 166 217 166 217 131 c 0,17,18
 217 97 217 97 192.5 72 c 128,-1,19
 168 47 168 47 133 47 c 256,20,21
 98 47 98 47 73.5 72 c 128,-1,22
 49 97 49 97 49 131 c 0,23,24
 49 166 49 166 73.5 191 c 128,-1,25
 98 216 98 216 133 216 c 1,13,-1
132 273 m 1,26,-1
 132 273 l 1,27,28
 187 273 187 273 226 311.5 c 128,-1,29
 265 350 265 350 265 405 c 2,30,-1
 265 1302 l 2,31,32
 265 1357 265 1357 226 1396 c 128,-1,33
 187 1435 187 1435 132 1435 c 0,34,35
 78 1435 78 1435 39 1396 c 128,-1,36
 0 1357 0 1357 0 1302 c 2,37,-1
 0 405 l 2,38,39
 0 350 0 350 39 311.5 c 128,-1,40
 78 273 78 273 132 273 c 1,26,-1
132 1386 m 1,41,-1
 132 1386 l 1,42,43
 167 1386 167 1386 191.5 1361.5 c 128,-1,44
 216 1337 216 1337 216 1302 c 2,45,-1
 216 405 l 2,46,47
 216 370 216 370 191.5 345.5 c 128,-1,48
 167 321 167 321 132 321 c 0,49,50
 98 321 98 321 73.5 345.5 c 128,-1,51
 49 370 49 370 49 405 c 2,52,-1
 49 1302 l 2,53,54
 49 1337 49 1337 73.5 1361.5 c 128,-1,55
 98 1386 98 1386 132 1386 c 1,41,-1
EndSplineSet
EndChar

StartChar: quotedbl
Encoding: 34 34 5
Width: 741
GlyphClass: 2
Flags: W
LayerCount: 2
Fore
SplineSet
134 1189 m 1,0,-1
 134 1189 l 1,1,2
 187 1189 187 1189 228 1228 c 0,3,4
 267 1268 267 1268 267 1323 c 2,5,-1
 267 1581 l 2,6,7
 267 1634 267 1634 231 1672 c 128,-1,8
 195 1710 195 1710 140 1714 c 0,9,10
 134 1715 134 1715 127 1714 c 0,11,12
 72 1710 72 1710 36 1672 c 128,-1,13
 0 1634 0 1634 0 1581 c 2,14,-1
 0 1323 l 2,15,16
 0 1267 0 1267 39 1228 c 128,-1,17
 78 1189 78 1189 134 1189 c 1,0,-1
134 1666 m 1,18,-1
 134 1666 l 1,19,20
 136 1666 136 1666 138 1666 c 0,21,22
 173 1663 173 1663 196 1639 c 128,-1,23
 219 1615 219 1615 219 1581 c 2,24,-1
 219 1323 l 2,25,26
 218 1288 218 1288 194 1263 c 0,27,28
 168 1238 168 1238 134 1238 c 0,29,30
 98 1238 98 1238 73 1263 c 128,-1,31
 48 1288 48 1288 48 1323 c 2,32,-1
 48 1581 l 2,33,34
 48 1615 48 1615 71 1639 c 128,-1,35
 94 1663 94 1663 129 1666 c 0,36,37
 131 1666 131 1666 134 1666 c 1,18,-1
407 1189 m 1,38,-1
 407 1189 l 1,39,40
 461 1189 461 1189 502 1228 c 0,41,42
 540 1268 540 1268 541 1323 c 2,43,-1
 541 1581 l 2,44,45
 541 1634 541 1634 504.5 1672 c 128,-1,46
 468 1710 468 1710 414 1714 c 0,47,48
 407 1715 407 1715 400 1714 c 0,49,50
 346 1710 346 1710 309.5 1672 c 128,-1,51
 273 1634 273 1634 273 1581 c 2,52,-1
 273 1323 l 2,53,54
 273 1267 273 1267 312.5 1228 c 128,-1,55
 352 1189 352 1189 407 1189 c 1,38,-1
407 1666 m 1,56,-1
 407 1666 l 1,57,58
 409 1666 409 1666 411 1666 c 0,59,60
 446 1663 446 1663 469 1639 c 128,-1,61
 492 1615 492 1615 492 1581 c 2,62,-1
 492 1323 l 2,63,64
 492 1288 492 1288 467 1263 c 0,65,66
 441 1238 441 1238 407 1238 c 0,67,68
 372 1238 372 1238 347 1263 c 128,-1,69
 322 1288 322 1288 322 1323 c 2,70,-1
 322 1581 l 2,71,72
 322 1615 322 1615 345 1639 c 128,-1,73
 368 1663 368 1663 403 1666 c 0,74,75
 405 1666 405 1666 407 1666 c 1,56,-1
EndSplineSet
EndChar

StartChar: numbersign
Encoding: 35 35 6
Width: 1586
GlyphClass: 2
Flags: W
LayerCount: 2
Fore
SplineSet
246 -2 m 1,0,-1
 246 -2 l 1,1,2
 285 -2 285 -2 318 19 c 128,-1,3
 351 40 351 40 368 76 c 2,4,-1
 437 227 l 2,5,6
 439 228 439 228 439 230 c 2,7,-1
 542 453 l 2,8,9
 543 455 543 455 544 457 c 2,10,-1
 772 952 l 2,11,12
 776 955 776 955 778 960 c 2,13,-1
 880 1182 l 2,14,15
 882 1187 882 1187 883 1191 c 2,16,-1
 910 1251 l 2,17,18
 933 1301 933 1301 914 1353 c 0,19,20
 894 1404 894 1404 844 1427 c 0,21,22
 817 1439 817 1439 788 1439 c 0,23,24
 749 1439 749 1439 716.5 1418.5 c 128,-1,25
 684 1398 684 1398 667 1362 c 2,26,-1
 600 1217 l 1,27,-1
 474 1217 l 2,28,29
 418 1217 418 1217 378 1177 c 128,-1,30
 338 1137 338 1137 338 1081 c 256,31,32
 338 1025 338 1025 378 985.5 c 128,-1,33
 418 946 418 946 474 946 c 2,34,-1
 475 946 l 1,35,-1
 263 487 l 1,36,-1
 136 487 l 2,37,38
 80 487 80 487 40 447.5 c 128,-1,39
 0 408 0 408 0 352 c 256,40,41
 0 296 0 296 40 256 c 128,-1,42
 80 216 80 216 136 216 c 2,43,-1
 138 216 l 1,44,-1
 124 186 l 2,45,46
 102 136 102 136 120 85 c 0,47,48
 140 33 140 33 190 10 c 0,49,50
 217 -2 217 -2 246 -2 c 1,0,-1
136 439 m 1,51,-1
 136 439 l 1,52,-1
 278 439 l 2,53,54
 293 439 293 439 301 453 c 2,55,-1
 535 960 l 2,56,57
 540 972 540 972 533 983 c 0,58,59
 525 994 525 994 512 994 c 2,60,-1
 474 994 l 2,61,62
 438 994 438 994 412.5 1019.5 c 128,-1,63
 387 1045 387 1045 387 1081 c 256,64,65
 387 1117 387 1117 412.5 1142.5 c 128,-1,66
 438 1168 438 1168 474 1168 c 2,67,-1
 615 1168 l 2,68,69
 629 1168 629 1168 637 1182 c 2,70,-1
 711 1341 l 2,71,72
 738 1391 738 1391 788 1391 c 0,73,74
 807 1391 807 1391 824 1383 c 0,75,76
 856 1368 856 1368 869 1336 c 0,77,78
 880 1303 880 1303 866 1272 c 2,79,-1
 834 1203 l 2,80,81
 832 1198 832 1198 832 1194 c 2,82,-1
 737 988 l 2,83,84
 734 985 734 985 732 980 c 2,85,-1
 498 473 l 2,86,87
 497 471 497 471 496 469 c 2,88,-1
 397 254 l 2,89,90
 396 253 396 253 395 251 c 2,91,-1
 323 96 l 2,92,93
 296 47 296 47 246 47 c 0,94,95
 227 47 227 47 210 54 c 0,96,97
 178 69 178 69 165 102 c 0,98,99
 154 134 154 134 168 166 c 2,100,-1
 198 230 l 2,101,102
 203 242 203 242 196 254 c 0,103,104
 188 265 188 265 176 265 c 2,105,-1
 136 265 l 2,106,107
 100 265 100 265 74.5 290.5 c 128,-1,108
 49 316 49 316 49 352 c 256,109,110
 49 388 49 388 74.5 413.5 c 128,-1,111
 100 439 100 439 136 439 c 1,51,-1
598 2 m 1,112,-1
 598 2 l 1,113,114
 637 2 637 2 670 23 c 128,-1,115
 703 44 703 44 720 80 c 2,116,-1
 786 225 l 1,117,-1
 912 225 l 2,118,119
 968 225 968 225 1008 264.5 c 128,-1,120
 1048 304 1048 304 1048 360 c 256,121,122
 1048 416 1048 416 1008 456 c 128,-1,123
 968 496 968 496 912 496 c 2,124,-1
 911 496 l 1,125,-1
 1123 954 l 1,126,-1
 1250 954 l 2,127,128
 1306 954 1306 954 1346 994 c 128,-1,129
 1386 1034 1386 1034 1386 1090 c 256,130,131
 1386 1146 1386 1146 1346 1185.5 c 128,-1,132
 1306 1225 1306 1225 1250 1225 c 2,133,-1
 1248 1225 l 1,134,-1
 1262 1256 l 2,135,136
 1285 1305 1285 1305 1266 1357 c 0,137,138
 1246 1408 1246 1408 1196 1432 c 0,139,140
 1169 1443 1169 1443 1140 1443 c 0,141,142
 1101 1443 1101 1443 1068 1422.5 c 128,-1,143
 1035 1402 1035 1402 1018 1366 c 2,144,-1
 949 1215 l 2,145,146
 948 1213 948 1213 947 1211 c 2,147,-1
 844 989 l 2,148,149
 843 987 843 987 843 985 c 2,150,-1
 614 489 l 2,151,152
 610 486 610 486 608 482 c 2,153,-1
 506 259 l 2,154,155
 504 255 504 255 503 250 c 2,156,-1
 476 190 l 2,157,158
 453 140 453 140 472 89 c 0,159,160
 492 37 492 37 542 14 c 0,161,162
 569 2 569 2 598 2 c 1,112,-1
554 248 m 1,163,-1
 554 248 l 1,164,-1
 649 454 l 2,165,166
 652 457 652 457 654 461 c 2,167,-1
 888 968 l 2,168,169
 889 970 889 970 890 972 c 2,170,-1
 989 1187 l 2,171,172
 990 1189 990 1189 991 1191 c 2,173,-1
 1063 1346 l 2,174,175
 1090 1395 1090 1395 1140 1395 c 0,176,177
 1159 1395 1159 1395 1176 1387 c 0,178,179
 1208 1372 1208 1372 1221 1340 c 0,180,181
 1232 1307 1232 1307 1218 1276 c 2,182,-1
 1188 1211 l 2,183,184
 1183 1199 1183 1199 1190 1188 c 0,185,186
 1198 1177 1198 1177 1210 1177 c 2,187,-1
 1250 1177 l 2,188,189
 1286 1177 1286 1177 1311.5 1151.5 c 128,-1,190
 1337 1126 1337 1126 1337 1090 c 256,191,192
 1337 1054 1337 1054 1311.5 1028.5 c 128,-1,193
 1286 1003 1286 1003 1250 1003 c 2,194,-1
 1108 1003 l 2,195,196
 1093 1003 1093 1003 1086 989 c 2,197,-1
 852 482 l 2,198,199
 846 470 846 470 853 458 c 0,200,201
 861 447 861 447 874 447 c 2,202,-1
 912 447 l 2,203,204
 948 447 948 447 973.5 421.5 c 128,-1,205
 999 396 999 396 999 360 c 256,206,207
 999 324 999 324 973.5 298.5 c 128,-1,208
 948 273 948 273 912 273 c 2,209,-1
 771 273 l 2,210,211
 757 273 757 273 749 259 c 2,212,-1
 675 100 l 2,213,214
 648 51 648 51 598 51 c 0,215,216
 579 51 579 51 562 58 c 0,217,218
 530 73 530 73 517 106 c 0,219,220
 506 138 506 138 520 170 c 2,221,-1
 552 239 l 2,222,223
 554 243 554 243 554 248 c 1,163,-1
EndSplineSet
EndChar

StartChar: dollar
Encoding: 36 36 7
Width: 997
GlyphClass: 2
Flags: W
LayerCount: 2
Fore
SplineSet
399 0 m 1,0,-1
 399 0 l 1,1,2
 454 0 454 0 493.5 35 c 128,-1,3
 533 70 533 70 533 120 c 2,4,-1
 533 146 l 1,5,6
 617 159 617 159 678 220 c 1,7,8
 716 252 716 252 743 296 c 1,9,-1
 749 303 l 2,10,11
 750 304 750 304 751 306 c 0,12,13
 797 390 797 390 795 485 c 0,14,15
 796 628 796 628 702 730 c 1,16,17
 602 831 602 831 438 831 c 2,18,-1
 371 831 l 2,19,20
 365 833 365 833 358 833 c 0,21,22
 304 833 304 833 272 868.5 c 128,-1,23
 240 904 240 904 237 949 c 0,24,25
 238 951 238 951 238 954 c 0,26,27
 238 999 238 999 270 1037.5 c 128,-1,28
 302 1076 302 1076 359 1076 c 0,29,30
 381 1076 381 1076 437.5 1076 c 128,-1,31
 494 1076 494 1076 543 1076 c 2,32,-1
 584 1076 l 1,33,-1
 683 1075 l 2,34,35
 728 1075 728 1075 761.5 1109 c 128,-1,36
 795 1143 795 1143 795 1189 c 256,37,38
 795 1235 795 1235 762.5 1268 c 128,-1,39
 730 1301 730 1301 684 1301 c 2,40,-1
 597 1301 l 1,41,-1
 533 1300 l 1,42,-1
 533 1317 l 2,43,44
 533 1366 533 1366 493.5 1401.5 c 128,-1,45
 454 1437 454 1437 399 1437 c 0,46,47
 343 1437 343 1437 303.5 1401.5 c 128,-1,48
 264 1366 264 1366 264 1317 c 2,49,-1
 264 1295 l 1,50,51
 180 1282 180 1282 119 1221 c 0,52,53
 81 1188 81 1188 54 1145 c 1,54,-1
 48 1138 l 2,55,56
 47 1136 47 1136 46 1135 c 0,57,58
 0 1051 0 1051 2 955 c 0,59,60
 1 812 1 812 95 711 c 0,61,62
 193 611 193 611 359 610 c 2,63,-1
 431 608 l 2,64,65
 435 608 435 608 439 608 c 0,66,67
 494 608 494 608 525.5 572.5 c 128,-1,68
 557 537 557 537 560 492 c 0,69,70
 560 490 560 490 560 487 c 0,71,72
 560 442 560 442 527.5 403.5 c 128,-1,73
 495 365 495 365 438 365 c 0,74,75
 415 365 415 365 353 365 c 128,-1,76
 291 365 291 365 243 365 c 2,77,-1
 115 366 l 2,78,79
 69 366 69 366 35.5 332 c 128,-1,80
 2 298 2 298 2 251 c 0,81,82
 2 205 2 205 35 172.5 c 128,-1,83
 68 140 68 140 114 140 c 2,84,-1
 200 140 l 1,85,-1
 264 140 l 1,86,-1
 264 120 l 2,87,88
 264 70 264 70 303.5 35 c 128,-1,89
 343 0 343 0 399 0 c 1,0,-1
289 189 m 1,90,-1
 289 189 l 1,91,92
 289 189 289 189 288 189 c 2,93,-1
 200 188 l 1,94,-1
 114 188 l 2,95,96
 88 188 88 188 69.5 206.5 c 128,-1,97
 51 225 51 225 51 251 c 0,98,99
 51 278 51 278 70 297.5 c 128,-1,100
 89 317 89 317 115 317 c 2,101,-1
 213 316 l 1,102,-1
 243 316 l 2,103,104
 249 316 249 316 257 316 c 0,105,106
 305 316 305 316 360.5 316 c 128,-1,107
 416 316 416 316 438 316 c 0,108,109
 508 316 508 316 556 362.5 c 128,-1,110
 604 409 604 409 608 481 c 0,111,112
 609 484 609 484 609 487 c 0,113,114
 606 560 606 560 559 607 c 128,-1,115
 512 654 512 654 440 656 c 0,116,117
 439 656 439 656 438 657 c 0,118,119
 435 657 435 657 433 657 c 2,120,-1
 360 659 l 2,121,122
 359 659 359 659 359 659 c 2,123,124
 214 659 214 659 130 745 c 0,125,126
 49 831 49 831 51 955 c 0,127,128
 51 956 51 956 51 956 c 2,129,130
 49 1038 49 1038 87 1109 c 1,131,-1
 93 1116 l 2,132,133
 94 1117 94 1117 94 1118 c 0,134,135
 118 1156 118 1156 151 1184 c 0,136,137
 152 1185 152 1185 153 1185 c 0,138,139
 208 1243 208 1243 291 1250 c 0,140,141
 301 1251 301 1251 307 1257.5 c 128,-1,142
 313 1264 313 1264 313 1274 c 2,143,-1
 313 1317 l 2,144,145
 313 1346 313 1346 338 1367 c 128,-1,146
 363 1388 363 1388 399 1388 c 0,147,148
 434 1388 434 1388 459 1367 c 128,-1,149
 484 1346 484 1346 484 1317 c 2,150,-1
 484 1276 l 2,151,152
 484 1266 484 1266 492 1259 c 0,153,154
 499 1252 499 1252 509 1252 c 2,155,-1
 597 1252 l 1,156,-1
 684 1252 l 2,157,158
 710 1252 710 1252 728.5 1233.5 c 128,-1,159
 747 1215 747 1215 747 1189 c 256,160,161
 747 1163 747 1163 727.5 1143.5 c 128,-1,162
 708 1124 708 1124 683 1124 c 2,163,-1
 584 1124 l 1,164,-1
 543 1125 l 2,165,166
 494 1125 494 1125 437.5 1125 c 128,-1,167
 381 1125 381 1125 359 1125 c 0,168,169
 289 1125 289 1125 241 1078 c 128,-1,170
 193 1031 193 1031 189 960 c 0,171,172
 188 957 188 957 188 953 c 0,173,174
 191 881 191 881 237.5 834 c 128,-1,175
 284 787 284 787 356 785 c 0,176,177
 360 783 360 783 365 783 c 2,178,-1
 438 782 l 2,179,180
 584 782 584 782 668 696 c 0,181,182
 748 609 748 609 747 486 c 0,183,184
 747 485 747 485 747 484 c 0,185,186
 749 403 749 403 710 332 c 1,187,-1
 705 325 l 2,188,189
 704 324 704 324 703 323 c 0,190,191
 680 285 680 285 646 257 c 0,192,193
 645 256 645 256 644 255 c 0,194,195
 589 198 589 198 506 191 c 0,196,197
 497 190 497 190 490.5 183 c 128,-1,198
 484 176 484 176 484 167 c 2,199,-1
 484 120 l 2,200,201
 484 90 484 90 459 69 c 128,-1,202
 434 48 434 48 399 48 c 0,203,204
 363 48 363 48 338 69 c 128,-1,205
 313 90 313 90 313 120 c 2,206,-1
 313 165 l 2,207,208
 313 174 313 174 306 182 c 0,209,210
 298 189 298 189 289 189 c 1,90,-1
EndSplineSet
EndChar

StartChar: percent
Encoding: 37 37 8
Width: 1402
GlyphClass: 2
Flags: W
LayerCount: 2
Fore
SplineSet
138 -2 m 1,0,-1
 138 -2 l 1,1,2
 200 -2 200 -2 243 49 c 2,3,-1
 1168 1222 l 2,4,5
 1202 1267 1202 1267 1196 1319.5 c 128,-1,6
 1190 1372 1190 1372 1146 1408 c 0,7,8
 1108 1437 1108 1437 1064 1437 c 0,9,10
 1002 1437 1002 1437 959 1386 c 2,11,-1
 34 214 l 2,12,13
 0 169 0 169 6 116 c 128,-1,14
 12 63 12 63 56 27 c 0,15,16
 93 -2 93 -2 138 -2 c 1,17,18
 138 -2 138 -2 138 -2 c 1,0,-1
1064 1388 m 1,19,-1
 1064 1388 l 1,20,21
 1093 1388 1093 1388 1116 1370 c 0,22,23
 1144 1347 1144 1347 1148 1313.5 c 128,-1,24
 1152 1280 1152 1280 1130 1252 c 2,25,-1
 204 79 l 2,26,27
 177 47 177 47 138 47 c 1,28,-1
 138 47 l 1,29,30
 109 47 109 47 86 65 c 0,31,32
 58 88 58 88 54 121.5 c 128,-1,33
 50 155 50 155 72 184 c 2,34,-1
 997 1356 l 2,35,36
 1025 1388 1025 1388 1064 1388 c 1,19,-1
140 1054 m 1,37,-1
 140 1054 l 1,38,39
 196 1054 196 1054 235.5 1094 c 128,-1,40
 275 1134 275 1134 275 1189 c 0,41,42
 275 1245 275 1245 235.5 1285 c 128,-1,43
 196 1325 196 1325 140 1325 c 256,44,45
 84 1325 84 1325 44.5 1285 c 128,-1,46
 5 1245 5 1245 5 1189 c 0,47,48
 5 1134 5 1134 44.5 1094 c 128,-1,49
 84 1054 84 1054 140 1054 c 1,37,-1
140 1276 m 1,50,-1
 140 1276 l 1,51,52
 176 1276 176 1276 201.5 1250.5 c 128,-1,53
 227 1225 227 1225 227 1189 c 0,54,55
 227 1154 227 1154 201.5 1128.5 c 128,-1,56
 176 1103 176 1103 140 1103 c 256,57,58
 104 1103 104 1103 79 1128.5 c 128,-1,59
 54 1154 54 1154 54 1189 c 0,60,61
 54 1225 54 1225 79 1250.5 c 128,-1,62
 104 1276 104 1276 140 1276 c 1,50,-1
1062 107 m 1,63,-1
 1062 107 l 1,64,65
 1118 107 1118 107 1157.5 146.5 c 128,-1,66
 1197 186 1197 186 1197 242 c 256,67,68
 1197 298 1197 298 1157.5 337.5 c 128,-1,69
 1118 377 1118 377 1062 377 c 256,70,71
 1006 377 1006 377 966.5 337.5 c 128,-1,72
 927 298 927 298 927 242 c 256,73,74
 927 186 927 186 966.5 146.5 c 128,-1,75
 1006 107 1006 107 1062 107 c 1,63,-1
1062 329 m 1,76,-1
 1062 329 l 1,77,78
 1098 329 1098 329 1123 303.5 c 128,-1,79
 1148 278 1148 278 1148 242 c 256,80,81
 1148 206 1148 206 1123 181 c 128,-1,82
 1098 156 1098 156 1062 156 c 256,83,84
 1026 156 1026 156 1000.5 181 c 128,-1,85
 975 206 975 206 975 242 c 256,86,87
 975 278 975 278 1000.5 303.5 c 128,-1,88
 1026 329 1026 329 1062 329 c 1,76,-1
EndSplineSet
EndChar

StartChar: ampersand
Encoding: 38 38 9
Width: 1433
GlyphClass: 2
Flags: W
LayerCount: 2
Fore
SplineSet
441 592 m 1,0,-1
 441 592 l 1,1,2
 444 592 444 592 447 593 c 2,3,-1
 539 593 l 2,4,5
 542 593 542 593 545 593 c 0,6,7
 561 593 561 593 577 594 c 0,8,9
 743 591 743 591 839 691 c 1,10,11
 887 731 887 731 920 784 c 1,12,-1
 927 793 l 2,13,14
 928 795 928 795 929 797 c 0,15,16
 986 899 986 899 983 1016 c 1,17,18
 986 1134 986 1134 929 1236 c 0,19,20
 928 1238 928 1238 927 1240 c 2,21,-1
 920 1248 l 1,22,23
 887 1302 887 1302 839 1342 c 1,24,25
 743 1442 743 1442 577 1439 c 0,26,27
 561 1440 561 1440 545 1440 c 0,28,29
 542 1440 542 1440 539 1440 c 2,30,-1
 447 1440 l 2,31,32
 444 1441 444 1441 441 1441 c 0,33,34
 425 1441 425 1441 409 1440 c 0,35,36
 243 1443 243 1443 147 1343 c 1,37,38
 99 1303 99 1303 66 1249 c 1,39,-1
 59 1241 l 2,40,41
 58 1239 58 1239 57 1237 c 0,42,43
 0 1134 0 1134 3 1017 c 2,44,45
 3 1017 3 1017 3 1016.5 c 128,-1,46
 3 1016 3 1016 3 1016 c 2,47,48
 0 898 0 898 57 796 c 0,49,50
 58 794 58 794 59 792 c 2,51,-1
 66 784 l 1,52,53
 99 730 99 730 147 690 c 1,54,55
 243 590 243 590 409 593 c 0,56,57
 425 592 425 592 441 592 c 1,0,-1
98 821 m 1,58,-1
 98 821 l 1,59,60
 49 912 49 912 51 1015 c 2,61,62
 51 1015 51 1015 51 1015.5 c 128,-1,63
 51 1016 51 1016 51 1016 c 257,64,65
 51 1016 51 1016 51 1016 c 1,66,67
 51 1017 51 1017 51 1018 c 0,68,69
 49 1121 49 1121 98 1212 c 1,70,-1
 105 1220 l 2,71,72
 106 1221 106 1221 107 1223 c 0,73,74
 136 1271 136 1271 179 1306 c 0,75,76
 179 1307 179 1307 180 1307 c 0,77,78
 217 1347 217 1347 269 1369 c 128,-1,79
 321 1391 321 1391 410 1392 c 0,80,81
 411 1392 411 1392 411 1392 c 2,82,83
 423 1392 423 1392 435 1393 c 0,84,85
 438 1392 438 1392 441 1392 c 1,86,-1
 441 1392 l 1,87,-1
 539 1392 l 2,88,89
 541 1392 541 1392 543 1392 c 0,90,91
 544 1392 544 1392 545 1392 c 0,92,93
 559 1392 559 1392 575 1391 c 2,94,95
 575 1391 575 1391 576 1391 c 0,96,97
 665 1390 665 1390 716.5 1368 c 128,-1,98
 768 1346 768 1346 806 1306 c 2,99,100
 806 1306 806 1306 807 1305 c 0,101,102
 850 1270 850 1270 879 1222 c 0,103,104
 880 1220 880 1220 881 1219 c 2,105,-1
 888 1211 l 1,106,107
 937 1120 937 1120 935 1017 c 0,108,109
 935 1016 935 1016 935 1016 c 2,110,111
 937 913 937 913 888 822 c 1,112,-1
 881 814 l 2,113,114
 880 813 880 813 879 811 c 0,115,116
 850 763 850 763 807 728 c 0,117,118
 806 727 806 727 806 726 c 0,119,120
 768 687 768 687 716.5 665 c 128,-1,121
 665 643 665 643 576 642 c 0,122,123
 575 642 575 642 575 642 c 2,124,125
 560 641 560 641 546 641 c 0,126,127
 544 641 544 641 543 641 c 0,128,129
 541 641 541 641 539 641 c 2,130,-1
 441 641 l 1,131,-1
 441 641 l 1,132,133
 438 641 438 641 435 640 c 0,134,135
 423 641 423 641 411 641 c 2,136,137
 411 641 411 641 410 641 c 0,138,139
 321 642 321 642 269 664 c 128,-1,140
 217 686 217 686 180 726 c 0,141,142
 179 726 179 726 179 727 c 0,143,144
 136 762 136 762 107 810 c 0,145,146
 106 812 106 812 105 813 c 2,147,-1
 98 821 l 1,58,-1
545 812 m 1,148,-1
 545 812 l 1,149,150
 630 812 630 812 688.5 870 c 128,-1,151
 747 928 747 928 750 1016 c 2,152,153
 750 1016 750 1016 750 1017 c 0,154,155
 747 1105 747 1105 688.5 1163 c 128,-1,156
 630 1221 630 1221 545 1221 c 0,157,158
 529 1221 529 1221 495.5 1221 c 128,-1,159
 462 1221 462 1221 422 1221 c 0,160,161
 420 1221 420 1221 419 1221 c 0,162,163
 340 1211 340 1211 289 1154.5 c 128,-1,164
 238 1098 238 1098 235 1016 c 1,165,166
 238 935 238 935 289 878.5 c 128,-1,167
 340 822 340 822 419 812 c 0,168,169
 420 812 420 812 422 812 c 0,170,171
 462 812 462 812 495.5 812 c 128,-1,172
 529 812 529 812 545 812 c 1,148,-1
423 861 m 1,173,-1
 423 861 l 1,174,175
 362 868 362 868 323.5 911 c 128,-1,176
 285 954 285 954 284 1016 c 0,177,178
 285 1079 285 1079 323.5 1122 c 128,-1,179
 362 1165 362 1165 423 1172 c 1,180,181
 513 1172 513 1172 545 1172 c 0,182,183
 610 1172 610 1172 654.5 1128 c 128,-1,184
 699 1084 699 1084 702 1016 c 1,185,186
 699 949 699 949 654.5 905 c 128,-1,187
 610 861 610 861 545 861 c 0,188,189
 513 861 513 861 423 861 c 1,173,-1
441 0 m 1,190,-1
 441 0 l 1,191,192
 444 0 444 0 447 1 c 2,193,-1
 539 0 l 2,194,195
 542 0 542 0 545 1 c 0,196,197
 561 1 561 1 577 1 c 0,198,199
 743 -1 743 -1 839 99 c 1,200,201
 887 139 887 139 920 192 c 1,202,-1
 927 201 l 2,203,204
 928 203 928 203 929 205 c 0,205,206
 954 248 954 248 967 298 c 1,207,-1
 1099 298 l 1,208,-1
 1099 298 l 1,209,210
 1152 298 1152 298 1193 337 c 0,211,212
 1233 378 1233 378 1233 432 c 0,213,214
 1233 487 1233 487 1193.5 526.5 c 128,-1,215
 1154 566 1154 566 1099 566 c 2,216,-1
 841 566 l 2,217,218
 807 566 807 566 777 550 c 0,219,220
 706 509 706 509 702 427 c 0,221,222
 702 426 702 426 702 425 c 0,223,224
 700 357 700 357 655 312.5 c 128,-1,225
 610 268 610 268 545 268 c 0,226,227
 513 268 513 268 423 268 c 1,228,229
 362 276 362 276 323.5 319 c 128,-1,230
 285 362 285 362 284 425 c 2,231,232
 284 425 284 425 284 426 c 0,233,234
 282 486 282 486 241.5 526 c 128,-1,235
 201 566 201 566 143 566 c 256,236,237
 85 566 85 566 44 524.5 c 128,-1,238
 3 483 3 483 3 425 c 0,239,240
 3 422 3 422 3 420 c 0,241,242
 1 304 1 304 57 204 c 0,243,244
 58 202 58 202 59 200 c 2,245,-1
 66 191 l 1,246,247
 99 138 99 138 147 98 c 1,248,249
 243 -2 243 -2 409 1 c 0,250,251
 425 0 425 0 441 0 c 1,190,-1
98 229 m 1,252,-1
 98 229 l 1,253,254
 50 318 50 318 51 419 c 0,255,256
 51 420 51 420 51 421 c 0,257,258
 51 423 51 423 51 425 c 0,259,260
 51 463 51 463 78 490 c 128,-1,261
 105 517 105 517 143 517 c 256,262,263
 181 517 181 517 207.5 490.5 c 128,-1,264
 234 464 234 464 235 425 c 1,265,266
 235 425 235 425 235 425 c 129,-1,267
 235 425 235 425 235 424 c 256,268,269
 235 423 235 423 235 422 c 0,270,271
 238 341 238 341 289 285.5 c 128,-1,272
 340 230 340 230 419 220 c 0,273,274
 420 220 420 220 422 220 c 0,275,276
 462 220 462 220 495.5 220 c 128,-1,277
 529 220 529 220 545 220 c 0,278,279
 630 220 630 220 688 277.5 c 128,-1,280
 746 335 746 335 750 422 c 0,281,282
 751 423 751 423 751 424 c 256,283,284
 751 425 751 425 751 425 c 2,285,286
 752 480 752 480 800 507 c 0,287,288
 820 517 820 517 841 517 c 2,289,-1
 1099 517 l 2,290,291
 1134 517 1134 517 1159 492 c 128,-1,292
 1184 467 1184 467 1184 432 c 0,293,294
 1184 398 1184 398 1159 372 c 0,295,296
 1133 347 1133 347 1099 347 c 1,297,-1
 1099 347 l 1,298,-1
 949 347 l 2,299,300
 940 347 940 347 933.5 341.5 c 128,-1,301
 927 336 927 336 925 328 c 0,302,303
 913 275 913 275 888 230 c 1,304,-1
 881 222 l 2,305,306
 880 220 880 220 879 219 c 0,307,308
 850 171 850 171 807 136 c 0,309,310
 806 135 806 135 806 134 c 0,311,312
 768 95 768 95 716.5 73 c 128,-1,313
 665 51 665 51 576 50 c 0,314,315
 575 50 575 50 575 50 c 2,316,317
 559 49 559 49 545 49 c 0,318,319
 544 49 544 49 544 49 c 2,320,321
 543 49 543 49 543 49 c 2,322,323
 541 49 541 49 539 49 c 2,324,-1
 441 49 l 1,325,-1
 441 49 l 1,326,327
 438 49 438 49 435 48 c 0,328,329
 423 48 423 48 411 49 c 2,330,331
 411 49 411 49 410 49 c 0,332,333
 321 50 321 50 269 72 c 128,-1,334
 217 94 217 94 180 133 c 0,335,336
 179 134 179 134 179 135 c 0,337,338
 136 170 136 170 107 218 c 0,339,340
 106 220 106 220 105 221 c 2,341,-1
 98 229 l 1,252,-1
EndSplineSet
EndChar

StartChar: quotesingle
Encoding: 39 39 10
Width: 468
GlyphClass: 2
Flags: W
LayerCount: 2
Fore
SplineSet
134 1190 m 1,0,-1
 134 1190 l 1,1,2
 188 1190 188 1190 229 1229 c 0,3,4
 267 1269 267 1269 268 1324 c 2,5,-1
 268 1582 l 2,6,7
 268 1635 268 1635 232 1673 c 128,-1,8
 196 1711 196 1711 141 1715 c 0,9,10
 134 1716 134 1716 127 1715 c 0,11,12
 73 1711 73 1711 36.5 1673 c 128,-1,13
 0 1635 0 1635 0 1582 c 2,14,-1
 0 1324 l 2,15,16
 0 1268 0 1268 39.5 1229 c 128,-1,17
 79 1190 79 1190 134 1190 c 1,0,-1
134 1667 m 1,18,-1
 134 1667 l 1,19,20
 136 1667 136 1667 138 1667 c 0,21,22
 173 1664 173 1664 196 1640 c 128,-1,23
 219 1616 219 1616 219 1582 c 2,24,-1
 219 1324 l 2,25,26
 219 1290 219 1290 194 1263 c 0,27,28
 168 1239 168 1239 134 1239 c 0,29,30
 99 1239 99 1239 74 1264 c 128,-1,31
 49 1289 49 1289 49 1324 c 2,32,-1
 49 1582 l 2,33,34
 49 1616 49 1616 72 1640 c 128,-1,35
 95 1664 95 1664 130 1667 c 0,36,37
 132 1667 132 1667 134 1667 c 1,18,-1
EndSplineSet
EndChar

StartChar: parenleft
Encoding: 40 40 11
Width: 896
GlyphClass: 2
Flags: W
LayerCount: 2
Fore
SplineSet
561 -127 m 1,0,-1
 561 -127 l 1,1,2
 617 -127 617 -127 656.5 -87.5 c 128,-1,3
 696 -48 696 -48 696 8 c 0,4,5
 696 75 696 75 636 119 c 0,6,7
 634 121 634 121 631 123 c 0,8,9
 630 123 630 123 629 124 c 1,10,11
 629 124 629 124 629 124 c 1,12,-1
 626 125 l 2,13,14
 625 126 625 126 624 127 c 0,15,16
 458 217 458 217 363.5 374.5 c 128,-1,17
 269 532 269 532 269 718 c 0,18,19
 269 902 269 902 363 1059 c 128,-1,20
 457 1216 457 1216 621 1307 c 0,21,22
 625 1309 625 1309 628 1311 c 2,23,-1
 631 1312 l 2,24,25
 634 1314 634 1314 636 1316 c 0,26,27
 696 1360 696 1360 696 1427 c 0,28,29
 696 1483 696 1483 656.5 1522.5 c 128,-1,30
 617 1562 617 1562 561 1562 c 0,31,32
 527 1562 527 1562 496 1546 c 0,33,34
 495 1545 495 1545 493 1544 c 0,35,36
 263 1417 263 1417 131.5 1197 c 128,-1,37
 0 977 0 977 0 718 c 0,38,39
 0 461 0 461 130 241.5 c 128,-1,40
 260 22 260 22 487 -106 c 0,41,42
 489 -107 489 -107 491 -108 c 0,43,44
 524 -127 524 -127 561 -127 c 1,0,-1
509 -63 m 1,45,-1
 509 -63 l 1,46,47
 294 59 294 59 171.5 266.5 c 128,-1,48
 49 474 49 474 49 718 c 0,49,50
 49 963 49 963 173 1171.5 c 128,-1,51
 297 1380 297 1380 516 1501 c 0,52,53
 517 1502 517 1502 519 1503 c 0,54,55
 539 1514 539 1514 561 1514 c 0,56,57
 597 1514 597 1514 622 1488.5 c 128,-1,58
 647 1463 647 1463 647 1427 c 0,59,60
 647 1383 647 1383 607 1355 c 0,61,62
 606 1354 606 1354 606 1354 c 1,63,-1
 605 1353 l 1,64,65
 605 1353 605 1353 604 1353 c 1,66,67
 604 1353 604 1353 604 1353 c 1,68,69
 602 1352 602 1352 599 1350 c 1,70,71
 599 1350 599 1350 599 1350 c 1,72,73
 422 1253 422 1253 321.5 1084.5 c 128,-1,74
 221 916 221 916 221 718 c 0,75,76
 221 519 221 519 322 350 c 128,-1,77
 423 181 423 181 601 84 c 1,78,-1
 603 83 l 1,79,80
 603 83 603 83 603 83 c 257,81,82
 603 83 603 83 603 83 c 1,83,-1
 605 82 l 1,84,85
 605 82 605 82 605 82 c 257,86,87
 605 82 605 82 605 82 c 1,88,89
 606 81 606 81 607 80 c 0,90,91
 647 52 647 52 647 8 c 0,92,93
 647 -28 647 -28 622 -53 c 128,-1,94
 597 -78 597 -78 561 -78 c 0,95,96
 536 -78 536 -78 515 -65 c 0,97,98
 512 -63 512 -63 509 -63 c 1,45,-1
EndSplineSet
EndChar

StartChar: parenright
Encoding: 41 41 12
Width: 895
GlyphClass: 2
Flags: W
LayerCount: 2
Fore
SplineSet
135 -127 m 1,0,-1
 135 -127 l 1,1,2
 172 -127 172 -127 204 -107 c 0,3,4
 206 -107 206 -107 208 -105 c 0,5,6
 436 22 436 22 565.5 241.5 c 128,-1,7
 695 461 695 461 695 718 c 0,8,9
 695 977 695 977 564 1197 c 128,-1,10
 433 1417 433 1417 202 1544 c 0,11,12
 201 1545 201 1545 199 1546 c 0,13,14
 168 1562 168 1562 135 1562 c 0,15,16
 79 1562 79 1562 39.5 1522.5 c 128,-1,17
 0 1483 0 1483 0 1428 c 0,18,19
 0 1360 0 1360 60 1316 c 0,20,21
 62 1314 62 1314 64 1313 c 2,22,-1
 67 1311 l 2,23,24
 71 1309 71 1309 74 1307 c 0,25,26
 239 1217 239 1217 332.5 1060 c 128,-1,27
 426 903 426 903 426 718 c 0,28,29
 426 532 426 532 331.5 375 c 128,-1,30
 237 218 237 218 72 127 c 0,31,32
 71 126 71 126 69 126 c 2,33,-1
 67 124 l 2,34,35
 66 124 66 124 66 124 c 2,36,37
 65 123 65 123 64 123 c 0,38,39
 62 122 62 122 59 120 c 0,40,41
 0 76 0 76 0 8 c 0,42,43
 0 -48 0 -48 39.5 -87.5 c 128,-1,44
 79 -127 79 -127 135 -127 c 1,0,-1
90 82 m 1,45,-1
 90 82 l 1,46,47
 90 82 90 82 90 82 c 257,48,49
 90 82 90 82 90 82 c 1,50,-1
 92 83 l 1,51,52
 92 83 92 83 92 83 c 1,53,54
 93 83 93 83 93 83 c 1,55,-1
 95 84 l 1,56,57
 272 181 272 181 373.5 350 c 128,-1,58
 475 519 475 519 475 718 c 0,59,60
 475 916 475 916 374 1084.5 c 128,-1,61
 273 1253 273 1253 97 1350 c 0,62,63
 96 1350 96 1350 96 1351 c 0,64,65
 94 1352 94 1352 91 1353 c 2,66,67
 91 1353 91 1353 91 1354 c 1,68,-1
 90 1354 l 2,69,70
 89 1355 89 1355 89 1355 c 1,71,72
 48 1383 48 1383 48 1428 c 0,73,74
 48 1463 48 1463 73.5 1488.5 c 128,-1,75
 99 1514 99 1514 135 1514 c 0,76,77
 157 1514 157 1514 177 1503 c 0,78,79
 178 1502 178 1502 180 1501 c 0,80,81
 398 1381 398 1381 522.5 1172 c 128,-1,82
 647 963 647 963 647 718 c 0,83,84
 647 475 647 475 524 267 c 128,-1,85
 401 59 401 59 186 -62 c 0,86,87
 183 -63 183 -63 181 -65 c 0,88,89
 159 -78 159 -78 135 -78 c 0,90,91
 99 -78 99 -78 73.5 -53 c 128,-1,92
 48 -28 48 -28 48 8 c 0,93,94
 48 52 48 52 89 81 c 1,95,96
 89 81 89 81 90 82 c 1,45,-1
EndSplineSet
EndChar

StartChar: asterisk
Encoding: 42 42 13
Width: 650
GlyphClass: 2
Flags: W
LayerCount: 2
Fore
SplineSet
134 982 m 1,0,-1
 134 982 l 1,1,2
 185 982 185 982 225 1018 c 1,3,4
 265 982 265 982 316 982 c 0,5,6
 369 982 369 982 410 1021 c 0,7,8
 449 1060 449 1060 450 1116 c 0,9,10
 449 1168 449 1168 414 1207 c 1,11,12
 450 1247 450 1247 450 1298 c 0,13,14
 450 1352 450 1352 410 1393 c 0,15,16
 369 1432 369 1432 316 1432 c 0,17,18
 265 1432 265 1432 225 1396 c 1,19,20
 185 1432 185 1432 134 1432 c 0,21,22
 80 1432 80 1432 39 1393 c 0,23,24
 0 1352 0 1352 0 1298 c 0,25,26
 0 1247 0 1247 36 1207 c 1,27,28
 0 1167 0 1167 0 1116 c 0,29,30
 0 1062 0 1062 39 1021 c 0,31,32
 80 982 80 982 134 982 c 1,0,-1
134 1383 m 1,33,-1
 134 1383 l 1,34,35
 168 1383 168 1383 194 1358 c 2,36,-1
 208 1344 l 2,37,38
 215 1337 215 1337 224.5 1337 c 128,-1,39
 234 1337 234 1337 242 1344 c 2,40,-1
 256 1358 l 2,41,42
 282 1383 282 1383 316 1383 c 256,43,44
 350 1383 350 1383 376 1358 c 0,45,46
 401 1332 401 1332 401 1298 c 256,47,48
 401 1264 401 1264 376 1238 c 2,49,-1
 362 1224 l 2,50,51
 355 1216 355 1216 355 1206.5 c 128,-1,52
 355 1197 355 1197 362 1190 c 2,53,-1
 376 1176 l 2,54,55
 401 1151 401 1151 401 1116 c 256,56,57
 401 1081 401 1081 376 1055 c 0,58,59
 350 1030 350 1030 316 1030 c 256,60,61
 282 1030 282 1030 256 1055 c 2,62,-1
 242 1069 l 2,63,64
 234 1076 234 1076 225 1076 c 0,65,66
 215 1076 215 1076 208 1069 c 2,67,-1
 194 1055 l 2,68,69
 168 1030 168 1030 134 1030 c 0,70,71
 99 1030 99 1030 73 1055 c 0,72,73
 48 1081 48 1081 48 1116 c 0,74,75
 48 1150 48 1150 73 1176 c 2,76,-1
 87 1190 l 2,77,78
 94 1197 94 1197 94 1207 c 0,79,80
 94 1216 94 1216 87 1224 c 2,81,-1
 73 1238 l 2,82,83
 48 1264 48 1264 48 1298 c 256,84,85
 48 1332 48 1332 73 1358 c 0,86,87
 99 1383 99 1383 134 1383 c 1,33,-1
EndSplineSet
EndChar

StartChar: plus
Encoding: 43 43 14
Width: 1184
GlyphClass: 2
Flags: W
LayerCount: 2
Fore
SplineSet
492 226 m 1,0,-1
 492 226 l 1,1,2
 546 226 546 226 585 264.5 c 128,-1,3
 624 303 624 303 624 358 c 2,4,-1
 624 586 l 1,5,-1
 851 586 l 2,6,7
 906 586 906 586 945 624.5 c 128,-1,8
 984 663 984 663 984 718 c 0,9,10
 984 772 984 772 945 811 c 128,-1,11
 906 850 906 850 851 850 c 2,12,-1
 624 850 l 1,13,-1
 624 1078 l 2,14,15
 624 1132 624 1132 585 1171 c 128,-1,16
 546 1210 546 1210 492 1210 c 0,17,18
 437 1210 437 1210 398 1171 c 128,-1,19
 359 1132 359 1132 359 1078 c 2,20,-1
 359 850 l 1,21,-1
 132 850 l 2,22,23
 77 850 77 850 38.5 811 c 128,-1,24
 0 772 0 772 0 718 c 0,25,26
 0 663 0 663 38.5 624.5 c 128,-1,27
 77 586 77 586 132 586 c 2,28,-1
 359 586 l 1,29,-1
 359 358 l 2,30,31
 359 303 359 303 398 264.5 c 128,-1,32
 437 226 437 226 492 226 c 1,0,-1
132 801 m 1,33,-1
 132 801 l 1,34,-1
 384 801 l 2,35,36
 394 801 394 801 401 808 c 128,-1,37
 408 815 408 815 408 826 c 2,38,-1
 408 1078 l 2,39,40
 408 1112 408 1112 432.5 1136.5 c 128,-1,41
 457 1161 457 1161 492 1161 c 0,42,43
 526 1161 526 1161 550.5 1136.5 c 128,-1,44
 575 1112 575 1112 575 1078 c 2,45,-1
 575 826 l 2,46,47
 575 815 575 815 582 808 c 128,-1,48
 589 801 589 801 599 801 c 2,49,-1
 851 801 l 2,50,51
 886 801 886 801 910.5 776.5 c 128,-1,52
 935 752 935 752 935 718 c 0,53,54
 935 683 935 683 910.5 658.5 c 128,-1,55
 886 634 886 634 851 634 c 2,56,-1
 599 634 l 2,57,58
 589 634 589 634 582 627 c 128,-1,59
 575 620 575 620 575 610 c 2,60,-1
 575 358 l 2,61,62
 575 323 575 323 550.5 298.5 c 128,-1,63
 526 274 526 274 492 274 c 0,64,65
 457 274 457 274 432.5 298.5 c 128,-1,66
 408 323 408 323 408 358 c 2,67,-1
 408 610 l 2,68,69
 408 620 408 620 401 627 c 128,-1,70
 394 634 394 634 384 634 c 2,71,-1
 132 634 l 2,72,73
 97 634 97 634 72.5 658.5 c 128,-1,74
 48 683 48 683 48 718 c 0,75,76
 48 752 48 752 72.5 776.5 c 128,-1,77
 97 801 97 801 132 801 c 1,33,-1
EndSplineSet
EndChar

StartChar: comma
Encoding: 44 44 15
Width: 468
GlyphClass: 2
Flags: W
LayerCount: 2
Fore
SplineSet
134 -261 m 1,0,-1
 134 -261 l 1,1,2
 188 -261 188 -261 229 -221 c 0,3,4
 267 -182 267 -182 268 -127 c 2,5,-1
 268 131 l 2,6,7
 268 184 268 184 232 222.5 c 128,-1,8
 196 261 196 261 141 265 c 0,9,10
 134 265 134 265 127 265 c 0,11,12
 73 261 73 261 36.5 222.5 c 128,-1,13
 0 184 0 184 0 131 c 2,14,-1
 0 -127 l 2,15,16
 0 -182 0 -182 39.5 -221.5 c 128,-1,17
 79 -261 79 -261 134 -261 c 1,0,-1
134 216 m 1,18,-1
 134 216 l 1,19,20
 136 216 136 216 138 216 c 0,21,22
 173 214 173 214 196 189.5 c 128,-1,23
 219 165 219 165 219 131 c 2,24,-1
 219 -127 l 2,25,26
 219 -161 219 -161 194 -187 c 0,27,28
 168 -212 168 -212 134 -212 c 0,29,30
 99 -212 99 -212 74 -187 c 128,-1,31
 49 -162 49 -162 49 -127 c 2,32,-1
 49 131 l 2,33,34
 49 165 49 165 72 189.5 c 128,-1,35
 95 214 95 214 130 216 c 0,36,37
 132 216 132 216 134 216 c 1,18,-1
EndSplineSet
EndChar

StartChar: hyphen
Encoding: 45 45 16
AltUni2: 0000ad.ffffffff.0
Width: 1184
GlyphClass: 2
Flags: W
LayerCount: 2
Fore
SplineSet
852 585 m 1,0,-1
 852 585 l 1,1,2
 907 585 907 585 945.5 624 c 128,-1,3
 984 663 984 663 984 718 c 0,4,5
 984 772 984 772 945.5 811 c 128,-1,6
 907 850 907 850 852 850 c 2,7,-1
 132 850 l 2,8,9
 78 850 78 850 39 811 c 128,-1,10
 0 772 0 772 0 718 c 0,11,12
 0 663 0 663 39 624 c 128,-1,13
 78 585 78 585 132 585 c 2,14,-1
 852 585 l 1,0,-1
132 801 m 1,15,-1
 132 801 l 1,16,-1
 852 801 l 2,17,18
 887 801 887 801 911.5 776.5 c 128,-1,19
 936 752 936 752 936 718 c 0,20,21
 936 683 936 683 911.5 658.5 c 128,-1,22
 887 634 887 634 852 634 c 2,23,-1
 132 634 l 2,24,25
 98 634 98 634 73.5 658.5 c 128,-1,26
 49 683 49 683 49 718 c 0,27,28
 49 752 49 752 73.5 776.5 c 128,-1,29
 98 801 98 801 132 801 c 1,15,-1
EndSplineSet
EndChar

StartChar: period
Encoding: 46 46 17
Width: 465
GlyphClass: 2
Flags: W
LayerCount: 2
Fore
SplineSet
132 0 m 1,0,-1
 132 0 l 1,1,2
 187 0 187 0 226 38.5 c 128,-1,3
 265 77 265 77 265 132 c 256,4,5
 265 187 265 187 226 226 c 128,-1,6
 187 265 187 265 132 265 c 256,7,8
 77 265 77 265 38.5 226 c 128,-1,9
 0 187 0 187 0 132 c 256,10,11
 0 77 0 77 38.5 38.5 c 128,-1,12
 77 0 77 0 132 0 c 1,0,-1
132 216 m 1,13,-1
 132 216 l 1,14,15
 167 216 167 216 191.5 191.5 c 128,-1,16
 216 167 216 167 216 132 c 256,17,18
 216 97 216 97 191.5 72.5 c 128,-1,19
 167 48 167 48 132 48 c 256,20,21
 97 48 97 48 72.5 72.5 c 128,-1,22
 48 97 48 97 48 132 c 256,23,24
 48 167 48 167 72.5 191.5 c 128,-1,25
 97 216 97 216 132 216 c 1,13,-1
EndSplineSet
EndChar

StartChar: slash
Encoding: 47 47 18
Width: 1402
GlyphClass: 2
Flags: W
LayerCount: 2
Fore
SplineSet
138 -2 m 1,0,-1
 138 -2 l 1,1,2
 199 -2 199 -2 242 49 c 2,3,-1
 1168 1222 l 2,4,5
 1202 1267 1202 1267 1196 1319.5 c 128,-1,6
 1190 1372 1190 1372 1146 1408 c 0,7,8
 1108 1437 1108 1437 1064 1437 c 0,9,10
 1002 1437 1002 1437 959 1386 c 2,11,-1
 34 214 l 2,12,13
 0 169 0 169 6 116 c 128,-1,14
 12 63 12 63 56 27 c 0,15,16
 93 -2 93 -2 138 -2 c 1,17,18
 138 -2 138 -2 138 -2 c 1,0,-1
1064 1389 m 1,19,-1
 1064 1389 l 1,20,21
 1092 1389 1092 1389 1116 1370 c 0,22,23
 1144 1347 1144 1347 1148 1313.5 c 128,-1,24
 1152 1280 1152 1280 1130 1252 c 2,25,-1
 204 79 l 2,26,27
 177 47 177 47 138 47 c 0,28,29
 109 47 109 47 86 65 c 0,30,31
 58 88 58 88 54 121.5 c 128,-1,32
 50 155 50 155 72 184 c 2,33,-1
 997 1356 l 2,34,35
 1025 1389 1025 1389 1064 1389 c 1,19,-1
EndSplineSet
EndChar

StartChar: zero
Encoding: 48 48 19
Width: 1180
GlyphClass: 2
Flags: W
LayerCount: 2
Fore
SplineSet
845 760 m 1,0,-1
 845 760 l 1,1,2
 900 760 900 760 939 799 c 128,-1,3
 978 838 978 838 978 893 c 2,4,-1
 978 1000 l 2,5,6
 978 1001 978 1001 978 1002 c 0,7,8
 978 1007 978 1007 978 1011 c 0,9,10
 980 1128 980 1128 924 1231 c 0,11,12
 923 1232 923 1232 922.5 1233 c 128,-1,13
 922 1234 922 1234 921 1234 c 2,14,-1
 914 1243 l 1,15,16
 881 1297 881 1297 834 1336 c 1,17,18
 738 1436 738 1436 571 1434 c 0,19,20
 555 1435 555 1435 539 1435 c 0,21,22
 536 1435 536 1435 534 1434 c 2,23,-1
 490 1434 l 1,24,-1
 447 1434 l 2,25,26
 444 1435 444 1435 441 1435 c 0,27,28
 426 1435 426 1435 409 1434 c 0,29,30
 243 1436 243 1436 147 1336 c 1,31,32
 99 1297 99 1297 66 1243 c 1,33,-1
 59 1234 l 2,34,35
 58 1233 58 1233 57 1231 c 0,36,37
 0 1128 0 1128 3 1011 c 0,38,39
 3 1007 3 1007 3 1002 c 0,40,41
 3 1001 3 1001 3 1000 c 2,42,-1
 3 901 l 2,43,44
 3 900 3 900 3 899 c 0,45,46
 3 896 3 896 3 893 c 0,47,48
 3 838 3 838 42 799 c 128,-1,49
 81 760 81 760 136 760 c 0,50,51
 186 760 186 760 223 792.5 c 128,-1,52
 260 825 260 825 268 876 c 0,53,54
 269 879 269 879 269 883 c 2,55,-1
 269 887 l 2,56,57
 269 890 269 890 269 893 c 256,58,59
 269 896 269 896 269 899 c 2,60,-1
 269 1009 l 2,61,62
 269 1072 269 1072 320.5 1119.5 c 128,-1,63
 372 1167 372 1167 441 1167 c 0,64,65
 469 1167 469 1167 542 1167 c 0,66,67
 613 1164 613 1164 662.5 1118 c 128,-1,68
 712 1072 712 1072 712 1009 c 2,69,-1
 712 900 l 2,70,71
 712 896 712 896 712 893 c 0,72,73
 712 838 712 838 751 799 c 128,-1,74
 790 760 790 760 845 760 c 1,0,-1
441 1215 m 1,75,-1
 441 1215 l 1,76,77
 351 1215 351 1215 285.5 1154 c 128,-1,78
 220 1093 220 1093 220 1009 c 2,79,-1
 220 899 l 2,80,81
 220 898 220 898 220 898 c 2,82,83
 220 895 220 895 220 893 c 256,84,85
 220 891 220 891 220 889 c 0,86,87
 220 888 220 888 220 888 c 1,88,-1
 220 887 l 2,89,90
 220 886 220 886 220 885 c 0,91,92
 216 852 216 852 192 830.5 c 128,-1,93
 168 809 168 809 136 809 c 0,94,95
 101 809 101 809 76 833.5 c 128,-1,96
 51 858 51 858 51 893 c 0,97,98
 51 896 51 896 51 899 c 0,99,100
 52 902 52 902 51 905 c 2,101,-1
 51 997 l 2,102,103
 51 999 51 999 51 1001 c 0,104,105
 51 1005 51 1005 51 1010 c 0,106,107
 51 1011 51 1011 51 1012 c 0,108,109
 49 1115 49 1115 98 1205 c 1,110,-1
 105 1214 l 2,111,112
 106 1215 106 1215 107 1216 c 0,113,114
 136 1264 136 1264 179 1300 c 0,115,116
 180 1300 180 1300 180 1301 c 0,117,118
 218 1340 218 1340 269.5 1362.5 c 128,-1,119
 321 1385 321 1385 410 1385 c 0,120,121
 411 1385 411 1385 411 1385 c 2,122,123
 423 1386 423 1386 435 1386 c 0,124,125
 439 1385 439 1385 442 1385 c 2,126,-1
 490 1385 l 1,127,-1
 538 1385 l 2,128,129
 539 1385 539 1385 539 1385 c 129,-1,130
 539 1385 539 1385 539 1385 c 1,131,132
 542 1385 542 1385 545 1386 c 0,133,134
 557 1386 557 1386 569 1385 c 0,135,136
 570 1385 570 1385 571 1385 c 0,137,138
 659 1385 659 1385 711 1362.5 c 128,-1,139
 763 1340 763 1340 800 1301 c 0,140,141
 801 1300 801 1300 802 1300 c 0,142,143
 844 1264 844 1264 874 1216 c 0,144,145
 875 1215 875 1215 876 1214 c 2,146,-1
 882 1205 l 1,147,148
 932 1115 932 1115 929 1012 c 0,149,150
 929 1011 929 1011 929 1010 c 0,151,152
 929 1005 929 1005 929 1001 c 0,153,154
 929 999 929 999 929 997 c 2,155,-1
 929 893 l 2,156,157
 929 858 929 858 904.5 833.5 c 128,-1,158
 880 809 880 809 845 809 c 256,159,160
 810 809 810 809 785 833.5 c 128,-1,161
 760 858 760 858 760 893 c 0,162,163
 760 895 760 895 761 898 c 2,164,165
 761 898 761 898 761 899 c 2,166,-1
 761 1009 l 2,167,168
 761 1091 761 1091 697.5 1151.5 c 128,-1,169
 634 1212 634 1212 542 1215 c 0,170,171
 469 1215 469 1215 441 1215 c 1,75,-1
539 1 m 1,172,-1
 539 1 l 1,173,174
 555 1 555 1 571 2 c 0,175,176
 738 -1 738 -1 834 99 c 1,177,178
 881 139 881 139 914 193 c 1,179,-1
 922 202 l 2,180,181
 923 203 923 203 924 205 c 0,182,183
 980 308 980 308 978 425 c 0,184,185
 978 429 978 429 978 433 c 0,186,187
 978 435 978 435 978 436 c 2,188,-1
 978 600 l 2,189,190
 978 601 978 601 978 602 c 0,191,192
 975 657 975 657 937 694 c 128,-1,193
 899 731 899 731 845 731 c 0,194,195
 790 731 790 731 751 692 c 128,-1,196
 712 653 712 653 712 598 c 0,197,198
 712 595 712 595 712 592 c 2,199,-1
 712 427 l 2,200,201
 712 364 712 364 662.5 318 c 128,-1,202
 613 272 613 272 542 269 c 0,203,204
 469 269 469 269 441 269 c 0,205,206
 372 269 372 269 320.5 316.5 c 128,-1,207
 269 364 269 364 269 427 c 2,208,-1
 269 592 l 2,209,210
 269 595 269 595 269 598 c 0,211,212
 269 653 269 653 230 692 c 128,-1,213
 191 731 191 731 136 731 c 0,214,215
 82 731 82 731 44 694 c 128,-1,216
 6 657 6 657 3 602 c 0,217,218
 3 601 3 601 3 600 c 2,219,-1
 3 599 l 2,220,221
 3 598 3 598 3 598 c 257,222,223
 3 598 3 598 3 598 c 1,224,-1
 3 436 l 2,225,226
 3 435 3 435 3 433 c 0,227,228
 3 429 3 429 3 425 c 0,229,230
 0 308 0 308 57 205 c 0,231,232
 57 204 57 204 58 203 c 128,-1,233
 59 202 59 202 59 201 c 2,234,-1
 66 193 l 1,235,236
 99 139 99 139 147 99 c 1,237,238
 243 -1 243 -1 409 2 c 0,239,240
 426 1 426 1 441 1 c 0,241,242
 444 1 444 1 447 2 c 2,243,-1
 490 2 l 1,244,-1
 534 2 l 2,245,246
 536 1 536 1 539 1 c 1,172,-1
539 50 m 1,247,-1
 539 50 l 1,248,249
 539 50 539 50 538 50 c 2,250,-1
 490 50 l 1,251,-1
 442 50 l 1,252,253
 442 50 442 50 441.5 50 c 128,-1,254
 441 50 441 50 441 50 c 2,255,256
 438 50 438 50 435 50 c 0,257,258
 423 50 423 50 411 50 c 2,259,260
 411 50 411 50 410 50 c 1,261,262
 410 50 410 50 410 50 c 1,263,264
 321 51 321 51 269.5 73 c 128,-1,265
 218 95 218 95 180 135 c 2,266,267
 180 135 180 135 179 136 c 0,268,269
 136 171 136 171 107 219 c 0,270,271
 106 221 106 221 105 222 c 2,272,-1
 98 230 l 1,273,274
 49 321 49 321 51 424 c 0,275,276
 51 425 51 425 51 426 c 0,277,278
 51 430 51 430 51 435 c 0,279,280
 51 437 51 437 51 439 c 2,281,-1
 51 598 l 1,282,283
 51 598 51 598 51 598 c 257,284,285
 51 598 51 598 51 598 c 1,286,-1
 51 599 l 1,287,288
 51 599 51 599 51 600 c 0,289,290
 53 635 53 635 77 659 c 128,-1,291
 101 683 101 683 136 683 c 256,292,293
 171 683 171 683 195.5 658 c 128,-1,294
 220 633 220 633 220 598 c 0,295,296
 220 596 220 596 220 594 c 0,297,298
 220 593 220 593 220 593 c 1,299,-1
 220 427 l 2,300,301
 220 343 220 343 285.5 281.5 c 128,-1,302
 351 220 351 220 441 220 c 0,303,304
 469 220 469 220 543 220 c 0,305,306
 634 224 634 224 697.5 284 c 128,-1,307
 761 344 761 344 761 427 c 2,308,-1
 761 593 l 1,309,310
 761 593 761 593 761 594 c 0,311,312
 760 596 760 596 760 598 c 0,313,314
 760 633 760 633 785 658 c 128,-1,315
 810 683 810 683 845 683 c 0,316,317
 879 683 879 683 903.5 659 c 128,-1,318
 928 635 928 635 929 600 c 0,319,320
 929 599 929 599 929 599 c 1,321,-1
 929 439 l 2,322,323
 929 437 929 437 929 435 c 0,324,325
 929 430 929 430 929 426 c 0,326,327
 929 425 929 425 929 424 c 0,328,329
 932 321 932 321 882 230 c 1,330,-1
 876 222 l 2,331,332
 875 221 875 221 874 219 c 0,333,334
 844 171 844 171 802 136 c 0,335,336
 801 135 801 135 800 135 c 0,337,338
 763 95 763 95 711 73 c 128,-1,339
 659 51 659 51 571 50 c 1,340,341
 571 50 571 50 571 50 c 1,342,343
 570 50 570 50 569 50 c 0,344,345
 557 50 557 50 545 50 c 0,346,347
 542 50 542 50 539 50 c 1,247,-1
EndSplineSet
EndChar

StartChar: one
Encoding: 49 49 20
Width: 726
GlyphClass: 2
Flags: W
LayerCount: 2
Fore
SplineSet
393 0 m 1,0,-1
 393 0 l 1,1,2
 448 0 448 0 487 39 c 128,-1,3
 526 78 526 78 526 133 c 2,4,-1
 526 1302 l 2,5,6
 526 1357 526 1357 487 1396 c 128,-1,7
 448 1435 448 1435 393 1435 c 2,8,9
 393 1435 393 1435 392.5 1435 c 128,-1,10
 392 1435 392 1435 392 1435 c 1,11,-1
 134 1435 l 2,12,13
 79 1435 79 1435 39.5 1395.5 c 128,-1,14
 0 1356 0 1356 0 1301 c 0,15,16
 0 1245 0 1245 39.5 1206 c 128,-1,17
 79 1167 79 1167 134 1167 c 2,18,-1
 260 1167 l 1,19,-1
 260 133 l 2,20,21
 260 78 260 78 299 39 c 128,-1,22
 338 0 338 0 393 0 c 1,0,-1
134 1386 m 1,23,-1
 134 1386 l 1,24,-1
 392 1386 l 1,25,-1
 392 1386 l 1,26,27
 393 1386 393 1386 393 1386 c 2,28,29
 429 1385 429 1385 453 1360.5 c 128,-1,30
 477 1336 477 1336 477 1302 c 2,31,-1
 477 133 l 2,32,33
 477 98 477 98 452.5 73 c 128,-1,34
 428 48 428 48 393 48 c 256,35,36
 358 48 358 48 333 73 c 128,-1,37
 308 98 308 98 308 133 c 2,38,-1
 308 1191 l 2,39,40
 308 1201 308 1201 301 1208.5 c 128,-1,41
 294 1216 294 1216 284 1216 c 2,42,-1
 134 1216 l 2,43,44
 99 1216 99 1216 74 1241 c 128,-1,45
 49 1266 49 1266 49 1301 c 256,46,47
 49 1336 49 1336 74 1361 c 128,-1,48
 99 1386 99 1386 134 1386 c 1,23,-1
EndSplineSet
EndChar

StartChar: two
Encoding: 50 50 21
Width: 1178
GlyphClass: 2
Flags: W
LayerCount: 2
Fore
SplineSet
134 3 m 1,0,-1
 134 3 l 1,1,2
 189 3 189 3 228 42 c 128,-1,3
 267 81 267 81 267 136 c 2,4,-1
 267 587 l 1,5,-1
 537 588 l 2,6,7
 738 588 738 588 861 712 c 1,8,9
 977 836 977 836 975 1012 c 1,10,11
 978 1130 978 1130 921 1232 c 0,12,13
 920 1234 920 1234 919 1236 c 2,14,-1
 912 1244 l 1,15,16
 879 1298 879 1298 831 1338 c 1,17,18
 735 1438 735 1438 569 1435 c 0,19,20
 553 1436 553 1436 537 1436 c 0,21,22
 534 1436 534 1436 531 1435 c 2,23,-1
 439 1436 l 2,24,25
 433 1436 433 1436 426 1435 c 2,26,-1
 241 1436 l 1,27,-1
 133 1436 l 2,28,29
 78 1436 78 1436 39 1397 c 128,-1,30
 0 1358 0 1358 0 1303 c 256,31,32
 0 1248 0 1248 40 1207.5 c 128,-1,33
 80 1167 80 1167 135 1167 c 2,34,-1
 257 1168 l 1,35,-1
 286 1168 l 2,36,37
 301 1168 301 1168 320 1168 c 0,38,39
 380 1168 380 1168 445.5 1168 c 128,-1,40
 511 1168 511 1168 537 1168 c 0,41,42
 603 1168 603 1168 648.5 1122.5 c 128,-1,43
 694 1077 694 1077 694 1010 c 0,44,45
 694 1007 694 1007 695 1004 c 0,46,47
 690 939 690 939 646 896.5 c 128,-1,48
 602 854 602 854 538 854 c 0,49,50
 511 854 511 854 441.5 854 c 128,-1,51
 372 854 372 854 312 854 c 0,52,53
 299 854 299 854 288 854 c 2,54,-1
 258 854 l 1,55,-1
 135 856 l 2,56,57
 80 856 80 856 37 811 c 0,58,59
 1 771 1 771 1 720 c 2,60,-1
 1 136 l 2,61,62
 1 81 1 81 40 42 c 128,-1,63
 79 3 79 3 134 3 c 1,0,-1
135 807 m 1,64,-1
 135 807 l 1,65,-1
 258 806 l 1,66,-1
 288 806 l 2,67,68
 303 806 303 806 321 806 c 0,69,70
 381 806 381 806 446.5 806 c 128,-1,71
 512 806 512 806 538 806 c 0,72,73
 623 806 623 806 681.5 864 c 128,-1,74
 740 922 740 922 743 1010 c 0,75,76
 744 1014 744 1014 742 1017 c 0,77,78
 738 1104 738 1104 680 1160.5 c 128,-1,79
 622 1217 622 1217 537 1217 c 0,80,81
 509 1217 509 1217 435.5 1217 c 128,-1,82
 362 1217 362 1217 301 1217 c 0,83,84
 293 1217 293 1217 286 1217 c 2,85,-1
 257 1217 l 1,86,-1
 134 1216 l 2,87,88
 100 1216 100 1216 74.5 1242 c 128,-1,89
 49 1268 49 1268 49 1303 c 256,90,91
 49 1338 49 1338 73.5 1363 c 128,-1,92
 98 1388 98 1388 133 1388 c 2,93,-1
 240 1388 l 1,94,-1
 427 1386 l 2,95,96
 429 1386 429 1386 430 1386 c 0,97,98
 435 1387 435 1387 439 1387 c 2,99,-1
 537 1387 l 1,100,101
 537 1387 537 1387 537 1387 c 1,102,103
 540 1387 540 1387 543 1388 c 0,104,105
 555 1388 555 1388 567 1387 c 2,106,107
 567 1387 567 1387 568 1387 c 0,108,109
 657 1386 657 1386 708.5 1364 c 128,-1,110
 760 1342 760 1342 798 1303 c 0,111,112
 798 1302 798 1302 799 1301 c 0,113,114
 842 1266 842 1266 871 1218 c 0,115,116
 872 1216 872 1216 873 1215 c 2,117,-1
 880 1207 l 1,118,119
 929 1116 929 1116 927 1013 c 0,120,121
 927 1012 927 1012 927 1012 c 2,122,123
 928 856 928 856 827 746 c 1,124,125
 720 637 720 637 537 637 c 2,126,-1
 242 635 l 2,127,128
 232 635 232 635 225 628 c 128,-1,129
 218 621 218 621 218 611 c 2,130,-1
 218 136 l 2,131,132
 218 101 218 101 193.5 76.5 c 128,-1,133
 169 52 169 52 134 52 c 256,134,135
 99 52 99 52 74.5 76.5 c 128,-1,136
 50 101 50 101 50 136 c 2,137,-1
 50 720 l 2,138,139
 50 753 50 753 72 778 c 0,140,141
 73 778 73 778 73 778 c 1,142,143
 101 807 101 807 135 807 c 1,64,-1
842 0 m 1,144,-1
 842 0 l 1,145,146
 897 0 897 0 936 39.5 c 128,-1,147
 975 79 975 79 975 134 c 256,148,149
 975 189 975 189 936 228.5 c 128,-1,150
 897 268 897 268 842 268 c 2,151,-1
 584 268 l 2,152,153
 528 268 528 268 489 228.5 c 128,-1,154
 450 189 450 189 450 134 c 256,155,156
 450 79 450 79 489 39.5 c 128,-1,157
 528 0 528 0 584 0 c 2,158,-1
 842 0 l 1,144,-1
584 219 m 1,159,-1
 584 219 l 1,160,-1
 842 219 l 2,161,162
 877 219 877 219 902 194 c 128,-1,163
 927 169 927 169 927 134 c 256,164,165
 927 99 927 99 902 74 c 128,-1,166
 877 49 877 49 842 49 c 2,167,-1
 584 49 l 2,168,169
 548 49 548 49 523 74 c 128,-1,170
 498 99 498 99 498 134 c 256,171,172
 498 169 498 169 523 194 c 128,-1,173
 548 219 548 219 584 219 c 1,159,-1
EndSplineSet
EndChar

StartChar: three
Encoding: 51 51 22
Width: 1184
GlyphClass: 2
Flags: W
LayerCount: 2
Fore
SplineSet
850 905 m 1,0,-1
 850 905 l 1,1,2
 903 905 903 905 944 944 c 0,3,4
 983 984 983 984 984 1039 c 2,5,-1
 984 1297 l 1,6,7
 984 1297 984 1297 984 1298 c 1,8,9
 984 1298 984 1298 984 1298 c 129,-1,10
 984 1298 984 1298 984 1298 c 1,11,12
 984 1353 984 1353 945 1392 c 128,-1,13
 906 1431 906 1431 852 1431 c 2,14,-1
 132 1431 l 2,15,16
 77 1431 77 1431 38.5 1392 c 128,-1,17
 0 1353 0 1353 0 1298 c 0,18,19
 0 1244 0 1244 38.5 1205 c 128,-1,20
 77 1166 77 1166 132 1166 c 2,21,-1
 716 1166 l 1,22,-1
 716 1039 l 2,23,24
 716 984 716 984 755.5 944.5 c 128,-1,25
 795 905 795 905 850 905 c 1,0,-1
132 1382 m 1,26,-1
 132 1382 l 1,27,-1
 852 1382 l 2,28,29
 886 1382 886 1382 910 1358 c 128,-1,30
 934 1334 934 1334 935 1299 c 0,31,32
 935 1298 935 1298 935 1298 c 129,-1,33
 935 1298 935 1298 935 1297 c 1,34,-1
 935 1297 l 1,35,-1
 935 1039 l 2,36,37
 935 1005 935 1005 910 979 c 0,38,39
 884 954 884 954 850 954 c 0,40,41
 815 954 815 954 790 979 c 128,-1,42
 765 1004 765 1004 765 1039 c 2,43,-1
 765 1191 l 2,44,45
 765 1201 765 1201 757.5 1208 c 128,-1,46
 750 1215 750 1215 740 1215 c 2,47,-1
 132 1215 l 2,48,49
 97 1215 97 1215 72.5 1239.5 c 128,-1,50
 48 1264 48 1264 48 1298 c 0,51,52
 48 1333 48 1333 72.5 1357.5 c 128,-1,53
 97 1382 97 1382 132 1382 c 1,26,-1
852 -1 m 1,54,-1
 852 -1 l 1,55,56
 906 -1 906 -1 945 38 c 128,-1,57
 984 77 984 77 984 132 c 2,58,59
 984 132 984 132 984 133 c 256,60,61
 984 134 984 134 984 135 c 2,62,-1
 984 716 l 2,63,64
 984 717 984 717 984 718 c 256,65,66
 984 719 984 719 984 720 c 0,67,68
 984 775 984 775 944.5 814.5 c 128,-1,69
 905 854 905 854 850 854 c 2,70,-1
 592 854 l 2,71,72
 537 854 537 854 497.5 814.5 c 128,-1,73
 458 775 458 775 458 720 c 256,74,75
 458 665 458 665 497.5 625.5 c 128,-1,76
 537 586 537 586 592 586 c 2,77,-1
 716 586 l 1,78,-1
 716 264 l 1,79,-1
 132 264 l 2,80,81
 77 264 77 264 38.5 225 c 128,-1,82
 0 186 0 186 0 132 c 0,83,84
 0 77 0 77 38.5 38 c 128,-1,85
 77 -1 77 -1 132 -1 c 2,86,-1
 852 -1 l 1,54,-1
132 215 m 1,87,-1
 132 215 l 1,88,-1
 740 215 l 2,89,90
 750 215 750 215 757 222 c 128,-1,91
 764 229 764 229 764 239 c 2,92,-1
 764 610 l 2,93,94
 764 621 764 621 757 628 c 128,-1,95
 750 635 750 635 740 635 c 2,96,-1
 592 635 l 2,97,98
 557 635 557 635 532 660 c 128,-1,99
 507 685 507 685 507 720 c 256,100,101
 507 755 507 755 532 780 c 128,-1,102
 557 805 557 805 592 805 c 2,103,-1
 850 805 l 2,104,105
 885 805 885 805 909.5 780.5 c 128,-1,106
 934 756 934 756 935 720 c 2,107,-1
 935 719 l 2,108,109
 935 718 935 718 935 718 c 1,110,-1
 935 716 l 1,111,-1
 935 135 l 1,112,-1
 935 134 l 2,113,114
 935 133 935 133 935 133 c 1,115,-1
 935 132 l 2,116,117
 935 97 935 97 910.5 72.5 c 128,-1,118
 886 48 886 48 852 48 c 2,119,-1
 132 48 l 2,120,121
 97 48 97 48 72.5 72.5 c 128,-1,122
 48 97 48 97 48 132 c 0,123,124
 48 166 48 166 72.5 190.5 c 128,-1,125
 97 215 97 215 132 215 c 1,87,-1
EndSplineSet
EndChar

StartChar: four
Encoding: 52 52 23
Width: 1175
GlyphClass: 2
Flags: W
LayerCount: 2
Fore
SplineSet
842 0 m 1,0,-1
 842 0 l 1,1,2
 897 0 897 0 936 39 c 128,-1,3
 975 78 975 78 975 133 c 2,4,-1
 975 1302 l 2,5,6
 975 1357 975 1357 936 1396 c 128,-1,7
 897 1435 897 1435 842 1435 c 256,8,9
 787 1435 787 1435 748 1396 c 128,-1,10
 709 1357 709 1357 709 1302 c 2,11,-1
 709 133 l 2,12,13
 709 78 709 78 748 39 c 128,-1,14
 787 0 787 0 842 0 c 1,0,-1
842 1386 m 1,15,-1
 842 1386 l 1,16,17
 877 1386 877 1386 901.5 1361.5 c 128,-1,18
 926 1337 926 1337 926 1302 c 2,19,-1
 926 133 l 2,20,21
 926 98 926 98 901.5 73 c 128,-1,22
 877 48 877 48 842 48 c 256,23,24
 807 48 807 48 782 73 c 128,-1,25
 757 98 757 98 757 133 c 2,26,-1
 757 1302 l 2,27,28
 757 1337 757 1337 782 1361.5 c 128,-1,29
 807 1386 807 1386 842 1386 c 1,15,-1
538 579 m 1,30,-1
 538 579 l 1,31,32
 594 579 594 579 633 618.5 c 128,-1,33
 672 658 672 658 672 713 c 0,34,35
 672 769 672 769 633 808.5 c 128,-1,36
 594 848 594 848 538 848 c 2,37,-1
 266 848 l 1,38,-1
 266 1302 l 2,39,40
 266 1357 266 1357 227 1396 c 128,-1,41
 188 1435 188 1435 133 1435 c 256,42,43
 78 1435 78 1435 39 1396 c 128,-1,44
 0 1357 0 1357 0 1302 c 2,45,-1
 0 720 l 2,46,47
 0 719 0 719 0 717 c 1,48,49
 0 717 0 717 0 717 c 1,50,51
 0 716 0 716 0 716 c 2,52,53
 0 715 0 715 0 713 c 0,54,55
 0 658 0 658 39 618.5 c 128,-1,56
 78 579 78 579 134 579 c 2,57,-1
 538 579 l 1,30,-1
133 1387 m 1,58,-1
 133 1387 l 1,59,60
 168 1387 168 1387 192.5 1362 c 128,-1,61
 217 1337 217 1337 217 1302 c 2,62,-1
 217 823 l 2,63,64
 217 813 217 813 224.5 806 c 128,-1,65
 232 799 232 799 242 799 c 2,66,-1
 538 799 l 2,67,68
 573 799 573 799 598.5 774 c 128,-1,69
 624 749 624 749 624 713 c 0,70,71
 624 678 624 678 598.5 653 c 128,-1,72
 573 628 573 628 538 628 c 2,73,-1
 134 628 l 2,74,75
 99 628 99 628 74 653 c 128,-1,76
 49 678 49 678 49 713 c 0,77,78
 49 714 49 714 49 715 c 2,79,-1
 49 716 l 2,80,81
 49 717 49 717 49 717 c 1,82,-1
 49 718 l 2,83,84
 49 719 49 719 49 720 c 2,85,-1
 49 1302 l 2,86,87
 49 1337 49 1337 73.5 1362 c 128,-1,88
 98 1387 98 1387 133 1387 c 1,58,-1
EndSplineSet
EndChar

StartChar: five
Encoding: 53 53 24
Width: 1178
GlyphClass: 2
Flags: W
LayerCount: 2
Fore
SplineSet
537 -3 m 1,0,-1
 537 -3 l 1,1,2
 553 -3 553 -3 569 -2 c 0,3,4
 735 -4 735 -4 831 96 c 1,5,6
 879 136 879 136 912 189 c 1,7,-1
 919 198 l 2,8,9
 920 200 920 200 921 201 c 0,10,11
 978 304 978 304 975 421 c 1,12,13
 977 597 977 597 861 722 c 1,14,15
 738 845 738 845 537 845 c 2,16,-1
 267 847 l 1,17,-1
 267 1298 l 2,18,19
 267 1353 267 1353 228 1391.5 c 128,-1,20
 189 1430 189 1430 134 1430 c 256,21,22
 79 1430 79 1430 40 1391.5 c 128,-1,23
 1 1353 1 1353 1 1298 c 2,24,-1
 1 713 l 2,25,26
 1 662 1 662 37 623 c 0,27,28
 80 578 80 578 136 578 c 2,29,-1
 258 579 l 1,30,-1
 288 579 l 2,31,32
 300 579 300 579 313 579 c 0,33,34
 373 579 373 579 442 579.5 c 128,-1,35
 511 580 511 580 538 580 c 0,36,37
 602 580 602 580 646 537 c 128,-1,38
 690 494 690 494 695 429 c 0,39,40
 694 426 694 426 694 423 c 0,41,42
 694 357 694 357 648.5 311 c 128,-1,43
 603 265 603 265 537 265 c 0,44,45
 507 265 507 265 426 265 c 128,-1,46
 345 265 345 265 286 265 c 2,47,-1
 257 265 l 1,48,-1
 134 267 l 2,49,50
 80 267 80 267 40 226.5 c 128,-1,51
 0 186 0 186 0 130 c 0,52,53
 0 75 0 75 39 36 c 128,-1,54
 78 -3 78 -3 133 -3 c 2,55,-1
 241 -2 l 1,56,-1
 426 -1 l 2,57,58
 433 -2 433 -2 439 -2 c 2,59,-1
 531 -2 l 2,60,61
 534 -3 534 -3 537 -3 c 1,0,-1
134 218 m 1,62,-1
 134 218 l 1,63,-1
 257 217 l 1,64,-1
 286 217 l 2,65,66
 345 217 345 217 426 217 c 128,-1,67
 507 217 507 217 537 217 c 0,68,69
 622 217 622 217 680 273.5 c 128,-1,70
 738 330 738 330 742 417 c 0,71,72
 743 420 743 420 743 424 c 0,73,74
 740 512 740 512 681.5 570 c 128,-1,75
 623 628 623 628 538 628 c 0,76,77
 510 628 510 628 439 628 c 128,-1,78
 368 628 368 628 308 628 c 0,79,80
 298 628 298 628 288 628 c 2,81,-1
 258 628 l 1,82,-1
 135 627 l 2,83,84
 100 627 100 627 73 655 c 0,85,86
 73 656 73 656 72 656 c 0,87,88
 49 681 49 681 49 713 c 2,89,-1
 49 1298 l 2,90,91
 49 1333 49 1333 74 1357.5 c 128,-1,92
 99 1382 99 1382 134 1382 c 256,93,94
 169 1382 169 1382 193.5 1357.5 c 128,-1,95
 218 1333 218 1333 218 1298 c 2,96,-1
 218 823 l 2,97,98
 218 813 218 813 225 806 c 128,-1,99
 232 799 232 799 242 799 c 2,100,-1
 537 797 l 2,101,102
 720 797 720 797 827 688 c 1,103,104
 928 578 928 578 927 422 c 0,105,106
 927 421 927 421 927 421 c 2,107,108
 929 317 929 317 880 227 c 1,109,-1
 873 218 l 2,110,111
 872 217 872 217 871 216 c 0,112,113
 842 168 842 168 799 133 c 0,114,115
 798 132 798 132 798 131 c 0,116,117
 760 92 760 92 708.5 69.5 c 128,-1,118
 657 47 657 47 568 47 c 0,119,120
 567 47 567 47 567 47 c 2,121,122
 554 46 554 46 543 46 c 0,123,124
 540 47 540 47 537 47 c 1,125,126
 537 47 537 47 537 47 c 1,127,-1
 439 47 l 2,128,129
 435 47 435 47 430 47 c 0,130,131
 429 47 429 47 427 47 c 2,132,-1
 241 46 l 1,133,-1
 133 46 l 2,134,135
 98 46 98 46 73.5 70.5 c 128,-1,136
 49 95 49 95 49 130 c 0,137,138
 49 166 49 166 74 192 c 128,-1,139
 99 218 99 218 134 218 c 1,62,-1
584 1166 m 1,140,-1
 584 1166 l 1,141,-1
 842 1166 l 2,142,143
 897 1166 897 1166 936 1205 c 128,-1,144
 975 1244 975 1244 975 1300 c 0,145,146
 975 1355 975 1355 936 1394 c 128,-1,147
 897 1433 897 1433 842 1433 c 2,148,-1
 584 1433 l 2,149,150
 528 1433 528 1433 489 1394 c 128,-1,151
 450 1355 450 1355 450 1300 c 0,152,153
 450 1244 450 1244 489 1205 c 128,-1,154
 528 1166 528 1166 584 1166 c 1,155,-1
 584 1166 l 1,140,-1
584 1385 m 1,156,-1
 584 1385 l 1,157,-1
 842 1385 l 2,158,159
 877 1385 877 1385 902 1360 c 128,-1,160
 927 1335 927 1335 927 1300 c 0,161,162
 927 1264 927 1264 902 1239 c 128,-1,163
 877 1214 877 1214 842 1214 c 2,164,-1
 584 1214 l 2,165,166
 548 1214 548 1214 523 1239 c 128,-1,167
 498 1264 498 1264 498 1300 c 0,168,169
 498 1335 498 1335 523 1360 c 128,-1,170
 548 1385 548 1385 584 1385 c 1,156,-1
EndSplineSet
EndChar

StartChar: six
Encoding: 54 54 25
Width: 1177
GlyphClass: 2
Flags: W
LayerCount: 2
Fore
SplineSet
133 -3 m 1,0,-1
 133 -3 l 1,1,2
 140 -3 140 -3 149 -2 c 2,3,-1
 240 -2 l 1,4,-1
 426 -1 l 2,5,6
 433 -1 433 -1 439 -1 c 2,7,-1
 530 -1 l 2,8,9
 533 -2 533 -2 537 -2 c 0,10,11
 552 -2 552 -2 568 -1 c 0,12,13
 735 -4 735 -4 831 96 c 1,14,15
 878 136 878 136 912 190 c 1,16,-1
 919 198 l 2,17,18
 920 200 920 200 921 202 c 0,19,20
 977 304 977 304 975 422 c 0,21,22
 976 598 976 598 861 722 c 1,23,24
 741 844 741 844 537 846 c 2,25,-1
 437 847 l 2,26,27
 432 848 432 848 428 848 c 0,28,29
 373 848 373 848 333.5 808.5 c 128,-1,30
 294 769 294 769 294 714 c 0,31,32
 294 658 294 658 333.5 618.5 c 128,-1,33
 373 579 373 579 428 579 c 0,34,35
 433 579 433 579 439 580 c 0,36,37
 467 580 467 580 484 580 c 0,38,39
 485 580 485 580 487 580 c 0,40,41
 503 580 503 580 538 580 c 0,42,43
 601 580 601 580 645.5 537.5 c 128,-1,44
 690 495 690 495 695 430 c 0,45,46
 694 427 694 427 694 424 c 0,47,48
 694 357 694 357 648.5 311.5 c 128,-1,49
 603 266 603 266 537 266 c 0,50,51
 506 266 506 266 425.5 266 c 128,-1,52
 345 266 345 266 286 266 c 2,53,-1
 266 266 l 1,54,-1
 267 714 l 2,55,56
 267 839 267 839 327.5 941 c 128,-1,57
 388 1043 388 1043 490.5 1104 c 128,-1,58
 593 1165 593 1165 717 1165 c 0,59,60
 730 1165 730 1165 753.5 1165 c 128,-1,61
 777 1165 777 1165 799 1164 c 0,62,63
 816 1164 816 1164 828.5 1164 c 128,-1,64
 841 1164 841 1164 846 1164 c 0,65,66
 849 1164 849 1164 852 1164 c 0,67,68
 905 1170 905 1170 940 1208 c 128,-1,69
 975 1246 975 1246 975 1298 c 0,70,71
 975 1353 975 1353 936.5 1391.5 c 128,-1,72
 898 1430 898 1430 841 1432 c 0,73,74
 835 1432 835 1432 811 1432 c 0,75,76
 789 1432 789 1432 762 1432 c 0,77,78
 737 1432 737 1432 717 1432 c 0,79,80
 575 1432 575 1432 445 1378.5 c 128,-1,81
 315 1325 315 1325 213 1225 c 0,82,83
 8 1017 8 1017 0 725 c 0,84,85
 0 724 0 724 0 723 c 2,86,-1
 0 130 l 2,87,88
 0 75 0 75 39 36 c 128,-1,89
 78 -3 78 -3 133 -3 c 1,0,-1
48 720 m 1,90,-1
 48 720 l 1,91,92
 48 721 48 721 48 722 c 0,93,94
 53 907 53 907 143 1056 c 128,-1,95
 233 1205 233 1205 384 1294 c 128,-1,96
 535 1383 535 1383 717 1383 c 0,97,98
 735 1383 735 1383 759 1384 c 0,99,100
 761 1384 761 1384 762 1384 c 0,101,102
 790 1384 790 1384 811 1384 c 0,103,104
 834 1384 834 1384 840 1383 c 2,105,106
 840 1383 840 1383 841 1383 c 1,107,108
 841 1383 841 1383 841 1383 c 1,109,110
 876 1383 876 1383 901.5 1358 c 128,-1,111
 927 1333 927 1333 927 1298 c 0,112,113
 927 1265 927 1265 904.5 1240.5 c 128,-1,114
 882 1216 882 1216 847 1213 c 0,115,116
 846 1213 846 1213 845 1212 c 0,117,118
 833 1212 833 1212 800 1213 c 0,119,120
 799 1213 799 1213 797 1213 c 0,121,122
 775 1213 775 1213 752 1213.5 c 128,-1,123
 729 1214 729 1214 717 1214 c 0,124,125
 580 1214 580 1214 466.5 1146.5 c 128,-1,126
 353 1079 353 1079 285.5 965.5 c 128,-1,127
 218 852 218 852 218 714 c 2,128,-1
 217 242 l 2,129,130
 218 232 218 232 224.5 225 c 128,-1,131
 231 218 231 218 241 218 c 2,132,-1
 286 217 l 2,133,134
 345 217 345 217 425.5 217 c 128,-1,135
 506 217 506 217 537 217 c 0,136,137
 621 217 621 217 679.5 274 c 128,-1,138
 738 331 738 331 742 417 c 0,139,140
 743 420 743 420 743 424 c 0,141,142
 740 512 740 512 681.5 570 c 128,-1,143
 623 628 623 628 538 628 c 0,144,145
 503 628 503 628 486 628 c 0,146,147
 485 628 485 628 484 628 c 0,148,149
 467 628 467 628 438 628 c 0,150,151
 437 628 437 628 436 628 c 0,152,153
 432 628 432 628 428 628 c 0,154,155
 393 628 393 628 367.5 653 c 128,-1,156
 342 678 342 678 342 714 c 0,157,158
 342 749 342 749 367.5 774 c 128,-1,159
 393 799 393 799 428 799 c 0,160,161
 431 799 431 799 434 799 c 0,162,163
 435 799 435 799 435 799 c 1,164,-1
 537 797 l 2,165,166
 720 797 720 797 826 688 c 0,167,168
 928 578 928 578 926 422 c 2,169,170
 926 422 926 422 926 421 c 0,171,172
 929 318 929 318 880 227 c 1,173,-1
 873 219 l 2,174,175
 872 218 872 218 871 216 c 0,176,177
 842 168 842 168 799 133 c 0,178,179
 798 132 798 132 797 132 c 0,180,181
 760 92 760 92 708.5 70 c 128,-1,182
 657 48 657 48 568 47 c 0,183,184
 567 47 567 47 567 47 c 2,185,186
 554 47 554 47 543 46 c 0,187,188
 540 47 540 47 536 47 c 2,189,-1
 439 47 l 2,190,191
 435 47 435 47 430 48 c 0,192,193
 429 48 429 48 427 48 c 1,194,195
 427 48 427 48 427 48 c 1,196,-1
 240 46 l 1,197,-1
 147 46 l 2,198,199
 145 46 145 46 144 46 c 0,200,201
 138 45 138 45 133 45 c 0,202,203
 98 45 98 45 73 70 c 128,-1,204
 48 95 48 95 48 130 c 2,205,-1
 48 720 l 1,90,-1
EndSplineSet
EndChar

StartChar: seven
Encoding: 55 55 26
Width: 1184
GlyphClass: 2
Flags: W
LayerCount: 2
Fore
SplineSet
851 -3 m 1,0,-1
 851 -3 l 1,1,2
 901 -3 901 -3 938.5 30 c 128,-1,3
 976 63 976 63 983 113 c 0,4,5
 984 117 984 117 984 120 c 2,6,-1
 984 1299 l 2,7,8
 984 1354 984 1354 945 1393 c 128,-1,9
 906 1432 906 1432 851 1432 c 0,10,11
 844 1432 844 1432 837 1431 c 2,12,-1
 133 1431 l 2,13,14
 78 1431 78 1431 39 1392 c 128,-1,15
 0 1353 0 1353 0 1298 c 256,16,17
 0 1243 0 1243 39 1204.5 c 128,-1,18
 78 1166 78 1166 133 1166 c 2,19,-1
 718 1166 l 1,20,-1
 718 120 l 2,21,22
 718 117 718 117 719 114 c 0,23,24
 727 63 727 63 764 30 c 128,-1,25
 801 -3 801 -3 851 -3 c 1,0,-1
767 125 m 1,26,-1
 767 125 l 1,27,-1
 767 1190 l 2,28,29
 767 1200 767 1200 760 1207 c 128,-1,30
 753 1214 753 1214 743 1214 c 2,31,-1
 133 1214 l 2,32,33
 98 1214 98 1214 73.5 1238.5 c 128,-1,34
 49 1263 49 1263 49 1298 c 256,35,36
 49 1333 49 1333 73.5 1357.5 c 128,-1,37
 98 1382 98 1382 133 1382 c 2,38,-1
 839 1382 l 2,39,40
 840 1382 840 1382 841 1382 c 0,41,42
 847 1383 847 1383 851 1383 c 0,43,44
 886 1383 886 1383 911 1358.5 c 128,-1,45
 936 1334 936 1334 936 1299 c 2,46,-1
 936 125 l 2,47,48
 935 124 935 124 935 122 c 0,49,50
 932 89 932 89 908 67 c 128,-1,51
 884 45 884 45 851 45 c 0,52,53
 819 45 819 45 795 67 c 128,-1,54
 771 89 771 89 767 122 c 0,55,56
 767 124 767 124 767 125 c 1,26,-1
EndSplineSet
EndChar

StartChar: eight
Encoding: 56 56 27
Width: 1185
GlyphClass: 2
Flags: W
LayerCount: 2
Fore
SplineSet
441 592 m 1,0,-1
 441 592 l 1,1,2
 444 592 444 592 447 592 c 2,3,-1
 538 592 l 2,4,5
 542 592 542 592 545 592 c 0,6,7
 560 592 560 592 576 593 c 0,8,9
 743 591 743 591 839 691 c 1,10,11
 886 731 886 731 920 784 c 1,12,-1
 927 793 l 2,13,14
 928 795 928 795 929 796 c 0,15,16
 985 899 985 899 983 1016 c 0,17,18
 985 1133 985 1133 929 1236 c 0,19,20
 928 1238 928 1238 927 1239 c 2,21,-1
 920 1248 l 1,22,23
 886 1302 886 1302 839 1341 c 1,24,25
 743 1442 743 1442 576 1439 c 0,26,27
 560 1440 560 1440 545 1440 c 0,28,29
 542 1440 542 1440 538 1440 c 2,30,-1
 447 1440 l 2,31,32
 444 1441 444 1441 441 1441 c 0,33,34
 425 1441 425 1441 409 1440 c 0,35,36
 243 1442 243 1442 147 1342 c 1,37,38
 99 1303 99 1303 66 1249 c 1,39,-1
 59 1240 l 2,40,41
 58 1239 58 1239 57 1237 c 0,42,43
 0 1134 0 1134 3 1017 c 2,44,45
 3 1017 3 1017 3 1016.5 c 128,-1,46
 3 1016 3 1016 3 1016 c 2,47,48
 0 898 0 898 57 796 c 0,49,50
 58 794 58 794 59 792 c 2,51,-1
 66 783 l 1,52,53
 99 730 99 730 147 690 c 1,54,55
 243 590 243 590 409 592 c 0,56,57
 425 592 425 592 441 592 c 1,0,-1
98 821 m 1,58,-1
 98 821 l 1,59,60
 49 912 49 912 51 1015 c 1,61,62
 51 1015 51 1015 51 1015 c 257,63,64
 51 1015 51 1015 51 1015.5 c 128,-1,65
 51 1016 51 1016 51 1016 c 257,66,67
 51 1016 51 1016 51 1016 c 1,68,69
 51 1017 51 1017 51 1018 c 0,70,71
 49 1121 49 1121 98 1211 c 1,72,-1
 105 1220 l 2,73,74
 106 1221 106 1221 107 1222 c 0,75,76
 136 1270 136 1270 178 1306 c 0,77,78
 179 1306 179 1306 180 1307 c 0,79,80
 217 1346 217 1346 269 1368.5 c 128,-1,81
 321 1391 321 1391 410 1391 c 1,82,83
 410 1391 410 1391 411 1392 c 0,84,85
 423 1392 423 1392 435 1392 c 0,86,87
 438 1392 438 1392 441 1392 c 1,88,89
 441 1392 441 1392 441 1392 c 1,90,-1
 538 1392 l 2,91,92
 541 1392 541 1392 543 1391 c 0,93,94
 544 1391 544 1391 545 1391 c 0,95,96
 560 1391 560 1391 575 1391 c 2,97,98
 575 1391 575 1391 576 1391 c 0,99,100
 665 1390 665 1390 716.5 1367.5 c 128,-1,101
 768 1345 768 1345 805 1306 c 0,102,103
 806 1305 806 1305 807 1305 c 0,104,105
 850 1270 850 1270 879 1222 c 0,106,107
 880 1220 880 1220 881 1219 c 2,108,-1
 888 1211 l 1,109,110
 937 1120 937 1120 934 1017 c 0,111,112
 934 1016 934 1016 934 1015 c 0,113,114
 937 912 937 912 888 822 c 1,115,-1
 881 813 l 2,116,117
 880 812 880 812 879 811 c 0,118,119
 850 763 850 763 807 728 c 0,120,121
 806 727 806 727 805 726 c 0,122,123
 768 687 768 687 716.5 664.5 c 128,-1,124
 665 642 665 642 576 642 c 0,125,126
 575 642 575 642 575 642 c 2,127,128
 560 641 560 641 545 641 c 0,129,130
 544 641 544 641 543 641 c 0,131,132
 541 641 541 641 538 641 c 2,133,-1
 441 641 l 2,134,135
 438 641 438 641 435 640 c 0,136,137
 423 640 423 640 411 641 c 0,138,139
 410 641 410 641 410 641 c 2,140,141
 321 642 321 642 269 664 c 128,-1,142
 217 686 217 686 180 725 c 0,143,144
 179 726 179 726 178 727 c 0,145,146
 136 762 136 762 107 810 c 0,147,148
 106 811 106 811 105 813 c 2,149,-1
 98 821 l 1,58,-1
545 812 m 1,150,-1
 545 812 l 1,151,152
 630 812 630 812 688.5 870 c 128,-1,153
 747 928 747 928 750 1016 c 2,154,155
 750 1016 750 1016 750 1017 c 0,156,157
 747 1104 747 1104 688.5 1162.5 c 128,-1,158
 630 1221 630 1221 545 1221 c 0,159,160
 528 1221 528 1221 494.5 1221 c 128,-1,161
 461 1221 461 1221 421 1221 c 0,162,163
 420 1221 420 1221 419 1220 c 0,164,165
 339 1211 339 1211 288 1154.5 c 128,-1,166
 237 1098 237 1098 235 1016 c 0,167,168
 237 935 237 935 288 878.5 c 128,-1,169
 339 822 339 822 419 812 c 0,170,171
 420 812 420 812 421 812 c 0,172,173
 461 812 461 812 494.5 812 c 128,-1,174
 528 812 528 812 545 812 c 1,150,-1
423 860 m 1,175,-1
 423 860 l 1,176,177
 362 868 362 868 323.5 910.5 c 128,-1,178
 285 953 285 953 284 1016 c 0,179,180
 285 1079 285 1079 323.5 1121.5 c 128,-1,181
 362 1164 362 1164 423 1172 c 1,182,183
 513 1172 513 1172 545 1172 c 0,184,185
 610 1172 610 1172 654.5 1127.5 c 128,-1,186
 699 1083 699 1083 702 1016 c 1,187,188
 699 949 699 949 654.5 904.5 c 128,-1,189
 610 860 610 860 545 860 c 0,190,191
 513 860 513 860 423 860 c 1,175,-1
441 -1 m 1,192,-1
 441 -1 l 1,193,194
 444 -1 444 -1 447 0 c 2,195,-1
 538 0 l 2,196,197
 542 0 542 0 545 0 c 0,198,199
 560 0 560 0 576 1 c 0,200,201
 743 -1 743 -1 839 99 c 1,202,203
 886 139 886 139 920 192 c 1,204,-1
 927 201 l 2,205,206
 928 203 928 203 929 204 c 0,207,208
 984 305 984 305 983 420 c 0,209,210
 983 422 983 422 983 425 c 0,211,212
 983 483 983 483 942 524 c 128,-1,213
 901 565 901 565 842 565 c 0,214,215
 785 565 785 565 744.5 525 c 128,-1,216
 704 485 704 485 702 426 c 0,217,218
 702 425 702 425 702 424 c 0,219,220
 699 357 699 357 654.5 312.5 c 128,-1,221
 610 268 610 268 545 268 c 0,222,223
 513 268 513 268 423 268 c 1,224,225
 362 276 362 276 323.5 318.5 c 128,-1,226
 285 361 285 361 284 424 c 0,227,228
 284 425 284 425 284 426 c 0,229,230
 282 485 282 485 241.5 525 c 128,-1,231
 201 565 201 565 143 565 c 256,232,233
 85 565 85 565 43.5 524 c 128,-1,234
 2 483 2 483 2 425 c 0,235,236
 2 422 2 422 2 419 c 0,237,238
 1 304 1 304 57 203 c 0,239,240
 58 202 58 202 59 200 c 2,241,-1
 66 191 l 1,242,243
 99 138 99 138 147 98 c 1,244,245
 243 -2 243 -2 409 0 c 0,246,247
 425 -1 425 -1 441 -1 c 1,192,-1
98 229 m 1,248,-1
 98 229 l 1,249,250
 50 318 50 318 51 419 c 0,251,252
 51 420 51 420 51 421 c 0,253,254
 51 423 51 423 51 425 c 0,255,256
 51 463 51 463 78 490 c 128,-1,257
 105 517 105 517 143 517 c 256,258,259
 181 517 181 517 207.5 490.5 c 128,-1,260
 234 464 234 464 235 425 c 2,261,262
 235 425 235 425 235 424.5 c 128,-1,263
 235 424 235 424 235 424 c 2,264,265
 235 423 235 423 235 422 c 0,266,267
 238 341 238 341 289 285 c 128,-1,268
 340 229 340 229 419 220 c 0,269,270
 420 220 420 220 421 220 c 0,271,272
 431 220 431 220 441 220 c 0,273,274
 516 220 516 220 545 220 c 0,275,276
 629 220 629 220 687.5 277 c 128,-1,277
 746 334 746 334 750 421 c 0,278,279
 750 423 750 423 750 424 c 256,280,281
 750 425 750 425 750 425 c 2,282,283
 751 464 751 464 777.5 490.5 c 128,-1,284
 804 517 804 517 842 517 c 0,285,286
 881 517 881 517 908 490 c 128,-1,287
 935 463 935 463 935 425 c 0,288,289
 935 423 935 423 934 421 c 0,290,291
 934 420 934 420 934 420 c 2,292,293
 936 318 936 318 888 230 c 1,294,-1
 881 221 l 2,295,296
 880 220 880 220 879 219 c 0,297,298
 850 171 850 171 807 136 c 0,299,300
 806 135 806 135 805 134 c 0,301,302
 768 95 768 95 716.5 72.5 c 128,-1,303
 665 50 665 50 576 50 c 0,304,305
 575 50 575 50 575 50 c 2,306,307
 560 49 560 49 545 49 c 0,308,309
 544 49 544 49 543 49 c 0,310,311
 541 49 541 49 538 49 c 2,312,-1
 441 49 l 2,313,314
 438 49 438 49 435 48 c 0,315,316
 423 48 423 48 411 49 c 0,317,318
 410 49 410 49 410 49 c 2,319,320
 321 49 321 49 269 71.5 c 128,-1,321
 217 94 217 94 180 133 c 0,322,323
 179 134 179 134 178 135 c 0,324,325
 136 170 136 170 107 218 c 0,326,327
 106 219 106 219 105 221 c 2,328,-1
 98 229 l 1,248,-1
EndSplineSet
EndChar

StartChar: nine
Encoding: 57 57 28
Width: 1178
GlyphClass: 2
Flags: W
LayerCount: 2
Fore
SplineSet
167 0 m 1,0,-1
 167 0 l 1,1,2
 186 0 186 0 211 0 c 0,3,4
 213 0 213 0 215 0 c 0,5,6
 216 0 216 0 217 0 c 0,7,8
 241 0 241 0 260 0 c 0,9,10
 403 0 403 0 532.5 53.5 c 128,-1,11
 662 107 662 107 765 207 c 0,12,13
 970 415 970 415 978 707 c 0,14,15
 978 708 978 708 978 709 c 2,16,-1
 978 1302 l 2,17,18
 978 1357 978 1357 939 1396 c 128,-1,19
 900 1435 900 1435 845 1435 c 0,20,21
 837 1435 837 1435 829 1434 c 2,22,-1
 737 1434 l 1,23,-1
 552 1433 l 2,24,25
 545 1433 545 1433 538 1433 c 2,26,-1
 447 1433 l 2,27,28
 444 1434 444 1434 441 1434 c 0,29,30
 425 1434 425 1434 409 1433 c 0,31,32
 243 1436 243 1436 147 1336 c 1,33,34
 99 1296 99 1296 66 1242 c 1,35,-1
 59 1233 l 2,36,37
 58 1232 58 1232 57 1230 c 0,38,39
 0 1127 0 1127 3 1010 c 1,40,41
 1 834 1 834 116 710 c 1,42,43
 240 586 240 586 440 586 c 2,44,-1
 540 584 l 2,45,46
 545 584 545 584 549 584 c 0,47,48
 605 584 605 584 644.5 623.5 c 128,-1,49
 684 663 684 663 684 718 c 0,50,51
 684 774 684 774 644.5 813.5 c 128,-1,52
 605 853 605 853 549 853 c 0,53,54
 544 853 544 853 539 852 c 0,55,56
 510 852 510 852 493 852 c 0,57,58
 482 852 482 852 470 852 c 128,-1,59
 458 852 458 852 440 852 c 0,60,61
 376 852 376 852 331.5 894.5 c 128,-1,62
 287 937 287 937 283 1002 c 0,63,64
 284 1005 284 1005 284 1008 c 0,65,66
 284 1075 284 1075 329.5 1120.5 c 128,-1,67
 375 1166 375 1166 441 1166 c 0,68,69
 471 1166 471 1166 551.5 1166 c 128,-1,70
 632 1166 632 1166 692 1166 c 2,71,-1
 712 1166 l 1,72,-1
 711 718 l 2,73,74
 711 593 711 593 650 491 c 128,-1,75
 589 389 589 389 486.5 328 c 128,-1,76
 384 267 384 267 260 267 c 0,77,78
 249 267 249 267 228.5 267 c 128,-1,79
 208 267 208 267 187 268 c 0,80,81
 182 268 182 268 178 268 c 0,82,83
 162 268 162 268 149 268 c 128,-1,84
 136 268 136 268 132 268 c 256,85,86
 128 268 128 268 125 268 c 0,87,88
 72 262 72 262 37 224 c 128,-1,89
 2 186 2 186 2 134 c 0,90,91
 2 79 2 79 40.5 40 c 128,-1,92
 79 1 79 1 136 0 c 0,93,94
 143 0 143 0 167 0 c 1,0,-1
133 220 m 1,95,-1
 133 220 l 1,96,97
 145 220 145 220 177 219 c 0,98,99
 179 219 179 219 181 219 c 0,100,101
 203 219 203 219 225.5 218.5 c 128,-1,102
 248 218 248 218 260 218 c 0,103,104
 398 218 398 218 511 285.5 c 128,-1,105
 624 353 624 353 691.5 466.5 c 128,-1,106
 759 580 759 580 759 718 c 2,107,-1
 760 1190 l 2,108,109
 760 1200 760 1200 753 1207 c 128,-1,110
 746 1214 746 1214 736 1214 c 2,111,-1
 692 1215 l 2,112,113
 679 1215 679 1215 664 1215 c 0,114,115
 604 1215 604 1215 536 1215 c 128,-1,116
 468 1215 468 1215 441 1215 c 0,117,118
 356 1215 356 1215 298 1158 c 128,-1,119
 240 1101 240 1101 235 1015 c 0,120,121
 234 1011 234 1011 234 1008 c 0,122,123
 237 920 237 920 295.5 861.5 c 128,-1,124
 354 803 354 803 440 803 c 0,125,126
 458 803 458 803 470 803 c 128,-1,127
 482 803 482 803 494 804 c 0,128,129
 495 804 495 804 497 804 c 0,130,131
 513 804 513 804 540 804 c 0,132,133
 541 804 541 804 542 804 c 0,134,135
 546 804 546 804 549 804 c 0,136,137
 585 804 585 804 610 779 c 128,-1,138
 635 754 635 754 635 718 c 0,139,140
 635 683 635 683 610 658 c 128,-1,141
 585 633 585 633 549 633 c 0,142,143
 546 633 546 633 543 633 c 2,144,145
 543 633 543 633 542 633 c 2,146,-1
 441 635 l 2,147,148
 257 635 257 635 151 744 c 0,149,150
 49 853 49 853 51 1009 c 0,151,152
 51 1010 51 1010 51 1011 c 0,153,154
 49 1114 49 1114 98 1205 c 1,155,-1
 105 1213 l 2,156,157
 106 1214 106 1214 106 1216 c 0,158,159
 136 1264 136 1264 178 1299 c 0,160,161
 179 1300 179 1300 180 1300 c 0,162,163
 217 1340 217 1340 269 1362 c 128,-1,164
 321 1384 321 1384 410 1385 c 2,165,166
 410 1385 410 1385 411 1385 c 0,167,168
 423 1385 423 1385 435 1385 c 0,169,170
 438 1385 438 1385 441 1385 c 1,171,172
 441 1385 441 1385 441 1385 c 1,173,-1
 538 1385 l 2,174,175
 543 1385 543 1385 548 1384 c 0,176,177
 549 1384 549 1384 551 1384 c 2,178,-1
 737 1385 l 1,179,-1
 830 1385 l 2,180,181
 832 1385 832 1385 834 1386 c 0,182,183
 839 1386 839 1386 845 1386 c 0,184,185
 880 1386 880 1386 904.5 1361.5 c 128,-1,186
 929 1337 929 1337 929 1302 c 2,187,-1
 929 712 l 2,188,189
 929 711 929 711 929 710 c 0,190,191
 925 525 925 525 835 376 c 128,-1,192
 745 227 745 227 593.5 137.5 c 128,-1,193
 442 48 442 48 260 48 c 0,194,195
 243 48 243 48 220 48 c 0,196,197
 218 48 218 48 215 48 c 0,198,199
 211 48 211 48 207 48 c 0,200,201
 184 48 184 48 167 48 c 0,202,203
 143 48 143 48 137 48 c 2,204,205
 137 48 137 48 136 48 c 0,206,207
 101 48 101 48 76 73.5 c 128,-1,208
 51 99 51 99 51 134 c 0,209,210
 51 167 51 167 73.5 191.5 c 128,-1,211
 96 216 96 216 130 219 c 0,212,213
 131 219 131 219 133 220 c 1,95,-1
EndSplineSet
EndChar

StartChar: colon
Encoding: 58 58 29
Width: 465
GlyphClass: 2
Flags: W
LayerCount: 2
Fore
SplineSet
132 363 m 1,0,-1
 132 363 l 1,1,2
 187 363 187 363 226 402 c 128,-1,3
 265 441 265 441 265 496 c 256,4,5
 265 551 265 551 226 590 c 128,-1,6
 187 629 187 629 132 629 c 256,7,8
 77 629 77 629 38.5 590 c 128,-1,9
 0 551 0 551 0 496 c 256,10,11
 0 441 0 441 38.5 402 c 128,-1,12
 77 363 77 363 132 363 c 1,0,-1
132 580 m 1,13,-1
 132 580 l 1,14,15
 167 580 167 580 191.5 555.5 c 128,-1,16
 216 531 216 531 216 496 c 256,17,18
 216 461 216 461 191.5 436.5 c 128,-1,19
 167 412 167 412 132 412 c 0,20,21
 98 412 98 412 73 436.5 c 128,-1,22
 48 461 48 461 48 496 c 256,23,24
 48 531 48 531 73 555.5 c 128,-1,25
 98 580 98 580 132 580 c 1,13,-1
132 807 m 1,26,-1
 132 807 l 1,27,28
 187 807 187 807 226 846 c 128,-1,29
 265 885 265 885 265 940 c 256,30,31
 265 995 265 995 226 1034 c 128,-1,32
 187 1073 187 1073 132 1073 c 256,33,34
 77 1073 77 1073 38.5 1034 c 128,-1,35
 0 995 0 995 0 940 c 256,36,37
 0 885 0 885 38.5 846 c 128,-1,38
 77 807 77 807 132 807 c 1,26,-1
132 1024 m 1,39,-1
 132 1024 l 1,40,41
 167 1024 167 1024 191.5 999.5 c 128,-1,42
 216 975 216 975 216 940 c 256,43,44
 216 905 216 905 191.5 880.5 c 128,-1,45
 167 856 167 856 132 856 c 0,46,47
 98 856 98 856 73 880.5 c 128,-1,48
 48 905 48 905 48 940 c 256,49,50
 48 975 48 975 73 999.5 c 128,-1,51
 98 1024 98 1024 132 1024 c 1,39,-1
EndSplineSet
EndChar

StartChar: semicolon
Encoding: 59 59 30
AltUni2: 00037e.ffffffff.0
Width: 468
GlyphClass: 2
Flags: W
LayerCount: 2
Fore
SplineSet
134 808 m 1,0,-1
 134 808 l 1,1,2
 189 808 189 808 227.5 847 c 128,-1,3
 266 886 266 886 266 940 c 0,4,5
 266 995 266 995 227.5 1034 c 128,-1,6
 189 1073 189 1073 134 1073 c 256,7,8
 79 1073 79 1073 40 1034 c 128,-1,9
 1 995 1 995 1 940 c 0,10,11
 1 886 1 886 40 847 c 128,-1,12
 79 808 79 808 134 808 c 1,0,-1
134 1026 m 1,13,-1
 134 1026 l 1,14,15
 169 1026 169 1026 193.5 1001.5 c 128,-1,16
 218 977 218 977 218 942 c 256,17,18
 218 907 218 907 193.5 882.5 c 128,-1,19
 169 858 169 858 134 858 c 256,20,21
 99 858 99 858 74.5 882.5 c 128,-1,22
 50 907 50 907 50 942 c 256,23,24
 50 977 50 977 74.5 1001.5 c 128,-1,25
 99 1026 99 1026 134 1026 c 1,13,-1
134 104 m 1,26,-1
 134 104 l 1,27,28
 187 104 187 104 228 143 c 0,29,30
 267 182 267 182 268 238 c 2,31,-1
 268 495 l 2,32,33
 268 549 268 549 231.5 587 c 128,-1,34
 195 625 195 625 141 629 c 0,35,36
 134 629 134 629 127 629 c 0,37,38
 72 625 72 625 36 587 c 128,-1,39
 0 549 0 549 0 495 c 2,40,-1
 0 238 l 2,41,42
 0 182 0 182 39 143 c 128,-1,43
 78 104 78 104 134 104 c 1,26,-1
134 582 m 1,44,-1
 134 582 l 1,45,46
 136 582 136 582 138 582 c 0,47,48
 173 580 173 580 196 555.5 c 128,-1,49
 219 531 219 531 219 497 c 2,50,-1
 219 239 l 2,51,52
 219 204 219 204 194 179 c 0,53,54
 168 154 168 154 134 154 c 0,55,56
 99 154 99 154 74 179 c 128,-1,57
 49 204 49 204 49 239 c 2,58,-1
 49 497 l 2,59,60
 49 531 49 531 72 555.5 c 128,-1,61
 95 580 95 580 129 582 c 0,62,63
 132 582 132 582 134 582 c 1,44,-1
EndSplineSet
EndChar

StartChar: less
Encoding: 60 60 31
Width: 1056
GlyphClass: 2
Flags: W
LayerCount: 2
Fore
SplineSet
718 124 m 1,0,-1
 718 124 l 1,1,2
 780 124 780 124 822 174 c 0,3,4
 856 218 856 218 850 272 c 0,5,6
 843 327 843 327 800 361 c 2,7,-1
 346 720 l 1,8,-1
 800 1078 l 2,9,10
 843 1113 843 1113 850 1167 c 0,11,12
 856 1221 856 1221 822 1265 c 0,13,14
 780 1316 780 1316 718 1316 c 0,15,16
 673 1316 673 1316 636 1287 c 2,17,-1
 57 830 l 2,18,19
 0 786 0 786 0 720 c 0,20,21
 0 667 0 667 37 626 c 0,22,23
 39 623 39 623 42 621 c 2,24,-1
 45 619 l 2,25,26
 51 613 51 613 57 609 c 2,27,-1
 636 152 l 2,28,29
 672 124 672 124 718 124 c 1,30,31
 718 124 718 124 718 124 c 1,0,-1
75 657 m 1,32,-1
 75 657 l 1,33,34
 75 657 75 657 74 658 c 0,35,36
 48 685 48 685 48 720 c 0,37,38
 48 762 48 762 86 791 c 1,39,40
 86 791 86 791 87 792 c 2,41,-1
 666 1249 l 2,42,43
 689 1267 689 1267 718 1267 c 0,44,45
 757 1267 757 1267 784 1235 c 0,46,47
 806 1207 806 1207 802 1173 c 0,48,49
 798 1138 798 1138 770 1116 c 2,50,-1
 292 739 l 2,51,52
 283 731 283 731 283 720 c 0,53,54
 283 708 283 708 292 701 c 2,55,-1
 770 323 l 2,56,57
 798 301 798 301 802 267 c 0,58,59
 806 232 806 232 784 204 c 0,60,61
 759 173 759 173 718 172 c 0,62,63
 689 172 689 172 666 190 c 2,64,-1
 87 647 l 2,65,66
 86 648 86 648 86 648 c 2,67,68
 81 652 81 652 77 655 c 0,69,70
 76 656 76 656 76 656 c 1,71,-1
 75 657 l 1,32,-1
EndSplineSet
EndChar

StartChar: equal
Encoding: 61 61 32
Width: 1184
GlyphClass: 2
Flags: W
LayerCount: 2
Fore
SplineSet
852 809 m 1,0,-1
 852 809 l 1,1,2
 907 809 907 809 945.5 848 c 128,-1,3
 984 887 984 887 984 941 c 0,4,5
 984 996 984 996 945.5 1035 c 128,-1,6
 907 1074 907 1074 852 1074 c 2,7,-1
 132 1074 l 2,8,9
 78 1074 78 1074 39 1035 c 128,-1,10
 0 996 0 996 0 941 c 0,11,12
 0 887 0 887 39 848 c 128,-1,13
 78 809 78 809 132 809 c 2,14,-1
 852 809 l 1,0,-1
132 1025 m 1,15,-1
 132 1025 l 1,16,-1
 852 1025 l 2,17,18
 887 1025 887 1025 911.5 1000.5 c 128,-1,19
 936 976 936 976 936 941 c 0,20,21
 936 907 936 907 911.5 882.5 c 128,-1,22
 887 858 887 858 852 858 c 2,23,-1
 132 858 l 2,24,25
 98 858 98 858 73.5 882.5 c 128,-1,26
 49 907 49 907 49 941 c 0,27,28
 49 976 49 976 73.5 1000.5 c 128,-1,29
 98 1025 98 1025 132 1025 c 1,15,-1
852 366 m 1,30,-1
 852 366 l 1,31,32
 907 366 907 366 945.5 405 c 128,-1,33
 984 444 984 444 984 499 c 0,34,35
 984 553 984 553 945.5 592 c 128,-1,36
 907 631 907 631 852 631 c 2,37,-1
 132 631 l 2,38,39
 78 631 78 631 39 592 c 128,-1,40
 0 553 0 553 0 499 c 0,41,42
 0 444 0 444 39 405 c 128,-1,43
 78 366 78 366 132 366 c 2,44,-1
 852 366 l 1,30,-1
132 582 m 1,45,-1
 132 582 l 1,46,-1
 852 582 l 2,47,48
 887 582 887 582 911.5 557.5 c 128,-1,49
 936 533 936 533 936 499 c 0,50,51
 936 464 936 464 911.5 439.5 c 128,-1,52
 887 415 887 415 852 415 c 2,53,-1
 132 415 l 2,54,55
 98 415 98 415 73.5 439.5 c 128,-1,56
 49 464 49 464 49 499 c 0,57,58
 49 533 49 533 73.5 557.5 c 128,-1,59
 98 582 98 582 132 582 c 1,45,-1
EndSplineSet
EndChar

StartChar: greater
Encoding: 62 62 33
Width: 1056
GlyphClass: 2
Flags: W
LayerCount: 2
Fore
SplineSet
138 126 m 1,0,-1
 138 126 l 1,1,2
 183 126 183 126 220 155 c 2,3,-1
 799 611 l 2,4,5
 856 656 856 656 856 722 c 0,6,7
 856 775 856 775 819 815 c 0,8,9
 817 818 817 818 814 821 c 2,10,-1
 811 823 l 2,11,12
 805 828 805 828 798 833 c 2,13,-1
 220 1289 l 2,14,15
 183 1318 183 1318 138 1318 c 0,16,17
 76 1318 76 1318 33 1267 c 0,18,19
 0 1224 0 1224 6 1169 c 0,20,21
 13 1115 13 1115 55 1080 c 2,22,-1
 509 722 l 1,23,-1
 55 364 l 2,24,25
 13 329 13 329 6 275 c 0,26,27
 0 220 0 220 33 177 c 0,28,29
 76 126 76 126 138 126 c 1,30,31
 138 126 138 126 138 126 c 1,0,-1
138 1269 m 1,32,-1
 138 1269 l 1,33,34
 167 1269 167 1269 190 1251 c 2,35,-1
 769 794 l 2,36,37
 770 794 770 794 770 793 c 0,38,39
 775 790 775 790 779 786 c 0,40,41
 780 786 780 786 780 785 c 1,42,-1
 780 785 l 1,43,44
 781 784 781 784 782 784 c 0,45,46
 808 757 808 757 808 722 c 0,47,48
 808 679 808 679 770 651 c 0,49,50
 770 650 770 650 769 650 c 2,51,-1
 190 193 l 2,52,53
 167 175 167 175 138 175 c 1,54,55
 138 175 138 175 138 175 c 1,56,57
 99 175 99 175 71 207 c 0,58,59
 50 234 50 234 54 269 c 256,60,61
 58 304 58 304 85 326 c 2,62,-1
 564 703 l 2,63,64
 573 711 573 711 573 722 c 256,65,66
 573 733 573 733 564 741 c 2,67,-1
 85 1119 l 2,68,69
 58 1140 58 1140 54 1175 c 256,70,71
 50 1210 50 1210 71 1237 c 0,72,73
 99 1269 99 1269 138 1269 c 1,32,-1
EndSplineSet
EndChar

StartChar: question
Encoding: 63 63 34
Width: 1178
GlyphClass: 2
Flags: W
LayerCount: 2
Fore
SplineSet
134 302 m 1,0,-1
 134 302 l 1,1,2
 189 302 189 302 228 341 c 128,-1,3
 267 380 267 380 267 435 c 2,4,-1
 267 592 l 1,5,-1
 537 594 l 2,6,7
 738 594 738 594 862 718 c 1,8,9
 977 842 977 842 976 1018 c 0,10,11
 978 1135 978 1135 922 1238 c 0,12,13
 921 1240 921 1240 919 1241 c 2,14,-1
 912 1250 l 1,15,16
 879 1304 879 1304 832 1343 c 1,17,18
 736 1443 736 1443 569 1441 c 0,19,20
 553 1442 553 1442 537 1442 c 0,21,22
 534 1442 534 1442 531 1441 c 2,23,-1
 440 1441 l 2,24,25
 433 1441 433 1441 427 1440 c 2,26,-1
 241 1442 l 1,27,-1
 134 1442 l 2,28,29
 79 1442 79 1442 39.5 1403 c 128,-1,30
 0 1364 0 1364 0 1309 c 0,31,32
 0 1253 0 1253 40 1213 c 128,-1,33
 80 1173 80 1173 135 1173 c 2,34,-1
 258 1174 l 1,35,-1
 288 1174 l 2,36,37
 290 1174 290 1174 293 1174 c 0,38,39
 353 1174 353 1174 430.5 1174 c 128,-1,40
 508 1174 508 1174 537 1174 c 0,41,42
 603 1174 603 1174 649 1128 c 128,-1,43
 695 1082 695 1082 695 1016 c 0,44,45
 695 1013 695 1013 695 1010 c 0,46,47
 691 945 691 945 646.5 902.5 c 128,-1,48
 602 860 602 860 538 860 c 0,49,50
 508 860 508 860 428.5 860 c 128,-1,51
 349 860 349 860 289 860 c 2,52,-1
 259 860 l 1,53,-1
 136 861 l 2,54,55
 81 861 81 861 37 817 c 0,56,57
 2 778 2 778 1 726 c 0,58,59
 1 725 1 725 1 723 c 0,60,61
 1 714 1 714 1 698.5 c 128,-1,62
 1 683 1 683 0.5 668.5 c 128,-1,63
 0 654 0 654 0 651 c 2,64,-1
 0 435 l 2,65,66
 0 380 0 380 39.5 341 c 128,-1,67
 79 302 79 302 134 302 c 1,0,-1
136 813 m 1,68,-1
 136 813 l 1,69,-1
 258 811 l 1,70,-1
 289 811 l 2,71,72
 349 811 349 811 428.5 811 c 128,-1,73
 508 811 508 811 538 811 c 0,74,75
 624 811 624 811 682.5 869.5 c 128,-1,76
 741 928 741 928 744 1016 c 0,77,78
 744 1019 744 1019 743 1023 c 0,79,80
 738 1109 738 1109 680 1166 c 128,-1,81
 622 1223 622 1223 537 1223 c 0,82,83
 507 1223 507 1223 427.5 1222.5 c 128,-1,84
 348 1222 348 1222 288 1222 c 2,85,-1
 257 1222 l 1,86,-1
 135 1221 l 2,87,88
 100 1221 100 1221 74.5 1247 c 128,-1,89
 49 1273 49 1273 49 1309 c 0,90,91
 49 1344 49 1344 74 1368.5 c 128,-1,92
 99 1393 99 1393 134 1393 c 2,93,-1
 241 1393 l 1,94,-1
 428 1392 l 2,95,96
 429 1392 429 1392 430 1392 c 0,97,98
 435 1393 435 1393 440 1393 c 2,99,-1
 537 1392 l 1,100,101
 537 1392 537 1392 537 1392 c 1,102,103
 540 1392 540 1392 543 1393 c 0,104,105
 555 1393 555 1393 567 1392 c 0,106,107
 568 1392 568 1392 568 1392 c 2,108,109
 657 1392 657 1392 709 1369.5 c 128,-1,110
 761 1347 761 1347 798 1308 c 0,111,112
 799 1307 799 1307 800 1307 c 0,113,114
 842 1271 842 1271 872 1223 c 0,115,116
 873 1222 873 1222 873 1221 c 2,117,-1
 880 1212 l 1,118,119
 929 1122 929 1122 927 1019 c 0,120,121
 927 1018 927 1018 927 1017 c 0,122,123
 929 861 929 861 827 751 c 1,124,125
 721 643 721 643 537 643 c 2,126,-1
 243 641 l 2,127,128
 234 640 234 640 227 634 c 1,129,-1
 226 634 l 1,130,131
 218 626 218 626 218 616 c 2,132,-1
 218 435 l 2,133,134
 218 400 218 400 193.5 375 c 128,-1,135
 169 350 169 350 134 350 c 256,136,137
 99 350 99 350 74 375 c 128,-1,138
 49 400 49 400 49 435 c 2,139,-1
 49 651 l 2,140,141
 49 653 49 653 49 665.5 c 128,-1,142
 49 678 49 678 49.5 694.5 c 128,-1,143
 50 711 50 711 50 726 c 0,144,145
 50 758 50 758 73 784 c 1,146,147
 73 784 73 784 73 784 c 257,148,149
 73 784 73 784 73 784 c 1,150,151
 101 813 101 813 136 813 c 1,68,-1
134 0 m 1,152,-1
 134 0 l 1,153,154
 189 0 189 0 228 39 c 128,-1,155
 267 78 267 78 267 133 c 256,156,157
 267 188 267 188 228 227.5 c 128,-1,158
 189 267 189 267 134 267 c 256,159,160
 79 267 79 267 39.5 227.5 c 128,-1,161
 0 188 0 188 0 133 c 256,162,163
 0 78 0 78 39.5 39 c 128,-1,164
 79 0 79 0 134 0 c 1,152,-1
134 218 m 1,165,-1
 134 218 l 1,166,167
 169 218 169 218 194 193 c 128,-1,168
 219 168 219 168 219 133 c 256,169,170
 219 98 219 98 194 73 c 128,-1,171
 169 48 169 48 134 48 c 256,172,173
 99 48 99 48 74 73 c 128,-1,174
 49 98 49 98 49 133 c 256,175,176
 49 168 49 168 74 193 c 128,-1,177
 99 218 99 218 134 218 c 1,165,-1
EndSplineSet
EndChar

StartChar: at
Encoding: 64 64 35
Width: 1635
GlyphClass: 2
Flags: W
LayerCount: 2
Fore
SplineSet
717 -1 m 1,0,-1
 717 -1 l 1,1,2
 915 -1 915 -1 1078 96 c 128,-1,3
 1241 193 1241 193 1338 356 c 128,-1,4
 1435 519 1435 519 1435 717 c 256,5,6
 1435 915 1435 915 1338 1078 c 128,-1,7
 1241 1241 1241 1241 1078 1338 c 128,-1,8
 915 1435 915 1435 717 1435 c 0,9,10
 520 1435 520 1435 357 1338 c 128,-1,11
 194 1241 194 1241 97 1078 c 128,-1,12
 0 915 0 915 0 717 c 256,13,14
 0 519 0 519 97 356 c 128,-1,15
 194 193 194 193 357 96 c 128,-1,16
 520 -1 520 -1 717 -1 c 1,0,-1
717 1386 m 1,17,-1
 717 1386 l 1,18,19
 902 1386 902 1386 1054 1295.5 c 128,-1,20
 1206 1205 1206 1205 1296 1053 c 128,-1,21
 1386 901 1386 901 1386 717 c 256,22,23
 1386 533 1386 533 1296 381 c 128,-1,24
 1206 229 1206 229 1054 138.5 c 128,-1,25
 902 48 902 48 717 48 c 0,26,27
 533 48 533 48 381 138.5 c 128,-1,28
 229 229 229 229 138.5 381 c 128,-1,29
 48 533 48 533 48 717 c 256,30,31
 48 901 48 901 138.5 1053 c 128,-1,32
 229 1205 229 1205 381 1295.5 c 128,-1,33
 533 1386 533 1386 717 1386 c 1,17,-1
717 217 m 1,34,-1
 717 217 l 1,35,36
 855 217 855 217 968.5 284.5 c 128,-1,37
 1082 352 1082 352 1149.5 465.5 c 128,-1,38
 1217 579 1217 579 1217 717 c 256,39,40
 1217 855 1217 855 1149.5 968.5 c 128,-1,41
 1082 1082 1082 1082 968.5 1149.5 c 128,-1,42
 855 1217 855 1217 717 1217 c 0,43,44
 580 1217 580 1217 466.5 1149.5 c 128,-1,45
 353 1082 353 1082 285.5 968.5 c 128,-1,46
 218 855 218 855 218 717 c 256,47,48
 218 579 218 579 285.5 465.5 c 128,-1,49
 353 352 353 352 466.5 284.5 c 128,-1,50
 580 217 580 217 717 217 c 1,34,-1
717 1168 m 1,51,-1
 717 1168 l 1,52,53
 842 1168 842 1168 944.5 1107 c 128,-1,54
 1047 1046 1047 1046 1108 943.5 c 128,-1,55
 1169 841 1169 841 1169 717 c 256,56,57
 1169 593 1169 593 1108 490.5 c 128,-1,58
 1047 388 1047 388 944.5 327 c 128,-1,59
 842 266 842 266 717 266 c 0,60,61
 593 266 593 266 490.5 327 c 128,-1,62
 388 388 388 388 327 490.5 c 128,-1,63
 266 593 266 593 266 717 c 256,64,65
 266 841 266 841 327 943.5 c 128,-1,66
 388 1046 388 1046 490.5 1107 c 128,-1,67
 593 1168 593 1168 717 1168 c 1,51,-1
934 447 m 1,68,-1
 934 447 l 1,69,70
 969 447 969 447 994.5 470 c 128,-1,71
 1020 493 1020 493 1025 527 c 0,72,73
 1026 530 1026 530 1026 533 c 2,74,-1
 1026 896 l 2,75,76
 1026 934 1026 934 999 960.5 c 128,-1,77
 972 987 972 987 935 987 c 0,78,79
 930 987 930 987 924 986 c 2,80,-1
 869 986 l 1,81,-1
 756 986 l 2,82,83
 751 986 751 986 747 986 c 2,84,-1
 692 986 l 2,85,86
 690 986 690 986 687 986 c 0,87,88
 678 986 678 986 667 986 c 0,89,90
 562 987 562 987 501 924 c 1,91,92
 471 899 471 899 450 865 c 1,93,-1
 446 860 l 2,94,95
 445 858 445 858 444 857 c 0,96,97
 408 792 408 792 409 717 c 0,98,99
 409 606 409 606 482 527 c 0,100,101
 558 449 558 449 687 448 c 2,102,-1
 748 447 l 2,103,104
 751 447 751 447 754 447 c 0,105,106
 788 447 788 447 813 469 c 128,-1,107
 838 491 838 491 844 524 c 1,108,109
 850 491 850 491 875 469 c 128,-1,110
 900 447 900 447 934 447 c 1,68,-1
892 538 m 1,111,-1
 892 538 l 1,112,113
 892 538 892 538 892 540 c 2,114,-1
 892 828 l 2,115,116
 892 838 892 838 885 845 c 128,-1,117
 878 852 878 852 868 852 c 2,118,-1
 830 852 l 2,119,120
 815 852 815 852 798 852 c 0,121,122
 765 852 765 852 733 852 c 128,-1,123
 701 852 701 852 687 852 c 0,124,125
 632 852 632 852 593.5 815 c 128,-1,126
 555 778 555 778 552 722 c 0,127,128
 551 719 551 719 551 716 c 0,129,130
 553 658 553 658 591.5 619.5 c 128,-1,131
 630 581 630 581 687 581 c 0,132,133
 698 581 698 581 705.5 581 c 128,-1,134
 713 581 713 581 719 581 c 0,135,136
 730 581 730 581 748 581 c 0,137,138
 749 581 749 581 750 582 c 0,139,140
 752 582 752 582 754 582 c 0,141,142
 771 582 771 582 784 569 c 128,-1,143
 797 556 797 556 797 539 c 0,144,145
 797 521 797 521 784 508.5 c 128,-1,146
 771 496 771 496 754 496 c 0,147,148
 752 496 752 496 751 496 c 256,149,150
 750 496 750 496 749 496 c 2,151,-1
 687 497 l 2,152,153
 579 497 579 497 517 561 c 0,154,155
 457 625 457 625 458 717 c 2,156,157
 458 717 458 717 458 718 c 0,158,159
 457 778 457 778 485 831 c 1,160,-1
 489 836 l 2,161,162
 490 837 490 837 490 838 c 0,163,164
 508 866 508 866 532 887 c 0,165,166
 533 888 533 888 534 888 c 0,167,168
 556 911 556 911 586 924 c 128,-1,169
 616 937 616 937 668 937 c 0,170,171
 669 937 669 937 669 937 c 2,172,173
 676 938 676 938 683 938 c 0,174,175
 685 937 685 937 687 937 c 1,176,177
 687 937 687 937 687 937 c 1,178,-1
 747 937 l 2,179,180
 749 937 749 937 752 937 c 0,181,182
 753 937 753 937 755 937 c 2,183,-1
 869 938 l 1,184,-1
 926 938 l 2,185,186
 927 938 927 938 929 938 c 0,187,188
 932 938 932 938 935 938 c 0,189,190
 952 938 952 938 964.5 926 c 128,-1,191
 977 914 977 914 977 896 c 2,192,-1
 977 536 l 1,193,194
 977 536 977 536 977 535 c 0,195,196
 975 518 975 518 963 507 c 128,-1,197
 951 496 951 496 934 496 c 256,198,199
 917 496 917 496 904.5 508 c 128,-1,200
 892 520 892 520 892 538 c 1,111,-1
754 630 m 1,201,-1
 754 630 l 1,202,203
 750 630 750 630 747 630 c 0,204,205
 730 630 730 630 719 630 c 0,206,207
 713 630 713 630 705.5 630 c 128,-1,208
 698 630 698 630 687 630 c 0,209,210
 648 630 648 630 625 655 c 128,-1,211
 602 680 602 680 600 712 c 0,212,213
 600 714 600 714 600 716 c 0,214,215
 600 748 600 748 623 776 c 128,-1,216
 646 804 646 804 687 804 c 0,217,218
 702 804 702 804 738 804 c 128,-1,219
 774 804 774 804 810 803 c 0,220,221
 820 803 820 803 830 803 c 2,222,-1
 844 803 l 1,223,-1
 843 558 l 1,224,225
 836 590 836 590 811.5 610 c 128,-1,226
 787 630 787 630 754 630 c 1,201,-1
EndSplineSet
EndChar

StartChar: A
Encoding: 65 65 36
Width: 1551
GlyphClass: 2
Flags: WO
LayerCount: 2
Fore
SplineSet
1211 0 m 1,0,-1
 1211 0 l 1,1,2
 1239 0 1239 0 1264 11 c 0,3,4
 1313 34 1313 34 1333 84 c 0,5,6
 1351 134 1351 134 1330 183 c 2,7,-1
 798 1353 l 2,8,9
 785 1381 785 1381 760 1402 c 0,10,11
 751 1411 751 1411 740 1417 c 2,12,-1
 738 1418 l 2,13,14
 734 1420 734 1420 730 1423 c 1,15,-1
 730 1423 l 1,16,17
 729 1423 729 1423 728 1424 c 0,18,19
 727 1424 727 1424 726 1425 c 0,20,21
 721 1427 721 1427 716 1428 c 0,22,23
 715 1429 715 1429 714 1429 c 0,24,25
 676 1441 676 1441 637 1429 c 0,26,27
 634 1428 634 1428 631 1427 c 2,28,-1
 629 1426 l 2,29,30
 628 1426 628 1426 626 1425 c 0,31,32
 625 1425 625 1425 624 1424 c 0,33,34
 622 1423 622 1423 619 1422 c 2,35,-1
 618 1421 l 2,36,37
 616 1420 616 1420 614 1419 c 0,38,39
 611 1417 611 1417 609 1416 c 0,40,41
 605 1413 605 1413 602 1411 c 2,42,-1
 601 1410 l 2,43,44
 597 1407 597 1407 593 1404 c 0,45,46
 566 1383 566 1383 553 1353 c 2,47,-1
 21 183 l 2,48,49
 0 134 0 134 18 84 c 0,50,51
 38 34 38 34 87 11 c 0,52,53
 112 0 112 0 140 0 c 0,54,55
 178 0 178 0 210 20.5 c 128,-1,56
 242 41 242 41 258 76 c 2,57,-1
 676 995 l 1,58,-1
 1093 76 l 2,59,60
 1129 3 1129 3 1211 0 c 1,61,62
 1211 0 1211 0 1211 0 c 1,0,-1
804 0 m 1,63,-1
 804 0 l 1,64,65
 860 0 860 0 899 39 c 128,-1,66
 938 78 938 78 938 134 c 0,67,68
 938 189 938 189 899 228 c 128,-1,69
 860 267 860 267 804 267 c 2,70,-1
 547 267 l 2,71,72
 491 267 491 267 452 228 c 128,-1,73
 413 189 413 189 413 134 c 0,74,75
 413 78 413 78 452 39 c 128,-1,76
 491 0 491 0 547 0 c 2,77,-1
 804 0 l 1,63,-1
EndSplineSet
EndChar

StartChar: B
Encoding: 66 66 37
Width: 1374
GlyphClass: 2
Flags: W
LayerCount: 2
Fore
SplineSet
733 2 m 1,0,-1
 733 2 l 1,1,2
 934 2 934 2 1057 126 c 1,3,4
 1172 250 1172 250 1171 426 c 0,5,6
 1174 547 1174 547 1114 652 c 0,7,8
 1050 761 1050 761 932 812 c 1,9,10
 976 905 976 905 974 1007 c 0,11,12
 975 1183 975 1183 860 1308 c 1,13,14
 736 1431 736 1431 536 1431 c 2,15,-1
 240 1433 l 1,16,-1
 133 1433 l 2,17,18
 78 1433 78 1433 39 1394 c 128,-1,19
 0 1355 0 1355 0 1300 c 256,20,21
 0 1245 0 1245 39.5 1204.5 c 128,-1,22
 79 1164 79 1164 134 1164 c 2,23,-1
 257 1165 l 1,24,-1
 270 1165 l 2,25,26
 305 1165 305 1165 359 1165 c 128,-1,27
 413 1165 413 1165 464 1165.5 c 128,-1,28
 515 1166 515 1166 536 1166 c 0,29,30
 602 1166 602 1166 648 1120 c 128,-1,31
 694 1074 694 1074 694 1007 c 0,32,33
 694 946 694 946 654.5 902 c 128,-1,34
 615 858 615 858 555 850 c 1,35,-1
 438 850 l 2,36,37
 383 850 383 850 344.5 811 c 128,-1,38
 306 772 306 772 306 717 c 256,39,40
 306 662 306 662 344.5 623 c 128,-1,41
 383 584 383 584 438 584 c 2,42,-1
 529 584 l 2,43,44
 532 583 532 583 535 583 c 0,45,46
 551 583 551 583 567 584 c 0,47,48
 619 584 619 584 666 584 c 128,-1,49
 713 584 713 584 734 584 c 0,50,51
 800 584 800 584 845.5 538.5 c 128,-1,52
 891 493 891 493 891 426 c 0,53,54
 891 360 891 360 845.5 314 c 128,-1,55
 800 268 800 268 734 268 c 0,56,57
 713 268 713 268 666.5 268 c 128,-1,58
 620 268 620 268 569.5 268 c 128,-1,59
 519 268 519 268 481.5 268 c 128,-1,60
 444 268 444 268 438 268 c 1,61,62
 438 268 438 268 438 268 c 1,63,64
 383 268 383 268 344.5 229 c 128,-1,65
 306 190 306 190 306 135 c 256,66,67
 306 80 306 80 344.5 41 c 128,-1,68
 383 2 383 2 438 2 c 2,69,-1
 733 2 l 1,0,-1
438 220 m 1,70,-1
 438 220 l 1,71,72
 438 220 438 220 475.5 220 c 128,-1,73
 513 220 513 220 565 220 c 128,-1,74
 617 220 617 220 665 220 c 128,-1,75
 713 220 713 220 734 220 c 0,76,77
 820 220 820 220 879.5 279.5 c 128,-1,78
 939 339 939 339 939 426 c 256,79,80
 939 513 939 513 879.5 573 c 128,-1,81
 820 633 820 633 734 633 c 0,82,83
 713 633 713 633 665.5 633 c 128,-1,84
 618 633 618 633 567 633 c 0,85,86
 566 633 566 633 565 633 c 0,87,88
 553 632 553 632 541 632 c 0,89,90
 538 633 538 633 535 633 c 1,91,92
 535 633 535 633 535 633 c 1,93,-1
 438 633 l 2,94,95
 403 633 403 633 378.5 657.5 c 128,-1,96
 354 682 354 682 354 717 c 256,97,98
 354 752 354 752 378.5 777 c 128,-1,99
 403 802 403 802 438 802 c 2,100,-1
 556 802 l 2,101,102
 557 802 557 802 558 802 c 0,103,104
 638 811 638 811 690 869 c 128,-1,105
 742 927 742 927 742 1007 c 0,106,107
 742 1094 742 1094 682.5 1154 c 128,-1,108
 623 1214 623 1214 536 1214 c 0,109,110
 507 1214 507 1214 430 1214 c 128,-1,111
 353 1214 353 1214 293 1214 c 0,112,113
 280 1214 280 1214 270 1214 c 2,114,-1
 134 1213 l 2,115,116
 99 1213 99 1213 73.5 1239 c 128,-1,117
 48 1265 48 1265 48 1300 c 256,118,119
 48 1335 48 1335 73 1360 c 128,-1,120
 98 1385 98 1385 133 1385 c 2,121,-1
 240 1385 l 1,122,-1
 535 1383 l 2,123,124
 719 1383 719 1383 825 1274 c 0,125,126
 927 1164 927 1164 925 1008 c 0,127,128
 925 1007 925 1007 925 1007 c 2,129,130
 928 902 928 902 877 811 c 0,131,132
 872 801 872 801 876 791 c 0,133,134
 880 780 880 780 890 776 c 0,135,136
 1022 725 1022 725 1074.5 624 c 128,-1,137
 1127 523 1127 523 1122 427 c 0,138,139
 1122 426 1122 426 1122 425 c 0,140,141
 1124 270 1124 270 1022 160 c 0,142,143
 916 51 916 51 733 51 c 2,144,-1
 438 51 l 2,145,146
 403 51 403 51 378.5 75.5 c 128,-1,147
 354 100 354 100 354 135 c 256,148,149
 354 170 354 170 378.5 195 c 128,-1,150
 403 220 403 220 438 220 c 1,70,-1
133 0 m 1,151,-1
 133 0 l 1,152,153
 188 0 188 0 227 39 c 128,-1,154
 266 78 266 78 266 133 c 2,155,-1
 266 718 l 2,156,157
 266 772 266 772 227 811 c 128,-1,158
 188 850 188 850 133 850 c 256,159,160
 78 850 78 850 39 811 c 128,-1,161
 0 772 0 772 0 718 c 2,162,-1
 0 133 l 2,163,164
 0 78 0 78 39 39 c 128,-1,165
 78 0 78 0 133 0 c 1,151,-1
133 802 m 1,166,-1
 133 802 l 1,167,168
 168 802 168 802 193 777 c 128,-1,169
 218 752 218 752 218 718 c 2,170,-1
 218 133 l 2,171,172
 218 98 218 98 193 73.5 c 128,-1,173
 168 49 168 49 133 49 c 0,174,175
 99 49 99 49 74 73.5 c 128,-1,176
 49 98 49 98 49 133 c 2,177,-1
 49 718 l 2,178,179
 49 752 49 752 74 777 c 128,-1,180
 99 802 99 802 133 802 c 1,166,-1
EndSplineSet
EndChar

StartChar: C
Encoding: 67 67 38
Width: 1404
GlyphClass: 2
Flags: W
LayerCount: 2
Fore
SplineSet
718 1 m 1,0,-1
 718 1 l 1,1,2
 948 1 948 1 1141 138 c 0,3,4
 1151 145 1151 145 1160 153 c 1,5,-1
 1160 153 l 1,6,7
 1160 153 1160 153 1160 153 c 1,8,9
 1161 153 1161 153 1161 153 c 1,10,11
 1204 196 1204 196 1204 252 c 0,12,13
 1204 307 1204 307 1164.5 346.5 c 128,-1,14
 1125 386 1125 386 1070 386 c 0,15,16
 1025 386 1025 386 988 358 c 0,17,18
 866 267 866 267 718 267 c 0,19,20
 594 267 594 267 491.5 328 c 128,-1,21
 389 389 389 389 328 491.5 c 128,-1,22
 267 594 267 594 267 718 c 256,23,24
 267 842 267 842 328 944.5 c 128,-1,25
 389 1047 389 1047 491.5 1108 c 128,-1,26
 594 1169 594 1169 718 1169 c 0,27,28
 863 1169 863 1169 985 1082 c 0,29,30
 1023 1051 1023 1051 1070 1051 c 0,31,32
 1125 1051 1125 1051 1164.5 1090 c 128,-1,33
 1204 1129 1204 1129 1204 1184 c 0,34,35
 1204 1252 1204 1252 1144 1296 c 0,36,37
 950 1436 950 1436 718 1436 c 0,38,39
 520 1436 520 1436 357 1339 c 128,-1,40
 194 1242 194 1242 97 1079 c 128,-1,41
 0 916 0 916 0 718 c 256,42,43
 0 520 0 520 97 357 c 128,-1,44
 194 194 194 194 357 97.5 c 128,-1,45
 520 1 520 1 718 1 c 1,0,-1
718 1387 m 1,46,-1
 718 1387 l 1,47,48
 935 1387 935 1387 1116 1256 c 1,49,50
 1116 1256 1116 1256 1117 1256 c 0,51,52
 1155 1227 1155 1227 1155 1184 c 0,53,54
 1155 1149 1155 1149 1130 1124 c 128,-1,55
 1105 1099 1105 1099 1070 1099 c 0,56,57
 1040 1099 1040 1099 1015 1119 c 0,58,59
 1015 1120 1015 1120 1014 1120 c 0,60,61
 879 1217 879 1217 718 1217 c 0,62,63
 580 1217 580 1217 467 1150 c 128,-1,64
 354 1083 354 1083 286.5 969.5 c 128,-1,65
 219 856 219 856 219 718 c 0,66,67
 219 581 219 581 286.5 467.5 c 128,-1,68
 354 354 354 354 467 286.5 c 128,-1,69
 580 219 580 219 718 219 c 0,70,71
 882 219 882 219 1018 319 c 0,72,73
 1042 337 1042 337 1070 337 c 0,74,75
 1105 337 1105 337 1130 312 c 128,-1,76
 1155 287 1155 287 1155 252 c 0,77,78
 1155 216 1155 216 1128 189 c 1,79,80
 1128 189 1128 189 1128 189 c 257,81,82
 1128 189 1128 189 1128 189 c 1,83,84
 1122 183 1122 183 1115 179 c 0,85,86
 1114 179 1114 179 1113 178 c 0,87,88
 933 49 933 49 718 49 c 0,89,90
 534 49 534 49 382 139.5 c 128,-1,91
 230 230 230 230 139.5 382 c 128,-1,92
 49 534 49 534 49 718 c 0,93,94
 49 903 49 903 139.5 1054.5 c 128,-1,95
 230 1206 230 1206 382 1296.5 c 128,-1,96
 534 1387 534 1387 718 1387 c 1,46,-1
EndSplineSet
EndChar

StartChar: D
Encoding: 68 68 39
Width: 1382
GlyphClass: 2
Flags: W
LayerCount: 2
Fore
SplineSet
465 0 m 1,0,-1
 465 0 l 1,1,2
 482 0 482 0 499 1 c 2,3,-1
 509 1 l 2,4,5
 522 1 522 1 535 3 c 0,6,7
 807 33 807 33 994 234 c 1,8,9
 1182 448 1182 448 1182 718 c 0,10,11
 1182 915 1182 915 1085 1078 c 128,-1,12
 988 1241 988 1241 825 1338 c 128,-1,13
 662 1435 662 1435 465 1435 c 0,14,15
 352 1435 352 1435 256.5 1435.5 c 128,-1,16
 161 1436 161 1436 151 1436 c 1,17,18
 151 1436 151 1436 151 1436 c 1,19,20
 148 1436 148 1436 146 1435 c 2,21,-1
 133 1435 l 2,22,23
 78 1435 78 1435 39 1396.5 c 128,-1,24
 0 1358 0 1358 0 1303 c 256,25,26
 0 1248 0 1248 39 1209.5 c 128,-1,27
 78 1171 78 1171 133 1171 c 2,28,-1
 465 1171 l 2,29,30
 589 1171 589 1171 691.5 1109.5 c 128,-1,31
 794 1048 794 1048 854.5 945.5 c 128,-1,32
 915 843 915 843 915 718 c 256,33,34
 915 593 915 593 854.5 491 c 128,-1,35
 794 389 794 389 691.5 328 c 128,-1,36
 589 267 589 267 465 267 c 0,37,38
 424 267 424 267 370 266.5 c 128,-1,39
 316 266 316 266 266 266 c 1,40,-1
 266 720 l 2,41,42
 266 775 266 775 227 814 c 128,-1,43
 188 853 188 853 133 853 c 256,44,45
 78 853 78 853 39 814 c 128,-1,46
 0 775 0 775 0 720 c 2,47,-1
 0 136 l 2,48,49
 0 135 0 135 0 134 c 2,50,51
 0 134 0 134 0 133 c 0,52,53
 0 78 0 78 39 39.5 c 128,-1,54
 78 1 78 1 133 1 c 2,55,-1
 151 1 l 1,56,57
 151 1 151 1 152 1 c 0,58,59
 169 1 169 1 263 0.5 c 128,-1,60
 357 0 357 0 465 0 c 1,0,-1
133 804 m 1,61,-1
 133 804 l 1,62,63
 168 804 168 804 193 779.5 c 128,-1,64
 218 755 218 755 218 720 c 2,65,-1
 218 242 l 2,66,67
 218 232 218 232 225 224 c 0,68,69
 232 217 232 217 242 217 c 0,70,71
 295 218 295 218 357 218 c 128,-1,72
 419 218 419 218 465 218 c 0,73,74
 602 218 602 218 715.5 285.5 c 128,-1,75
 829 353 829 353 896.5 466.5 c 128,-1,76
 964 580 964 580 964 718 c 256,77,78
 964 856 964 856 896.5 970 c 128,-1,79
 829 1084 829 1084 715.5 1151.5 c 128,-1,80
 602 1219 602 1219 465 1219 c 2,81,-1
 133 1219 l 2,82,83
 98 1219 98 1219 73.5 1243.5 c 128,-1,84
 49 1268 49 1268 49 1303 c 256,85,86
 49 1338 49 1338 73.5 1362.5 c 128,-1,87
 98 1387 98 1387 132 1387 c 2,88,-1
 151 1387 l 2,89,90
 153 1386 153 1386 156 1387 c 0,91,92
 182 1387 182 1387 272 1387 c 128,-1,93
 362 1387 362 1387 465 1387 c 0,94,95
 649 1387 649 1387 801 1296.5 c 128,-1,96
 953 1206 953 1206 1043.5 1054 c 128,-1,97
 1134 902 1134 902 1134 718 c 0,98,99
 1134 544 1134 544 1054.5 399 c 128,-1,100
 975 254 975 254 839 162 c 128,-1,101
 703 70 703 70 529 52 c 0,102,103
 528 51 528 51 526 51 c 0,104,105
 518 49 518 49 509 49 c 2,106,-1
 499 49 l 2,107,108
 498 49 498 49 498 49 c 2,109,110
 481 49 481 49 465 49 c 0,111,112
 355 49 355 49 259.5 49 c 128,-1,113
 164 49 164 49 151 49 c 1,114,115
 151 49 151 49 151 49 c 1,116,-1
 133 49 l 2,117,118
 98 49 98 49 74 73 c 128,-1,119
 50 97 50 97 49 133 c 2,120,-1
 49 134 l 1,121,122
 49 134 49 134 49 135 c 2,123,-1
 49 720 l 2,124,125
 49 755 49 755 73.5 779.5 c 128,-1,126
 98 804 98 804 133 804 c 1,61,-1
EndSplineSet
EndChar

StartChar: E
Encoding: 69 69 40
Width: 1184
GlyphClass: 2
Flags: W
LayerCount: 2
Fore
SplineSet
852 1168 m 1,0,-1
 852 1168 l 1,1,2
 907 1168 907 1168 945.5 1206.5 c 128,-1,3
 984 1245 984 1245 984 1300 c 0,4,5
 984 1354 984 1354 945.5 1393 c 128,-1,6
 907 1432 907 1432 852 1432 c 2,7,-1
 132 1432 l 2,8,9
 78 1432 78 1432 39 1393 c 128,-1,10
 0 1354 0 1354 0 1300 c 0,11,12
 0 1245 0 1245 39 1206.5 c 128,-1,13
 78 1168 78 1168 132 1168 c 2,14,-1
 852 1168 l 1,0,-1
132 1383 m 1,15,-1
 132 1383 l 1,16,-1
 852 1383 l 2,17,18
 887 1383 887 1383 911.5 1358.5 c 128,-1,19
 936 1334 936 1334 936 1300 c 0,20,21
 936 1265 936 1265 911.5 1240.5 c 128,-1,22
 887 1216 887 1216 852 1216 c 2,23,-1
 132 1216 l 2,24,25
 98 1216 98 1216 73.5 1240.5 c 128,-1,26
 49 1265 49 1265 49 1300 c 0,27,28
 49 1334 49 1334 73.5 1358.5 c 128,-1,29
 98 1383 98 1383 132 1383 c 1,15,-1
852 1 m 1,30,-1
 852 1 l 1,31,32
 907 1 907 1 945.5 39.5 c 128,-1,33
 984 78 984 78 984 133 c 256,34,35
 984 188 984 188 945.5 226.5 c 128,-1,36
 907 265 907 265 852 265 c 2,37,-1
 268 265 l 1,38,-1
 268 588 l 1,39,-1
 392 588 l 2,40,41
 447 588 447 588 486.5 627 c 128,-1,42
 526 666 526 666 526 721 c 0,43,44
 526 777 526 777 486.5 816 c 128,-1,45
 447 855 447 855 392 855 c 2,46,-1
 134 855 l 2,47,48
 79 855 79 855 39.5 816 c 128,-1,49
 0 777 0 777 0 721 c 0,50,51
 0 720 0 720 0 720 c 2,52,53
 0 719 0 719 0 718 c 2,54,-1
 0 136 l 1,55,56
 0 136 0 136 0 135 c 256,57,58
 0 134 0 134 0 133 c 0,59,60
 0 78 0 78 39 39.5 c 128,-1,61
 78 1 78 1 132 1 c 2,62,-1
 852 1 l 1,30,-1
134 807 m 1,63,-1
 134 807 l 1,64,-1
 392 807 l 2,65,66
 427 807 427 807 452 782 c 128,-1,67
 477 757 477 757 477 721 c 0,68,69
 477 686 477 686 452 661 c 128,-1,70
 427 636 427 636 392 636 c 2,71,-1
 244 636 l 2,72,73
 234 636 234 636 227 629 c 128,-1,74
 220 622 220 622 220 612 c 2,75,-1
 220 241 l 2,76,77
 220 231 220 231 227 224 c 128,-1,78
 234 217 234 217 244 217 c 2,79,-1
 852 217 l 2,80,81
 887 217 887 217 911.5 192 c 128,-1,82
 936 167 936 167 936 133 c 0,83,84
 936 98 936 98 911.5 73.5 c 128,-1,85
 887 49 887 49 852 49 c 2,86,-1
 132 49 l 2,87,88
 98 49 98 49 74 73 c 128,-1,89
 50 97 50 97 49 133 c 2,90,-1
 49 134 l 2,91,92
 49 135 49 135 49 135 c 1,93,-1
 49 136 l 1,94,-1
 49 718 l 1,95,-1
 49 719 l 2,96,97
 49 720 49 720 49 720 c 1,98,-1
 49 721 l 2,99,100
 49 757 49 757 74 782 c 128,-1,101
 99 807 99 807 134 807 c 1,63,-1
EndSplineSet
EndChar

StartChar: F
Encoding: 70 70 41
Width: 1184
GlyphClass: 2
Flags: W
LayerCount: 2
Fore
SplineSet
852 1168 m 1,0,-1
 852 1168 l 1,1,2
 906 1168 906 1168 945 1206.5 c 128,-1,3
 984 1245 984 1245 984 1300 c 0,4,5
 984 1354 984 1354 945 1393 c 128,-1,6
 906 1432 906 1432 852 1432 c 2,7,-1
 132 1432 l 2,8,9
 77 1432 77 1432 38.5 1393 c 128,-1,10
 0 1354 0 1354 0 1300 c 0,11,12
 0 1245 0 1245 38.5 1206.5 c 128,-1,13
 77 1168 77 1168 132 1168 c 2,14,-1
 852 1168 l 1,0,-1
132 1383 m 1,15,-1
 132 1383 l 1,16,-1
 852 1383 l 2,17,18
 886 1383 886 1383 910.5 1358.5 c 128,-1,19
 935 1334 935 1334 935 1300 c 0,20,21
 935 1265 935 1265 910.5 1240.5 c 128,-1,22
 886 1216 886 1216 852 1216 c 2,23,-1
 132 1216 l 2,24,25
 97 1216 97 1216 72.5 1240.5 c 128,-1,26
 48 1265 48 1265 48 1300 c 0,27,28
 48 1334 48 1334 72.5 1358.5 c 128,-1,29
 97 1383 97 1383 132 1383 c 1,15,-1
133 -1 m 1,30,-1
 133 -1 l 1,31,32
 188 -1 188 -1 227 38 c 128,-1,33
 266 77 266 77 266 132 c 2,34,-1
 266 588 l 1,35,-1
 391 588 l 2,36,37
 447 588 447 588 486 627 c 128,-1,38
 525 666 525 666 525 721 c 0,39,40
 525 777 525 777 486 816 c 128,-1,41
 447 855 447 855 391 855 c 2,42,-1
 134 855 l 2,43,44
 78 855 78 855 39 816 c 128,-1,45
 0 777 0 777 0 721 c 0,46,47
 0 720 0 720 0 718 c 256,48,49
 0 716 0 716 0 714 c 2,50,-1
 0 132 l 2,51,52
 0 77 0 77 39 38 c 128,-1,53
 78 -1 78 -1 133 -1 c 1,30,-1
134 807 m 1,54,-1
 134 807 l 1,55,-1
 391 807 l 2,56,57
 427 807 427 807 452 782 c 128,-1,58
 477 757 477 757 477 721 c 0,59,60
 477 686 477 686 452 661 c 128,-1,61
 427 636 427 636 391 636 c 2,62,-1
 242 636 l 2,63,64
 232 636 232 636 224.5 629 c 128,-1,65
 217 622 217 622 217 612 c 2,66,-1
 217 132 l 2,67,68
 217 97 217 97 192.5 72.5 c 128,-1,69
 168 48 168 48 133 48 c 256,70,71
 98 48 98 48 73 72.5 c 128,-1,72
 48 97 48 97 48 132 c 2,73,-1
 48 714 l 2,74,75
 48 715 48 715 48 716 c 2,76,-1
 49 717 l 2,77,78
 49 718 49 718 49 719 c 1,79,-1
 48 719 l 1,80,81
 48 720 48 720 48 721 c 0,82,83
 48 757 48 757 73 782 c 128,-1,84
 98 807 98 807 134 807 c 1,54,-1
EndSplineSet
EndChar

StartChar: G
Encoding: 71 71 42
Width: 1634
GlyphClass: 2
Flags: W
LayerCount: 2
Fore
SplineSet
1301 -1 m 1,0,-1
 1301 -1 l 1,1,2
 1356 -1 1356 -1 1395 38 c 128,-1,3
 1434 77 1434 77 1434 132 c 2,4,-1
 1434 714 l 2,5,6
 1434 716 1434 716 1434 717 c 0,7,8
 1434 719 1434 719 1434 721 c 2,9,-1
 1434 722 l 1,10,11
 1434 722 1434 722 1434 722.5 c 128,-1,12
 1434 723 1434 723 1434 723 c 2,13,14
 1434 779 1434 779 1394 818.5 c 128,-1,15
 1354 858 1354 858 1298 858 c 2,16,-1
 1046 858 l 2,17,18
 982 858 982 858 937 804 c 0,19,20
 909 767 909 767 909 721 c 0,21,22
 909 666 909 666 948 626.5 c 128,-1,23
 987 587 987 587 1042 587 c 2,24,-1
 1168 587 l 1,25,-1
 1168 132 l 2,26,27
 1168 77 1168 77 1207 38 c 128,-1,28
 1246 -1 1246 -1 1301 -1 c 1,0,-1
1046 810 m 1,29,-1
 1046 810 l 1,30,-1
 1298 810 l 2,31,32
 1334 810 1334 810 1359.5 784.5 c 128,-1,33
 1385 759 1385 759 1385 723 c 2,34,35
 1385 723 1385 723 1385 722.5 c 128,-1,36
 1385 722 1385 722 1385 722 c 1,37,-1
 1385 721 l 2,38,39
 1385 720 1385 720 1385 719 c 2,40,-1
 1385 718 l 2,41,42
 1385 717 1385 717 1385 717 c 1,43,-1
 1385 716 l 1,44,45
 1385 716 1385 716 1385 716 c 1,46,47
 1385 715 1385 715 1385 714 c 2,48,-1
 1385 132 l 2,49,50
 1385 97 1385 97 1360.5 72 c 128,-1,51
 1336 47 1336 47 1301 47 c 256,52,53
 1266 47 1266 47 1241 72 c 128,-1,54
 1216 97 1216 97 1216 132 c 2,55,-1
 1216 612 l 2,56,57
 1216 622 1216 622 1209 629 c 128,-1,58
 1202 636 1202 636 1192 636 c 2,59,-1
 1042 636 l 2,60,61
 1007 636 1007 636 982 661 c 128,-1,62
 957 686 957 686 957 721 c 0,63,64
 957 750 957 750 975 774 c 1,65,66
 975 774 975 774 976 774 c 1,67,68
 976 774 976 774 976 775 c 0,69,70
 1004 810 1004 810 1046 810 c 1,29,-1
718 0 m 1,71,-1
 718 0 l 1,72,73
 721 0 721 0 724 1 c 0,74,75
 777 5 777 5 812.5 42.5 c 128,-1,76
 848 80 848 80 848 133 c 0,77,78
 848 184 848 184 814 221.5 c 128,-1,79
 780 259 780 259 728 264 c 0,80,81
 723 267 723 267 718 267 c 0,82,83
 593 267 593 267 491 328 c 128,-1,84
 389 389 389 389 328 491 c 128,-1,85
 267 593 267 593 267 718 c 0,86,87
 267 842 267 842 328 944.5 c 128,-1,88
 389 1047 389 1047 491 1107.5 c 128,-1,89
 593 1168 593 1168 718 1168 c 0,90,91
 862 1168 862 1168 984 1081 c 0,92,93
 1023 1050 1023 1050 1070 1050 c 0,94,95
 1125 1050 1125 1050 1164 1089.5 c 128,-1,96
 1203 1129 1203 1129 1203 1184 c 0,97,98
 1203 1251 1203 1251 1144 1295 c 0,99,100
 950 1435 950 1435 718 1435 c 0,101,102
 520 1435 520 1435 357 1338 c 128,-1,103
 194 1241 194 1241 97 1078.5 c 128,-1,104
 0 916 0 916 0 718 c 256,105,106
 0 520 0 520 97 357 c 128,-1,107
 194 194 194 194 357 97 c 128,-1,108
 520 0 520 0 718 0 c 1,71,-1
718 1387 m 1,109,-1
 718 1387 l 1,110,111
 934 1387 934 1387 1115 1256 c 0,112,113
 1116 1255 1116 1255 1116 1255 c 1,114,115
 1155 1227 1155 1227 1155 1184 c 0,116,117
 1155 1149 1155 1149 1130 1124 c 128,-1,118
 1105 1099 1105 1099 1070 1099 c 0,119,120
 1039 1099 1039 1099 1015 1119 c 0,121,122
 1014 1119 1014 1119 1013 1120 c 0,123,124
 879 1217 879 1217 718 1217 c 0,125,126
 580 1217 580 1217 466.5 1149.5 c 128,-1,127
 353 1082 353 1082 285.5 968.5 c 128,-1,128
 218 855 218 855 218 718 c 0,129,130
 218 582 218 582 284 469.5 c 128,-1,131
 350 357 350 357 460.5 290 c 128,-1,132
 571 223 571 223 708 219 c 0,133,134
 712 217 712 217 717 216 c 0,135,136
 752 215 752 215 776 191 c 128,-1,137
 800 167 800 167 800 133 c 256,138,139
 800 99 800 99 776 75 c 128,-1,140
 752 51 752 51 717 49 c 0,141,142
 715 49 715 49 712 49 c 0,143,144
 527 52 527 52 377.5 141.5 c 128,-1,145
 228 231 228 231 138 382.5 c 128,-1,146
 48 534 48 534 48 718 c 256,147,148
 48 902 48 902 138.5 1054 c 128,-1,149
 229 1206 229 1206 381 1296.5 c 128,-1,150
 533 1387 533 1387 718 1387 c 1,109,-1
EndSplineSet
EndChar

StartChar: H
Encoding: 72 72 43
Width: 1175
GlyphClass: 2
Flags: W
LayerCount: 2
Fore
SplineSet
842 1442 m 1,0,-1
 842 1442 l 1,1,2
 897 1442 897 1442 936 1403 c 128,-1,3
 975 1364 975 1364 975 1309 c 2,4,-1
 975 131 l 2,5,6
 975 76 975 76 936 37 c 128,-1,7
 897 -2 897 -2 842 -2 c 256,8,9
 787 -2 787 -2 748 37 c 128,-1,10
 709 76 709 76 709 131 c 2,11,-1
 709 1309 l 2,12,13
 709 1364 709 1364 748 1403 c 128,-1,14
 787 1442 787 1442 842 1442 c 1,0,-1
927 131 m 1,15,-1
 927 131 l 1,16,-1
 927 1309 l 2,17,18
 927 1343 927 1343 902 1368 c 128,-1,19
 877 1393 877 1393 842 1393 c 256,20,21
 807 1393 807 1393 782.5 1368 c 128,-1,22
 758 1343 758 1343 758 1309 c 2,23,-1
 758 131 l 2,24,25
 758 96 758 96 782.5 71.5 c 128,-1,26
 807 47 807 47 842 47 c 256,27,28
 877 47 877 47 902 71.5 c 128,-1,29
 927 96 927 96 927 131 c 1,15,-1
392 856 m 1,30,-1
 392 856 l 1,31,32
 447 856 447 856 486 816.5 c 128,-1,33
 525 777 525 777 525 722 c 256,34,35
 525 667 525 667 486 627.5 c 128,-1,36
 447 588 447 588 392 588 c 2,37,-1
 266 588 l 1,38,-1
 266 131 l 2,39,40
 266 76 266 76 227 37 c 128,-1,41
 188 -2 188 -2 133 -2 c 256,42,43
 78 -2 78 -2 39 37 c 128,-1,44
 0 76 0 76 0 131 c 2,45,-1
 0 1309 l 2,46,47
 0 1364 0 1364 39 1403 c 128,-1,48
 78 1442 78 1442 133 1442 c 256,49,50
 188 1442 188 1442 227 1403 c 128,-1,51
 266 1364 266 1364 266 1309 c 2,52,-1
 266 856 l 1,53,-1
 392 856 l 1,30,-1
392 637 m 1,54,-1
 392 637 l 1,55,56
 427 637 427 637 452 662 c 128,-1,57
 477 687 477 687 477 722 c 256,58,59
 477 757 477 757 452 782 c 128,-1,60
 427 807 427 807 392 807 c 2,61,-1
 242 807 l 2,62,63
 231 807 231 807 224 814.5 c 128,-1,64
 217 822 217 822 217 832 c 2,65,-1
 217 1309 l 2,66,67
 217 1343 217 1343 192.5 1368 c 128,-1,68
 168 1393 168 1393 133 1393 c 256,69,70
 98 1393 98 1393 73 1368 c 128,-1,71
 48 1343 48 1343 48 1309 c 2,72,-1
 48 131 l 2,73,74
 48 96 48 96 73 71.5 c 128,-1,75
 98 47 98 47 133 47 c 256,76,77
 168 47 168 47 192.5 71.5 c 128,-1,78
 217 96 217 96 217 131 c 2,79,-1
 217 613 l 2,80,81
 217 623 217 623 224 630 c 128,-1,82
 231 637 231 637 242 637 c 2,83,-1
 392 637 l 1,54,-1
EndSplineSet
EndChar

StartChar: I
Encoding: 73 73 44
Width: 466
GlyphClass: 2
Flags: W
LayerCount: 2
Fore
SplineSet
133 1 m 1,0,-1
 133 1 l 1,1,2
 188 1 188 1 227 40 c 128,-1,3
 266 79 266 79 266 134 c 2,4,-1
 266 1312 l 2,5,6
 266 1367 266 1367 227 1406 c 128,-1,7
 188 1445 188 1445 133 1445 c 256,8,9
 78 1445 78 1445 39 1406 c 128,-1,10
 0 1367 0 1367 0 1312 c 2,11,-1
 0 134 l 2,12,13
 0 79 0 79 39 40 c 128,-1,14
 78 1 78 1 133 1 c 1,0,-1
133 1396 m 1,15,-1
 133 1396 l 1,16,17
 168 1396 168 1396 192.5 1371.5 c 128,-1,18
 217 1347 217 1347 217 1312 c 2,19,-1
 217 134 l 2,20,21
 217 99 217 99 192.5 74.5 c 128,-1,22
 168 50 168 50 133 50 c 256,23,24
 98 50 98 50 73 74.5 c 128,-1,25
 48 99 48 99 48 134 c 2,26,-1
 48 1312 l 2,27,28
 48 1347 48 1347 73 1371.5 c 128,-1,29
 98 1396 98 1396 133 1396 c 1,15,-1
EndSplineSet
EndChar

StartChar: J
Encoding: 74 74 45
Width: 1184
GlyphClass: 2
Flags: W
LayerCount: 2
Fore
SplineSet
852 -1 m 1,0,-1
 852 -1 l 1,1,2
 907 -1 907 -1 945.5 38 c 128,-1,3
 984 77 984 77 984 132 c 1,4,5
 984 132 984 132 984 132 c 257,6,7
 984 132 984 132 984 132 c 1,8,-1
 984 1310 l 2,9,10
 984 1365 984 1365 945.5 1404 c 128,-1,11
 907 1443 907 1443 852 1443 c 256,12,13
 797 1443 797 1443 758 1404 c 128,-1,14
 719 1365 719 1365 719 1310 c 2,15,-1
 719 264 l 1,16,-1
 133 264 l 2,17,18
 78 264 78 264 39 225.5 c 128,-1,19
 0 187 0 187 0 132 c 256,20,21
 0 77 0 77 39 38 c 128,-1,22
 78 -1 78 -1 133 -1 c 2,23,-1
 852 -1 l 1,0,-1
133 216 m 1,24,-1
 133 216 l 1,25,-1
 743 216 l 2,26,27
 753 216 753 216 760 223 c 128,-1,28
 767 230 767 230 767 240 c 2,29,-1
 767 1310 l 2,30,31
 767 1344 767 1344 792 1369 c 128,-1,32
 817 1394 817 1394 852 1394 c 0,33,34
 886 1394 886 1394 911 1369 c 128,-1,35
 936 1344 936 1344 936 1310 c 2,36,-1
 936 132 l 1,37,38
 936 132 936 132 936 132 c 257,39,40
 936 132 936 132 936 131 c 0,41,42
 935 96 935 96 911 72 c 128,-1,43
 887 48 887 48 852 48 c 2,44,-1
 133 48 l 2,45,46
 98 48 98 48 73.5 72.5 c 128,-1,47
 49 97 49 97 49 132 c 0,48,49
 49 166 49 166 73.5 191 c 128,-1,50
 98 216 98 216 133 216 c 1,24,-1
EndSplineSet
EndChar

StartChar: K
Encoding: 75 75 46
Width: 1196
GlyphClass: 2
Flags: W
LayerCount: 2
Fore
SplineSet
133 0 m 1,0,-1
 133 0 l 1,1,2
 188 0 188 0 227 39 c 128,-1,3
 266 78 266 78 266 133 c 2,4,-1
 266 1311 l 2,5,6
 266 1366 266 1366 227 1405 c 128,-1,7
 188 1444 188 1444 133 1444 c 256,8,9
 78 1444 78 1444 39 1405 c 128,-1,10
 0 1366 0 1366 0 1311 c 2,11,-1
 0 133 l 2,12,13
 0 78 0 78 39 39 c 128,-1,14
 78 0 78 0 133 0 c 1,0,-1
133 1395 m 1,15,-1
 133 1395 l 1,16,17
 168 1395 168 1395 192.5 1370.5 c 128,-1,18
 217 1346 217 1346 217 1311 c 2,19,-1
 217 133 l 2,20,21
 217 98 217 98 192.5 73.5 c 128,-1,22
 168 49 168 49 133 49 c 256,23,24
 98 49 98 49 73 73.5 c 128,-1,25
 48 98 48 98 48 133 c 2,26,-1
 48 1311 l 2,27,28
 48 1346 48 1346 73 1370.5 c 128,-1,29
 98 1395 98 1395 133 1395 c 1,15,-1
699 973 m 1,30,-1
 699 973 l 1,31,32
 761 973 761 973 805 1024 c 2,33,-1
 963 1228 l 2,34,35
 996 1272 996 1272 990 1326 c 0,36,37
 983 1381 983 1381 939 1415 c 0,38,39
 902 1444 902 1444 857 1444 c 0,40,41
 795 1444 795 1444 752 1392 c 2,42,-1
 593 1189 l 2,43,44
 560 1143 560 1143 566.5 1090 c 128,-1,45
 573 1037 573 1037 617 1001 c 0,46,47
 654 973 654 973 699 973 c 1,48,-1
 699 973 l 1,30,-1
857 1395 m 1,49,-1
 857 1395 l 1,50,51
 886 1395 886 1395 910 1377 c 0,52,53
 937 1355 937 1355 942 1320 c 0,54,55
 946 1285 946 1285 925 1258 c 2,56,-1
 766 1054 l 2,57,58
 740 1022 740 1022 699 1021 c 0,59,60
 670 1021 670 1021 647 1039 c 0,61,62
 619 1062 619 1062 614.5 1096 c 128,-1,63
 610 1130 610 1130 632 1159 c 2,64,-1
 790 1362 l 2,65,66
 818 1395 818 1395 857 1395 c 1,49,-1
855 0 m 1,67,-1
 855 0 l 1,68,69
 900 0 900 0 939 30 c 0,70,71
 983 65 983 65 990 121 c 0,72,73
 996 177 996 177 962 222 c 2,74,-1
 502 802 l 2,75,76
 458 853 458 853 395 853 c 0,77,78
 348 853 348 853 310 824 c 0,79,80
 266 787 266 787 259.5 732.5 c 128,-1,81
 253 678 253 678 288 632 c 2,82,-1
 747 52 l 2,83,84
 792 0 792 0 855 0 c 1,85,-1
 855 0 l 1,67,-1
395 805 m 1,86,-1
 395 805 l 1,87,88
 436 805 436 805 464 771 c 2,89,-1
 924 191 l 2,90,91
 946 163 946 163 942 127 c 0,92,93
 937 91 937 91 909 68 c 0,94,95
 885 49 885 49 855 49 c 0,96,97
 814 49 814 49 785 82 c 2,98,-1
 326 662 l 2,99,100
 304 692 304 692 308 727 c 128,-1,101
 312 762 312 762 340 786 c 0,102,103
 365 805 365 805 395 805 c 1,86,-1
EndSplineSet
EndChar

StartChar: L
Encoding: 76 76 47
Width: 1184
GlyphClass: 2
Flags: W
LayerCount: 2
Fore
SplineSet
851 -1 m 1,0,-1
 851 -1 l 1,1,2
 906 -1 906 -1 945 38 c 128,-1,3
 984 77 984 77 984 131 c 0,4,5
 984 186 984 186 945 225 c 128,-1,6
 906 264 906 264 851 264 c 2,7,-1
 266 264 l 1,8,-1
 266 1309 l 2,9,10
 266 1364 266 1364 227 1403 c 128,-1,11
 188 1442 188 1442 133 1442 c 256,12,13
 78 1442 78 1442 39 1403 c 128,-1,14
 0 1364 0 1364 0 1309 c 2,15,-1
 0 132 l 1,16,17
 0 132 0 132 0 132 c 1,18,19
 0 131 0 131 0 131 c 2,20,21
 0 77 0 77 39 38 c 128,-1,22
 78 -1 78 -1 132 -1 c 2,23,-1
 851 -1 l 1,0,-1
48 131 m 1,24,-1
 48 131 l 1,25,26
 48 131 48 131 48 132 c 1,27,28
 48 132 48 132 48 132 c 1,29,-1
 48 1309 l 2,30,31
 48 1344 48 1344 73 1369 c 128,-1,32
 98 1394 98 1394 133 1394 c 256,33,34
 168 1394 168 1394 192.5 1369 c 128,-1,35
 217 1344 217 1344 217 1309 c 2,36,-1
 217 240 l 2,37,38
 217 230 217 230 224 222.5 c 128,-1,39
 231 215 231 215 241 215 c 2,40,-1
 851 215 l 2,41,42
 886 215 886 215 910.5 190.5 c 128,-1,43
 935 166 935 166 935 131 c 0,44,45
 935 97 935 97 910.5 72 c 128,-1,46
 886 47 886 47 851 47 c 2,47,-1
 132 47 l 2,48,49
 98 47 98 47 73.5 71.5 c 128,-1,50
 49 96 49 96 48 131 c 1,24,-1
EndSplineSet
EndChar

StartChar: M
Encoding: 77 77 48
Width: 2251
GlyphClass: 2
Flags: W
LayerCount: 2
Fore
SplineSet
1212 -1 m 1,0,-1
 1212 -1 l 1,1,2
 1239 -1 1239 -1 1265 11 c 0,3,4
 1313 33 1313 33 1333 83 c 0,5,6
 1351 133 1351 133 1330 183 c 2,7,-1
 1168 538 l 1,8,-1
 1375 995 l 1,9,-1
 1793 76 l 2,10,11
 1829 3 1829 3 1911 -1 c 1,12,-1
 1911 -1 l 1,13,14
 1939 -1 1939 -1 1964 11 c 0,15,16
 2013 33 2013 33 2033 83 c 0,17,18
 2051 133 2051 133 2030 183 c 2,19,-1
 1498 1352 l 2,20,21
 1485 1381 1485 1381 1460 1402 c 0,22,23
 1451 1411 1451 1411 1440 1417 c 2,24,-1
 1438 1418 l 2,25,26
 1434 1420 1434 1420 1430 1422 c 1,27,-1
 1430 1422 l 1,28,29
 1429 1423 1429 1423 1428 1423 c 0,30,31
 1427 1424 1427 1424 1426 1424 c 0,32,33
 1421 1426 1421 1426 1416 1428 c 0,34,35
 1415 1428 1415 1428 1414 1428 c 0,36,37
 1376 1441 1376 1441 1337 1429 c 0,38,39
 1334 1428 1334 1428 1331 1426 c 2,40,-1
 1329 1426 l 2,41,42
 1328 1425 1328 1425 1326 1425 c 0,43,44
 1325 1424 1325 1424 1324 1424 c 0,45,46
 1321 1423 1321 1423 1319 1421 c 2,47,-1
 1318 1420 l 2,48,49
 1316 1420 1316 1420 1314 1419 c 0,50,51
 1311 1417 1311 1417 1309 1415 c 0,52,53
 1305 1413 1305 1413 1302 1410 c 2,54,-1
 1301 1410 l 2,55,56
 1297 1407 1297 1407 1293 1404 c 0,57,58
 1266 1382 1266 1382 1253 1352 c 2,59,-1
 1026 852 l 1,60,-1
 799 1352 l 2,61,62
 785 1381 785 1381 760 1402 c 0,63,64
 751 1411 751 1411 740 1417 c 2,65,-1
 739 1418 l 2,66,67
 735 1420 735 1420 730 1422 c 1,68,-1
 730 1422 l 1,69,70
 729 1423 729 1423 728 1423 c 0,71,72
 727 1424 727 1424 726 1424 c 0,73,74
 722 1426 722 1426 716 1428 c 2,75,76
 716 1428 716 1428 715 1428 c 0,77,78
 676 1441 676 1441 638 1429 c 0,79,80
 635 1428 635 1428 632 1426 c 2,81,-1
 630 1426 l 2,82,83
 628 1425 628 1425 627 1425 c 0,84,85
 625 1424 625 1424 624 1424 c 0,86,87
 622 1423 622 1423 620 1421 c 2,88,-1
 618 1420 l 2,89,90
 616 1420 616 1420 614 1419 c 0,91,92
 612 1417 612 1417 609 1415 c 0,93,94
 605 1413 605 1413 602 1410 c 2,95,-1
 601 1410 l 2,96,97
 597 1407 597 1407 593 1404 c 0,98,99
 567 1382 567 1382 553 1352 c 2,100,-1
 22 183 l 2,101,102
 0 133 0 133 19 83 c 256,103,104
 38 33 38 33 87 11 c 0,105,106
 112 -1 112 -1 140 -1 c 0,107,108
 178 -1 178 -1 210 20 c 128,-1,109
 242 41 242 41 259 76 c 2,110,-1
 676 995 l 1,111,-1
 1093 76 l 2,112,113
 1109 41 1109 41 1141 20 c 128,-1,114
 1173 -1 1173 -1 1212 -1 c 1,0,-1
1375 1078 m 1,115,-1
 1375 1078 l 1,116,117
 1361 1078 1361 1078 1353 1063 c 2,118,-1
 1120 548 l 2,119,120
 1115 538 1115 538 1120 528 c 2,121,-1
 1286 163 l 2,122,123
 1299 132 1299 132 1287 100 c 0,124,125
 1275 69 1275 69 1245 55 c 0,126,127
 1229 48 1229 48 1212 48 c 0,128,129
 1164 48 1164 48 1137 96 c 1,130,-1
 698 1063 l 2,131,132
 690 1078 690 1078 676 1078 c 256,133,134
 662 1078 662 1078 654 1063 c 2,135,-1
 214 96 l 2,136,137
 188 48 188 48 140 48 c 0,138,139
 123 48 123 48 107 55 c 0,140,141
 76 69 76 69 64 100 c 0,142,143
 53 132 53 132 66 163 c 2,144,-1
 597 1332 l 2,145,146
 606 1352 606 1352 624 1366 c 2,147,148
 624 1366 624 1366 625 1367 c 0,149,150
 627 1369 627 1369 630 1371 c 1,151,-1
 630 1371 l 1,152,153
 632 1373 632 1373 635 1374 c 0,154,155
 637 1375 637 1375 638 1376 c 256,156,157
 639 1377 639 1377 639 1377 c 2,158,159
 640 1377 640 1377 640 1377 c 1,160,-1
 641 1378 l 2,161,162
 642 1378 642 1378 643 1379 c 1,163,164
 643 1379 643 1379 643 1379 c 257,165,166
 643 1379 643 1379 644 1379 c 1,167,168
 644 1379 644 1379 644 1379 c 257,169,170
 644 1379 644 1379 645 1380 c 2,171,-1
 649 1381 l 1,172,173
 649 1381 649 1381 650 1381 c 0,174,175
 651 1382 651 1382 652 1382 c 0,176,177
 676 1390 676 1390 699 1382 c 0,178,179
 700 1382 700 1382 701 1382 c 0,180,181
 704 1381 704 1381 707 1380 c 2,182,183
 707 1380 707 1380 707 1379 c 1,184,185
 708 1379 708 1379 709 1379 c 0,186,187
 712 1377 712 1377 715 1376 c 2,188,189
 715 1376 715 1376 715 1375.5 c 128,-1,190
 715 1375 715 1375 715 1375 c 129,-1,191
 715 1375 715 1375 715 1375 c 1,192,193
 722 1371 722 1371 728 1366 c 0,194,195
 729 1365 729 1365 729 1365 c 2,196,197
 746 1351 746 1351 754 1332 c 2,198,-1
 1004 784 l 2,199,200
 1011 769 1011 769 1026 769 c 0,201,202
 1040 769 1040 769 1048 784 c 2,203,-1
 1297 1332 l 2,204,205
 1306 1352 1306 1352 1324 1366 c 2,206,207
 1324 1366 1324 1366 1325 1367 c 0,208,209
 1327 1369 1327 1369 1329 1371 c 2,210,-1
 1330 1371 l 2,211,212
 1332 1373 1332 1373 1335 1374 c 0,213,214
 1336 1375 1336 1375 1338 1376 c 0,215,216
 1338 1377 1338 1377 1339 1377 c 1,217,218
 1339 1377 1339 1377 1339 1377 c 1,219,-1
 1340 1378 l 2,220,221
 1342 1378 1342 1378 1343 1379 c 1,222,223
 1343 1379 1343 1379 1343 1379 c 1,224,225
 1344 1379 1344 1379 1345 1380 c 2,226,-1
 1349 1381 l 1,227,228
 1349 1381 1349 1381 1349 1381 c 1,229,230
 1350 1382 1350 1382 1352 1382 c 0,231,232
 1375 1390 1375 1390 1399 1382 c 0,233,234
 1400 1382 1400 1382 1400 1382 c 2,235,236
 1404 1381 1404 1381 1406 1380 c 1,237,238
 1406 1380 1406 1380 1406 1380 c 1,239,240
 1407 1380 1407 1380 1407 1379 c 1,241,242
 1408 1379 1408 1379 1409 1379 c 0,243,244
 1412 1377 1412 1377 1414 1376 c 2,245,246
 1414 1376 1414 1376 1414.5 1375.5 c 128,-1,247
 1415 1375 1415 1375 1415 1375 c 257,248,249
 1415 1375 1415 1375 1415 1375 c 1,250,251
 1422 1371 1422 1371 1428 1366 c 0,252,253
 1428 1365 1428 1365 1429 1365 c 0,254,255
 1445 1351 1445 1351 1454 1332 c 2,256,-1
 1985 163 l 2,257,258
 1999 132 1999 132 1987 100 c 0,259,260
 1975 69 1975 69 1944 55 c 0,261,262
 1928 48 1928 48 1911 48 c 1,263,-1
 1911 48 l 1,264,265
 1860 50 1860 50 1837 96 c 2,266,-1
 1398 1063 l 2,267,268
 1390 1078 1390 1078 1375 1078 c 1,115,-1
EndSplineSet
EndChar

StartChar: N
Encoding: 78 78 49
Width: 1299
GlyphClass: 2
Flags: W
LayerCount: 2
Fore
SplineSet
966 -2 m 1,0,-1
 966 -2 l 1,1,2
 1021 -2 1021 -2 1060 37 c 128,-1,3
 1099 76 1099 76 1099 131 c 2,4,-1
 1099 1308 l 2,5,6
 1099 1363 1099 1363 1060 1402 c 128,-1,7
 1021 1441 1021 1441 966 1441 c 256,8,9
 911 1441 911 1441 872 1402 c 128,-1,10
 833 1363 833 1363 833 1308 c 2,11,-1
 833 131 l 2,12,13
 833 76 833 76 872 37 c 128,-1,14
 911 -2 911 -2 966 -2 c 1,0,-1
966 1393 m 1,15,-1
 966 1393 l 1,16,17
 1001 1393 1001 1393 1025.5 1368 c 128,-1,18
 1050 1343 1050 1343 1050 1308 c 2,19,-1
 1050 131 l 2,20,21
 1050 96 1050 96 1025.5 71 c 128,-1,22
 1001 46 1001 46 966 46 c 256,23,24
 931 46 931 46 906 71 c 128,-1,25
 881 96 881 96 881 131 c 2,26,-1
 881 1308 l 2,27,28
 881 1343 881 1343 906 1368 c 128,-1,29
 931 1393 931 1393 966 1393 c 1,15,-1
133 -2 m 1,30,-1
 133 -2 l 1,31,32
 188 -2 188 -2 227 37 c 128,-1,33
 266 76 266 76 266 131 c 2,34,-1
 266 987 l 1,35,-1
 452 801 l 2,36,37
 493 762 493 762 546 762 c 1,38,-1
 546 762 l 1,39,40
 599 762 599 762 640 801 c 0,41,42
 678 840 678 840 679 895 c 0,43,44
 679 950 679 950 640 989 c 2,45,-1
 227 1402 l 1,46,47
 227 1402 227 1402 227 1402 c 257,48,49
 227 1402 227 1402 227 1402 c 1,50,-1
 227 1402 l 1,51,52
 227 1403 227 1403 227 1403 c 257,53,54
 227 1403 227 1403 226 1403 c 0,55,56
 222 1407 222 1407 218 1411 c 0,57,58
 217 1412 217 1412 216 1412 c 2,59,-1
 215 1413 l 2,60,61
 211 1416 211 1416 207 1418 c 0,62,63
 206 1419 206 1419 205 1420 c 2,64,-1
 204 1421 l 2,65,66
 200 1423 200 1423 197 1425 c 0,67,68
 194 1426 194 1426 192 1427 c 0,69,70
 189 1429 189 1429 185 1431 c 0,71,72
 183 1432 183 1432 181 1432 c 0,73,74
 177 1434 177 1434 172 1435 c 0,75,76
 171 1436 171 1436 169 1436 c 0,77,78
 164 1438 164 1438 160 1438 c 0,79,80
 158 1439 158 1439 157 1439 c 1,81,-1
 157 1439 l 1,82,83
 151 1440 151 1440 146 1440 c 2,84,85
 146 1440 146 1440 145 1441 c 0,86,87
 139 1441 139 1441 133 1441 c 0,88,89
 77 1440 77 1440 38.5 1401.5 c 128,-1,90
 0 1363 0 1363 0 1308 c 2,91,-1
 0 131 l 2,92,93
 0 76 0 76 39 37 c 128,-1,94
 78 -2 78 -2 133 -2 c 1,30,-1
133 1393 m 1,95,-1
 133 1393 l 1,96,97
 136 1393 136 1393 141 1392 c 2,98,-1
 142 1392 l 2,99,100
 145 1392 145 1392 148 1391 c 2,101,-1
 150 1391 l 2,102,103
 153 1390 153 1390 156 1389 c 2,104,105
 156 1389 156 1389 157 1389 c 2,106,107
 157 1389 157 1389 158 1389 c 0,108,109
 161 1388 161 1388 163 1387 c 2,110,111
 163 1387 163 1387 164 1387 c 0,112,113
 165 1386 165 1386 166 1386 c 0,114,115
 168 1385 168 1385 171 1384 c 2,116,117
 171 1384 171 1384 171 1383 c 1,118,119
 172 1383 172 1383 173 1382 c 0,120,121
 176 1381 176 1381 178 1380 c 2,122,-1
 179 1379 l 1,123,124
 179 1379 179 1379 179 1379 c 1,125,126
 180 1379 180 1379 180 1378 c 0,127,128
 183 1376 183 1376 185 1375 c 2,129,-1
 187 1373 l 2,130,131
 190 1371 190 1371 193 1368 c 1,132,133
 193 1368 193 1368 193 1368 c 257,134,135
 193 1368 193 1368 193 1368 c 1,136,-1
 606 955 l 2,137,138
 630 930 630 930 631 895 c 0,139,140
 630 860 630 860 606 836 c 0,141,142
 580 811 580 811 546 811 c 1,143,-1
 546 811 l 1,144,145
 511 811 511 811 487 835 c 2,146,-1
 259 1063 l 2,147,148
 247 1073 247 1073 233 1068 c 0,149,150
 218 1060 218 1060 218 1046 c 2,151,-1
 218 131 l 2,152,153
 218 96 218 96 193 71 c 128,-1,154
 168 46 168 46 133 46 c 256,155,156
 98 46 98 46 73.5 71 c 128,-1,157
 49 96 49 96 49 131 c 2,158,-1
 49 1308 l 2,159,160
 49 1343 49 1343 73.5 1368 c 128,-1,161
 98 1393 98 1393 133 1393 c 1,95,-1
EndSplineSet
EndChar

StartChar: O
Encoding: 79 79 50
Width: 1635
GlyphClass: 2
Flags: W
LayerCount: 2
Fore
SplineSet
718 -1 m 1,0,-1
 718 -1 l 1,1,2
 916 -1 916 -1 1078.5 96 c 128,-1,3
 1241 193 1241 193 1338 356 c 128,-1,4
 1435 519 1435 519 1435 717 c 256,5,6
 1435 915 1435 915 1338 1077.5 c 128,-1,7
 1241 1240 1241 1240 1078.5 1337 c 128,-1,8
 916 1434 916 1434 718 1434 c 256,9,10
 520 1434 520 1434 357 1337 c 128,-1,11
 194 1240 194 1240 97 1077.5 c 128,-1,12
 0 915 0 915 0 717 c 256,13,14
 0 519 0 519 97 356 c 128,-1,15
 194 193 194 193 357 96 c 128,-1,16
 520 -1 520 -1 718 -1 c 1,0,-1
718 1386 m 1,17,-1
 718 1386 l 1,18,19
 902 1386 902 1386 1054 1295.5 c 128,-1,20
 1206 1205 1206 1205 1296.5 1053 c 128,-1,21
 1387 901 1387 901 1387 717 c 0,22,23
 1387 532 1387 532 1296.5 380.5 c 128,-1,24
 1206 229 1206 229 1054 138.5 c 128,-1,25
 902 48 902 48 718 48 c 0,26,27
 533 48 533 48 381 138.5 c 128,-1,28
 229 229 229 229 139 380.5 c 128,-1,29
 49 532 49 532 49 717 c 0,30,31
 49 901 49 901 139 1053 c 128,-1,32
 229 1205 229 1205 381 1295.5 c 128,-1,33
 533 1386 533 1386 718 1386 c 1,17,-1
718 217 m 1,34,-1
 718 217 l 1,35,36
 855 217 855 217 968.5 284.5 c 128,-1,37
 1082 352 1082 352 1150 465.5 c 128,-1,38
 1218 579 1218 579 1218 717 c 256,39,40
 1218 855 1218 855 1150 968.5 c 128,-1,41
 1082 1082 1082 1082 968.5 1149.5 c 128,-1,42
 855 1217 855 1217 718 1217 c 0,43,44
 580 1217 580 1217 466.5 1149.5 c 128,-1,45
 353 1082 353 1082 285.5 968.5 c 128,-1,46
 218 855 218 855 218 717 c 256,47,48
 218 579 218 579 285.5 465.5 c 128,-1,49
 353 352 353 352 466.5 284.5 c 128,-1,50
 580 217 580 217 718 217 c 1,34,-1
718 1168 m 1,51,-1
 718 1168 l 1,52,53
 842 1168 842 1168 944.5 1107 c 128,-1,54
 1047 1046 1047 1046 1108 943.5 c 128,-1,55
 1169 841 1169 841 1169 717 c 0,56,57
 1169 592 1169 592 1108 489.5 c 128,-1,58
 1047 387 1047 387 944.5 326 c 128,-1,59
 842 265 842 265 718 265 c 0,60,61
 593 265 593 265 490.5 326 c 128,-1,62
 388 387 388 387 327 489.5 c 128,-1,63
 266 592 266 592 266 717 c 0,64,65
 266 841 266 841 327 943.5 c 128,-1,66
 388 1046 388 1046 490.5 1107 c 128,-1,67
 593 1168 593 1168 718 1168 c 1,51,-1
EndSplineSet
EndChar

StartChar: P
Encoding: 80 80 51
Width: 1177
GlyphClass: 2
Flags: W
LayerCount: 2
Fore
SplineSet
134 -1 m 1,0,-1
 134 -1 l 1,1,2
 189 -1 189 -1 228 38 c 128,-1,3
 267 77 267 77 267 132 c 2,4,-1
 267 582 l 1,5,-1
 537 584 l 2,6,7
 738 584 738 584 861 708 c 1,8,9
 976 832 976 832 975 1008 c 0,10,11
 977 1125 977 1125 921 1228 c 0,12,13
 920 1230 920 1230 919 1231 c 2,14,-1
 912 1240 l 1,15,16
 878 1294 878 1294 831 1334 c 1,17,18
 735 1434 735 1434 569 1431 c 0,19,20
 552 1432 552 1432 537 1432 c 0,21,22
 533 1432 533 1432 530 1431 c 2,23,-1
 439 1431 l 2,24,25
 433 1431 433 1431 426 1431 c 2,26,-1
 240 1432 l 1,27,-1
 133 1432 l 2,28,29
 78 1432 78 1432 39 1393 c 128,-1,30
 0 1354 0 1354 0 1299 c 256,31,32
 0 1244 0 1244 40 1203.5 c 128,-1,33
 80 1163 80 1163 134 1163 c 2,34,-1
 257 1164 l 1,35,-1
 287 1164 l 2,36,37
 300 1164 300 1164 314 1164 c 0,38,39
 374 1164 374 1164 442 1164 c 128,-1,40
 510 1164 510 1164 537 1164 c 0,41,42
 603 1164 603 1164 648.5 1118.5 c 128,-1,43
 694 1073 694 1073 694 1006 c 0,44,45
 694 1003 694 1003 695 1000 c 0,46,47
 690 935 690 935 645.5 892.5 c 128,-1,48
 601 850 601 850 538 850 c 0,49,50
 507 850 507 850 426.5 850 c 128,-1,51
 346 850 346 850 287 850 c 2,52,-1
 258 850 l 1,53,-1
 135 851 l 2,54,55
 80 851 80 851 37 807 c 0,56,57
 1 767 1 767 1 716 c 2,58,-1
 1 132 l 2,59,60
 1 77 1 77 40 38 c 128,-1,61
 79 -1 79 -1 134 -1 c 1,0,-1
135 803 m 1,62,-1
 135 803 l 1,63,-1
 258 802 l 1,64,-1
 287 802 l 2,65,66
 292 802 292 802 297 802 c 0,67,68
 358 802 358 802 433.5 801.5 c 128,-1,69
 509 801 509 801 538 801 c 0,70,71
 623 801 623 801 681.5 859.5 c 128,-1,72
 740 918 740 918 743 1006 c 0,73,74
 743 1009 743 1009 742 1013 c 0,75,76
 738 1099 738 1099 679.5 1156 c 128,-1,77
 621 1213 621 1213 537 1213 c 0,78,79
 507 1213 507 1213 427 1213 c 128,-1,80
 347 1213 347 1213 287 1213 c 2,81,-1
 257 1213 l 1,82,-1
 134 1211 l 2,83,84
 99 1211 99 1211 73.5 1237 c 128,-1,85
 48 1263 48 1263 48 1299 c 0,86,87
 48 1334 48 1334 73 1359 c 128,-1,88
 98 1384 98 1384 133 1384 c 2,89,-1
 240 1383 l 1,90,-1
 427 1382 l 2,91,92
 428 1382 428 1382 430 1382 c 0,93,94
 435 1383 435 1383 439 1383 c 2,95,-1
 537 1383 l 1,96,97
 537 1383 537 1383 537 1383 c 1,98,99
 540 1383 540 1383 543 1383 c 0,100,101
 554 1383 554 1383 567 1383 c 2,102,103
 567 1383 567 1383 568 1383 c 0,104,105
 657 1382 657 1382 708.5 1360 c 128,-1,106
 760 1338 760 1338 798 1298 c 2,107,108
 798 1298 798 1298 799 1297 c 0,109,110
 842 1262 842 1262 871 1214 c 0,111,112
 872 1212 872 1212 873 1211 c 2,113,-1
 880 1203 l 1,114,115
 929 1112 929 1112 926 1009 c 0,116,117
 926 1008 926 1008 926 1007 c 0,118,119
 928 851 928 851 826 742 c 0,120,121
 720 633 720 633 536 633 c 2,122,-1
 242 631 l 2,123,124
 232 630 232 630 225 623.5 c 128,-1,125
 218 617 218 617 218 607 c 2,126,-1
 218 132 l 2,127,128
 218 97 218 97 193.5 72.5 c 128,-1,129
 169 48 169 48 134 48 c 256,130,131
 99 48 99 48 74 72.5 c 128,-1,132
 49 97 49 97 49 132 c 2,133,-1
 49 716 l 2,134,135
 49 748 49 748 72 774 c 1,136,137
 72 774 72 774 73 774 c 0,138,139
 100 803 100 803 135 803 c 1,62,-1
EndSplineSet
EndChar

StartChar: Q
Encoding: 81 81 52
Width: 1635
GlyphClass: 2
Flags: W
LayerCount: 2
Fore
SplineSet
1306 -2 m 1,0,-1
 1306 -2 l 1,1,2
 1357 -2 1357 -2 1396 36 c 0,3,4
 1435 79 1435 79 1435 130 c 128,-1,5
 1435 181 1435 181 1396 224 c 2,6,-1
 1309 311 l 1,7,8
 1435 498 1435 498 1435 718 c 0,9,10
 1435 916 1435 916 1338 1079 c 128,-1,11
 1241 1242 1241 1242 1078.5 1339 c 128,-1,12
 916 1436 916 1436 718 1436 c 256,13,14
 520 1436 520 1436 357 1339 c 128,-1,15
 194 1242 194 1242 97 1079 c 128,-1,16
 0 916 0 916 0 718 c 256,17,18
 0 520 0 520 97 357 c 128,-1,19
 194 194 194 194 357 97.5 c 128,-1,20
 520 1 520 1 718 1 c 0,21,22
 721 1 721 1 725 2 c 0,23,24
 778 5 778 5 814 43 c 128,-1,25
 850 81 850 81 850 134 c 256,26,27
 850 187 850 187 813.5 225 c 128,-1,28
 777 263 777 263 723 266 c 0,29,30
 720 267 720 267 718 267 c 0,31,32
 593 267 593 267 490.5 328 c 128,-1,33
 388 389 388 389 327 491.5 c 128,-1,34
 266 594 266 594 266 718 c 0,35,36
 266 843 266 843 327 945 c 128,-1,37
 388 1047 388 1047 490.5 1108 c 128,-1,38
 593 1169 593 1169 718 1169 c 0,39,40
 842 1169 842 1169 944.5 1108 c 128,-1,41
 1047 1047 1047 1047 1108 945 c 128,-1,42
 1169 843 1169 843 1169 718 c 0,43,44
 1169 598 1169 598 1112 496.5 c 128,-1,45
 1055 395 1055 395 952 332 c 0,46,47
 942 326 942 326 940 314 c 0,48,49
 939 310 939 310 940 306.5 c 128,-1,50
 941 303 941 303 944.5 297.5 c 128,-1,51
 948 292 948 292 957.5 282 c 128,-1,52
 967 272 967 272 983.5 256 c 128,-1,53
 1000 240 1000 240 1026 214 c 0,54,55
 1055 187 1055 187 1077.5 165 c 128,-1,56
 1100 143 1100 143 1105 138 c 1,57,58
 1105 138 1105 138 1106 138 c 2,59,-1
 1197 47 l 2,60,61
 1248 -2 1248 -2 1306 -2 c 1,62,-1
 1306 -2 l 1,0,-1
1002 307 m 1,63,-1
 1002 307 l 1,64,65
 1211 457 1211 457 1218 718 c 0,66,67
 1218 856 1218 856 1150 969.5 c 128,-1,68
 1082 1083 1082 1083 969 1150.5 c 128,-1,69
 856 1218 856 1218 718 1218 c 256,70,71
 580 1218 580 1218 466.5 1150.5 c 128,-1,72
 353 1083 353 1083 285.5 969.5 c 128,-1,73
 218 856 218 856 218 718 c 0,74,75
 218 581 218 581 285 468 c 128,-1,76
 352 355 352 355 463.5 288 c 128,-1,77
 575 221 575 221 713 218 c 0,78,79
 715 218 715 218 718 218 c 0,80,81
 752 218 752 218 777 193.5 c 128,-1,82
 802 169 802 169 802 134 c 256,83,84
 802 99 802 99 777 74.5 c 128,-1,85
 752 50 752 50 718 50 c 0,86,87
 715 50 715 50 712 49 c 0,88,89
 526 53 526 53 377 142.5 c 128,-1,90
 228 232 228 232 138.5 383.5 c 128,-1,91
 49 535 49 535 49 718 c 0,92,93
 49 903 49 903 139 1054.5 c 128,-1,94
 229 1206 229 1206 381 1296.5 c 128,-1,95
 533 1387 533 1387 718 1387 c 0,96,97
 902 1387 902 1387 1054 1296.5 c 128,-1,98
 1206 1206 1206 1206 1296.5 1054.5 c 128,-1,99
 1387 903 1387 903 1387 718 c 0,100,101
 1387 503 1387 503 1258 323 c 0,102,103
 1252 316 1252 316 1253 307 c 128,-1,104
 1254 298 1254 298 1260 292 c 2,105,-1
 1362 190 l 2,106,107
 1387 162 1387 162 1387 129.5 c 128,-1,108
 1387 97 1387 97 1362 70 c 0,109,110
 1338 46 1338 46 1306 46 c 0,111,112
 1267 46 1267 46 1231 81 c 2,113,-1
 1140 172 l 1,114,115
 1140 172 1140 172 1140 172 c 1,116,117
 1139 173 1139 173 1139 173 c 2,118,119
 1099 211 1099 211 1061.5 247.5 c 128,-1,120
 1024 284 1024 284 1002 307 c 1,63,-1
EndSplineSet
EndChar

StartChar: R
Encoding: 82 82 53
Width: 1177
GlyphClass: 2
Flags: W
LayerCount: 2
Fore
SplineSet
134 0 m 1,0,-1
 134 0 l 1,1,2
 189 0 189 0 228 39 c 128,-1,3
 267 78 267 78 267 133 c 2,4,-1
 267 584 l 1,5,-1
 537 585 l 2,6,7
 738 585 738 585 861 709 c 1,8,9
 976 833 976 833 975 1009 c 0,10,11
 977 1127 977 1127 921 1229 c 0,12,13
 920 1231 920 1231 919 1233 c 2,14,-1
 912 1241 l 1,15,16
 878 1295 878 1295 831 1335 c 1,17,18
 735 1435 735 1435 569 1432 c 0,19,20
 552 1433 552 1433 537 1433 c 0,21,22
 533 1433 533 1433 530 1432 c 2,23,-1
 439 1433 l 2,24,25
 433 1433 433 1433 426 1432 c 2,26,-1
 240 1433 l 1,27,-1
 133 1433 l 2,28,29
 78 1433 78 1433 39 1394 c 128,-1,30
 0 1355 0 1355 0 1300 c 256,31,32
 0 1245 0 1245 40 1204.5 c 128,-1,33
 80 1164 80 1164 134 1164 c 2,34,-1
 257 1165 l 1,35,-1
 287 1165 l 2,36,37
 298 1165 298 1165 311 1165 c 0,38,39
 371 1165 371 1165 440.5 1165 c 128,-1,40
 510 1165 510 1165 537 1165 c 0,41,42
 603 1165 603 1165 648.5 1119.5 c 128,-1,43
 694 1074 694 1074 694 1007 c 0,44,45
 694 1004 694 1004 695 1001 c 0,46,47
 690 936 690 936 645.5 893.5 c 128,-1,48
 601 851 601 851 538 851 c 0,49,50
 507 851 507 851 426.5 851 c 128,-1,51
 346 851 346 851 287 851 c 2,52,-1
 258 851 l 1,53,-1
 135 853 l 2,54,55
 80 853 80 853 37 808 c 0,56,57
 1 768 1 768 1 717 c 2,58,-1
 1 133 l 2,59,60
 1 78 1 78 40 39 c 128,-1,61
 79 0 79 0 134 0 c 1,0,-1
135 804 m 1,62,-1
 135 804 l 1,63,-1
 258 803 l 1,64,-1
 287 803 l 2,65,66
 346 803 346 803 426.5 803 c 128,-1,67
 507 803 507 803 538 803 c 0,68,69
 623 803 623 803 681.5 861 c 128,-1,70
 740 919 740 919 743 1007 c 0,71,72
 743 1011 743 1011 742 1014 c 0,73,74
 738 1101 738 1101 679.5 1157.5 c 128,-1,75
 621 1214 621 1214 537 1214 c 0,76,77
 510 1214 510 1214 443.5 1214 c 128,-1,78
 377 1214 377 1214 317 1214 c 0,79,80
 301 1214 301 1214 287 1214 c 2,81,-1
 257 1214 l 1,82,-1
 134 1213 l 2,83,84
 99 1213 99 1213 73.5 1239 c 128,-1,85
 48 1265 48 1265 48 1300 c 256,86,87
 48 1335 48 1335 73 1360 c 128,-1,88
 98 1385 98 1385 133 1385 c 2,89,-1
 240 1385 l 1,90,-1
 427 1383 l 2,91,92
 428 1383 428 1383 430 1383 c 0,93,94
 435 1384 435 1384 439 1384 c 2,95,-1
 537 1384 l 2,96,97
 540 1384 540 1384 543 1385 c 0,98,99
 555 1385 555 1385 567 1384 c 2,100,101
 567 1384 567 1384 568 1384 c 0,102,103
 657 1383 657 1383 708.5 1361 c 128,-1,104
 760 1339 760 1339 798 1300 c 0,105,106
 798 1299 798 1299 799 1298 c 0,107,108
 842 1263 842 1263 871 1215 c 0,109,110
 872 1213 872 1213 873 1212 c 2,111,-1
 880 1204 l 1,112,113
 929 1113 929 1113 926 1010 c 0,114,115
 926 1009 926 1009 926 1009 c 2,116,117
 928 853 928 853 826 743 c 0,118,119
 720 634 720 634 536 634 c 2,120,-1
 242 632 l 2,121,122
 232 632 232 632 225 625 c 128,-1,123
 218 618 218 618 218 608 c 2,124,-1
 218 133 l 2,125,126
 218 98 218 98 193.5 73.5 c 128,-1,127
 169 49 169 49 134 49 c 256,128,129
 99 49 99 49 74 73.5 c 128,-1,130
 49 98 49 98 49 133 c 2,131,-1
 49 717 l 2,132,133
 49 750 49 750 72 775 c 1,134,135
 72 775 72 775 72 775 c 1,136,137
 73 775 73 775 73 775 c 1,138,139
 100 804 100 804 135 804 c 1,62,-1
841 4 m 1,140,-1
 841 4 l 1,141,142
 894 4 894 4 935 43 c 1,143,144
 974 87 974 87 974 138 c 128,-1,145
 974 189 974 189 935 233 c 2,146,-1
 753 415 l 2,147,148
 712 454 712 454 658 454 c 0,149,150
 605 454 605 454 564 415 c 1,151,152
 525 372 525 372 525 320.5 c 128,-1,153
 525 269 525 269 564 226 c 2,154,-1
 746 43 l 2,155,156
 787 4 787 4 841 4 c 1,140,-1
658 406 m 1,157,-1
 658 406 l 1,158,159
 692 406 692 406 719 381 c 2,160,-1
 901 198 l 2,161,162
 926 172 926 172 926 138 c 256,163,164
 926 104 926 104 901 78 c 0,165,166
 875 53 875 53 841 53 c 256,167,168
 807 53 807 53 780 78 c 2,169,-1
 598 260 l 2,170,171
 573 286 573 286 573 320 c 256,172,173
 573 354 573 354 598 381 c 0,174,175
 624 406 624 406 658 406 c 1,157,-1
EndSplineSet
EndChar

StartChar: S
Encoding: 83 83 54
Width: 1177
GlyphClass: 2
Flags: W
LayerCount: 2
Fore
SplineSet
843 -1 m 1,0,-1
 843 -1 l 1,1,2
 898 -1 898 -1 937 38 c 128,-1,3
 976 77 976 77 976 132 c 2,4,-1
 976 716 l 2,5,6
 976 767 976 767 940 807 c 0,7,8
 897 851 897 851 842 851 c 2,9,-1
 719 850 l 1,10,-1
 688 850 l 2,11,12
 683 850 683 850 678 850 c 0,13,14
 618 850 618 850 543 850 c 128,-1,15
 468 850 468 850 440 850 c 0,16,17
 376 850 376 850 331.5 892.5 c 128,-1,18
 287 935 287 935 283 1000 c 0,19,20
 283 1003 283 1003 283 1006 c 0,21,22
 283 1073 283 1073 328.5 1118.5 c 128,-1,23
 374 1164 374 1164 440 1164 c 0,24,25
 470 1164 470 1164 547.5 1164 c 128,-1,26
 625 1164 625 1164 685 1164 c 0,27,28
 687 1164 687 1164 689 1164 c 2,29,-1
 720 1164 l 1,30,-1
 843 1163 l 2,31,32
 897 1163 897 1163 937 1203.5 c 128,-1,33
 977 1244 977 1244 977 1299 c 256,34,35
 977 1354 977 1354 938 1393 c 128,-1,36
 899 1432 899 1432 844 1432 c 2,37,-1
 737 1432 l 1,38,-1
 551 1431 l 2,39,40
 544 1431 544 1431 538 1431 c 2,41,-1
 447 1431 l 2,42,43
 444 1432 444 1432 440 1432 c 0,44,45
 425 1432 425 1432 409 1431 c 0,46,47
 242 1434 242 1434 146 1334 c 1,48,49
 99 1294 99 1294 65 1240 c 1,50,-1
 58 1232 l 2,51,52
 57 1230 57 1230 56 1228 c 0,53,54
 0 1126 0 1126 2 1008 c 0,55,56
 1 832 1 832 116 708 c 1,57,58
 240 584 240 584 440 584 c 2,59,-1
 710 583 l 1,60,-1
 710 132 l 2,61,62
 710 77 710 77 749 38 c 128,-1,63
 788 -1 788 -1 843 -1 c 1,0,-1
97 1203 m 1,64,-1
 97 1203 l 1,65,-1
 104 1211 l 2,66,67
 105 1212 105 1212 106 1214 c 0,68,69
 135 1262 135 1262 178 1297 c 0,70,71
 179 1298 179 1298 180 1298 c 0,72,73
 217 1338 217 1338 268.5 1360 c 128,-1,74
 320 1382 320 1382 409 1383 c 0,75,76
 410 1383 410 1383 410 1383 c 2,77,78
 423 1383 423 1383 434 1384 c 0,79,80
 437 1383 437 1383 440 1383 c 0,81,82
 441 1383 441 1383 441 1383 c 1,83,-1
 538 1383 l 2,84,85
 542 1383 542 1383 547 1382 c 0,86,87
 549 1382 549 1382 550 1382 c 2,88,-1
 737 1383 l 1,89,-1
 844 1384 l 2,90,91
 879 1384 879 1384 904 1359 c 128,-1,92
 929 1334 929 1334 929 1299 c 256,93,94
 929 1264 929 1264 903.5 1237.5 c 128,-1,95
 878 1211 878 1211 843 1211 c 2,96,-1
 720 1213 l 1,97,-1
 689 1213 l 2,98,99
 682 1213 682 1213 674 1213 c 0,100,101
 613 1213 613 1213 540.5 1213 c 128,-1,102
 468 1213 468 1213 440 1213 c 0,103,104
 356 1213 356 1213 297.5 1156 c 128,-1,105
 239 1099 239 1099 235 1013 c 0,106,107
 234 1010 234 1010 234 1006 c 0,108,109
 237 918 237 918 295.5 860 c 128,-1,110
 354 802 354 802 440 802 c 0,111,112
 469 802 469 802 549 802 c 128,-1,113
 629 802 629 802 688 802 c 2,114,-1
 720 802 l 1,115,-1
 842 803 l 2,116,117
 877 803 877 803 905 774 c 1,118,119
 905 774 905 774 905 774 c 257,120,121
 905 774 905 774 905 774 c 1,122,123
 928 749 928 749 928 716 c 2,124,-1
 928 132 l 2,125,126
 928 97 928 97 903 72.5 c 128,-1,127
 878 48 878 48 843 48 c 256,128,129
 808 48 808 48 783.5 72.5 c 128,-1,130
 759 97 759 97 759 132 c 2,131,-1
 759 607 l 2,132,133
 759 617 759 617 752 624 c 128,-1,134
 745 631 745 631 735 631 c 2,135,-1
 440 633 l 2,136,137
 257 633 257 633 151 742 c 0,138,139
 49 852 49 852 51 1007 c 0,140,141
 51 1008 51 1008 51 1009 c 0,142,143
 48 1112 48 1112 97 1203 c 1,64,-1
394 -4 m 1,144,-1
 394 -4 l 1,145,146
 449 -4 449 -4 488 35.5 c 128,-1,147
 527 75 527 75 527 130 c 256,148,149
 527 185 527 185 488 224.5 c 128,-1,150
 449 264 449 264 394 264 c 2,151,-1
 136 264 l 1,152,153
 136 264 136 264 136 264 c 1,154,155
 82 264 82 264 41 225 c 0,156,157
 2 184 2 184 2 130 c 0,158,159
 2 75 2 75 41 35.5 c 128,-1,160
 80 -4 80 -4 136 -4 c 2,161,-1
 394 -4 l 1,144,-1
136 215 m 1,162,-1
 136 215 l 1,163,-1
 136 215 l 1,164,-1
 394 215 l 2,165,166
 429 215 429 215 454 190 c 128,-1,167
 479 165 479 165 479 130 c 256,168,169
 479 95 479 95 454 70 c 128,-1,170
 429 45 429 45 394 45 c 2,171,-1
 136 45 l 2,172,173
 100 45 100 45 75 70 c 128,-1,174
 50 95 50 95 50 130 c 0,175,176
 50 164 50 164 75 190 c 0,177,178
 102 215 102 215 136 215 c 1,162,-1
EndSplineSet
EndChar

StartChar: T
Encoding: 84 84 55
Width: 1184
GlyphClass: 2
Flags: W
LayerCount: 2
Fore
SplineSet
852 1170 m 1,0,-1
 852 1170 l 1,1,2
 906 1170 906 1170 945 1209 c 128,-1,3
 984 1248 984 1248 984 1303 c 0,4,5
 984 1357 984 1357 945 1396 c 128,-1,6
 906 1435 906 1435 852 1435 c 2,7,-1
 132 1435 l 2,8,9
 77 1435 77 1435 38.5 1396 c 128,-1,10
 0 1357 0 1357 0 1303 c 0,11,12
 0 1248 0 1248 38.5 1209 c 128,-1,13
 77 1170 77 1170 132 1170 c 2,14,-1
 852 1170 l 1,0,-1
132 1386 m 1,15,-1
 132 1386 l 1,16,-1
 852 1386 l 2,17,18
 886 1386 886 1386 910.5 1361.5 c 128,-1,19
 935 1337 935 1337 935 1303 c 0,20,21
 935 1268 935 1268 910.5 1243.5 c 128,-1,22
 886 1219 886 1219 852 1219 c 2,23,-1
 132 1219 l 2,24,25
 97 1219 97 1219 72.5 1243.5 c 128,-1,26
 48 1268 48 1268 48 1303 c 0,27,28
 48 1337 48 1337 72.5 1361.5 c 128,-1,29
 97 1386 97 1386 132 1386 c 1,15,-1
492 -1 m 1,30,-1
 492 -1 l 1,31,32
 547 -1 547 -1 586 37.5 c 128,-1,33
 625 76 625 76 625 131 c 2,34,-1
 625 716 l 2,35,36
 625 771 625 771 586 809.5 c 128,-1,37
 547 848 547 848 492 848 c 256,38,39
 437 848 437 848 398 809.5 c 128,-1,40
 359 771 359 771 359 716 c 2,41,-1
 359 131 l 2,42,43
 359 76 359 76 398 37.5 c 128,-1,44
 437 -1 437 -1 492 -1 c 1,30,-1
492 800 m 1,45,-1
 492 800 l 1,46,47
 527 800 527 800 551.5 775.5 c 128,-1,48
 576 751 576 751 576 716 c 2,49,-1
 576 131 l 2,50,51
 576 96 576 96 551.5 71.5 c 128,-1,52
 527 47 527 47 492 47 c 256,53,54
 457 47 457 47 432 71.5 c 128,-1,55
 407 96 407 96 407 131 c 2,56,-1
 407 716 l 2,57,58
 407 751 407 751 432 775.5 c 128,-1,59
 457 800 457 800 492 800 c 1,45,-1
EndSplineSet
EndChar

StartChar: U
Encoding: 85 85 56
Width: 1185
GlyphClass: 2
Flags: W
LayerCount: 2
Fore
SplineSet
852 0 m 1,0,-1
 852 0 l 1,1,2
 907 0 907 0 946 39 c 128,-1,3
 985 78 985 78 985 133 c 2,4,-1
 985 1311 l 2,5,6
 985 1366 985 1366 946 1405 c 128,-1,7
 907 1444 907 1444 852 1444 c 256,8,9
 797 1444 797 1444 758 1405 c 128,-1,10
 719 1366 719 1366 719 1311 c 2,11,-1
 719 266 l 1,12,-1
 663 266 l 2,13,14
 608 266 608 266 569 227 c 128,-1,15
 530 188 530 188 530 133 c 256,16,17
 530 78 530 78 569 39 c 128,-1,18
 608 0 608 0 663 0 c 2,19,-1
 852 0 l 1,0,-1
663 218 m 1,20,-1
 663 218 l 1,21,-1
 744 218 l 2,22,23
 754 218 754 218 761 225 c 128,-1,24
 768 232 768 232 768 242 c 2,25,-1
 768 1311 l 2,26,27
 768 1346 768 1346 792.5 1370.5 c 128,-1,28
 817 1395 817 1395 852 1395 c 256,29,30
 887 1395 887 1395 912 1370.5 c 128,-1,31
 937 1346 937 1346 937 1311 c 2,32,-1
 937 133 l 2,33,34
 937 98 937 98 912 73.5 c 128,-1,35
 887 49 887 49 852 49 c 2,36,-1
 663 49 l 2,37,38
 628 49 628 49 603.5 73.5 c 128,-1,39
 579 98 579 98 579 133 c 256,40,41
 579 168 579 168 603.5 193 c 128,-1,42
 628 218 628 218 663 218 c 1,20,-1
322 0 m 1,43,-1
 322 0 l 1,44,45
 377 0 377 0 416 39 c 128,-1,46
 455 78 455 78 455 133 c 256,47,48
 455 188 455 188 416 227 c 128,-1,49
 377 266 377 266 322 266 c 2,50,-1
 266 266 l 1,51,-1
 266 1311 l 2,52,53
 266 1366 266 1366 227 1405 c 128,-1,54
 188 1444 188 1444 133 1444 c 256,55,56
 78 1444 78 1444 39 1405 c 128,-1,57
 0 1366 0 1366 0 1311 c 2,58,-1
 0 133 l 2,59,60
 0 78 0 78 39 39 c 128,-1,61
 78 0 78 0 133 0 c 2,62,-1
 322 0 l 1,43,-1
133 1395 m 1,63,-1
 133 1395 l 1,64,65
 168 1395 168 1395 192.5 1370.5 c 128,-1,66
 217 1346 217 1346 217 1311 c 2,67,-1
 217 242 l 2,68,69
 217 232 217 232 224 225 c 128,-1,70
 231 218 231 218 242 218 c 2,71,-1
 322 218 l 2,72,73
 357 218 357 218 382 193 c 128,-1,74
 407 168 407 168 407 133 c 256,75,76
 407 98 407 98 382 73.5 c 128,-1,77
 357 49 357 49 322 49 c 2,78,-1
 133 49 l 2,79,80
 98 49 98 49 73 73.5 c 128,-1,81
 48 98 48 98 48 133 c 2,82,-1
 48 1311 l 2,83,84
 48 1346 48 1346 73 1370.5 c 128,-1,85
 98 1395 98 1395 133 1395 c 1,63,-1
EndSplineSet
EndChar

StartChar: V
Encoding: 86 86 57
Width: 1551
GlyphClass: 2
Flags: W
LayerCount: 2
Fore
SplineSet
675 1 m 1,0,-1
 675 1 l 1,1,2
 695 1 695 1 714 7 c 0,3,4
 715 7 715 7 716 7 c 0,5,6
 721 9 721 9 725 11 c 0,7,8
 726 11 726 11 727 12 c 1,9,-1
 727 12 l 1,10,11
 728 12 728 12 730 13 c 0,12,13
 734 15 734 15 738 18 c 2,14,-1
 739 18 l 1,15,16
 750 25 750 25 760 33 c 0,17,18
 785 54 785 54 798 83 c 2,19,-1
 1329 1253 l 2,20,21
 1351 1302 1351 1302 1332 1352 c 256,22,23
 1313 1402 1313 1402 1264 1424 c 0,24,25
 1238 1436 1238 1436 1211 1436 c 0,26,27
 1173 1436 1173 1436 1141 1415.5 c 128,-1,28
 1109 1395 1109 1395 1092 1359 c 2,29,-1
 675 441 l 1,30,-1
 258 1359 l 2,31,32
 242 1395 242 1395 210 1415.5 c 128,-1,33
 178 1436 178 1436 139 1436 c 0,34,35
 112 1436 112 1436 86 1424 c 0,36,37
 38 1402 38 1402 18 1352 c 0,38,39
 0 1302 0 1302 21 1253 c 2,40,-1
 552 83 l 2,41,42
 566 53 566 53 593 32 c 0,43,44
 596 28 596 28 600 25 c 0,45,46
 601 25 601 25 601 25 c 257,47,48
 601 25 601 25 601 25 c 1,49,-1
 601 25 l 1,50,51
 605 22 605 22 608 20 c 256,52,53
 611 18 611 18 614 17 c 0,54,55
 616 16 616 16 617 15 c 2,56,-1
 619 14 l 2,57,58
 621 13 621 13 623 12 c 256,59,60
 625 11 625 11 626 11 c 0,61,62
 627 10 627 10 629 10 c 2,63,-1
 631 9 l 2,64,65
 634 8 634 8 637 7 c 0,66,67
 656 1 656 1 675 1 c 1,0,-1
643 56 m 1,68,-1
 643 56 l 1,69,70
 643 56 643 56 643 56 c 1,71,72
 642 56 642 56 642 57 c 1,73,74
 641 57 641 57 640 58 c 2,75,-1
 639 58 l 1,76,77
 639 58 639 58 638 59 c 1,78,79
 638 59 638 59 638 59 c 1,80,81
 636 60 636 60 634 61 c 0,82,83
 632 63 632 63 630 64 c 2,84,85
 630 64 630 64 629 64 c 1,86,87
 629 64 629 64 629 64 c 129,-1,88
 629 64 629 64 629 64 c 1,89,90
 629 65 629 65 629 65 c 2,91,92
 627 66 627 66 624 69 c 2,93,94
 624 69 624 69 623 69 c 0,95,96
 606 83 606 83 597 103 c 2,97,-1
 65 1273 l 2,98,99
 52 1303 52 1303 63 1335 c 0,100,101
 76 1366 76 1366 106 1380 c 0,102,103
 122 1387 122 1387 139 1387 c 0,104,105
 187 1387 187 1387 214 1339 c 1,106,-1
 653 372 l 2,107,108
 661 358 661 358 675 358 c 256,109,110
 689 358 689 358 697 372 c 2,111,-1
 1137 1339 l 2,112,113
 1163 1387 1163 1387 1211 1387 c 0,114,115
 1228 1387 1228 1387 1244 1380 c 0,116,117
 1275 1366 1275 1366 1287 1335 c 0,118,119
 1298 1303 1298 1303 1285 1273 c 2,120,-1
 754 103 l 2,121,122
 745 84 745 84 728 70 c 1,123,124
 728 70 728 70 727 70 c 0,125,126
 722 64 722 64 714 60 c 1,127,128
 714 60 714 60 714 60 c 129,-1,129
 714 60 714 60 714 60 c 129,-1,130
 714 60 714 60 714 60 c 129,-1,131
 714 60 714 60 714 60 c 1,132,133
 711 58 711 58 708 57 c 0,134,135
 708 56 708 56 707 56 c 2,136,137
 707 56 707 56 706 56 c 1,138,139
 706 56 706 56 706 56 c 1,140,141
 703 55 703 55 700 53 c 0,142,143
 699 53 699 53 699 53 c 1,144,145
 675 46 675 46 651 53 c 0,146,147
 650 53 650 53 649 54 c 2,148,149
 649 54 649 54 648 54 c 2,150,-1
 644 56 l 1,151,152
 644 56 644 56 643 56 c 1,68,-1
EndSplineSet
EndChar

StartChar: W
Encoding: 87 87 58
Width: 2250
GlyphClass: 2
Flags: W
LayerCount: 2
Fore
SplineSet
1375 -2 m 1,0,-1
 1375 -2 l 1,1,2
 1395 -2 1395 -2 1414 4 c 0,3,4
 1415 4 1415 4 1415 5 c 0,5,6
 1420 6 1420 6 1425 8 c 0,7,8
 1426 9 1426 9 1427 9 c 1,9,-1
 1427 9 l 1,10,11
 1428 10 1428 10 1429 10 c 0,12,13
 1434 12 1434 12 1438 15 c 2,14,-1
 1439 16 l 2,15,16
 1450 22 1450 22 1459 31 c 0,17,18
 1485 51 1485 51 1498 80 c 2,19,-1
 2029 1250 l 2,20,21
 2050 1299 2050 1299 2032 1349 c 0,22,23
 2012 1399 2012 1399 1964 1422 c 0,24,25
 1938 1433 1938 1433 1911 1433 c 0,26,27
 1872 1433 1872 1433 1840 1412.5 c 128,-1,28
 1808 1392 1808 1392 1792 1357 c 2,29,-1
 1375 438 l 1,30,-1
 1168 894 l 1,31,-1
 1329 1250 l 2,32,33
 1351 1299 1351 1299 1332 1349 c 256,34,35
 1313 1399 1313 1399 1264 1422 c 0,36,37
 1239 1433 1239 1433 1211 1433 c 0,38,39
 1173 1433 1173 1433 1141 1412.5 c 128,-1,40
 1109 1392 1109 1392 1092 1357 c 2,41,-1
 675 438 l 1,42,-1
 258 1357 l 2,43,44
 242 1392 242 1392 210 1412.5 c 128,-1,45
 178 1433 178 1433 139 1433 c 0,46,47
 112 1433 112 1433 86 1422 c 0,48,49
 38 1399 38 1399 18 1349 c 0,50,51
 0 1299 0 1299 21 1250 c 2,52,-1
 552 80 l 2,53,54
 566 50 566 50 593 29 c 0,55,56
 597 26 597 26 600 23 c 0,57,58
 601 23 601 23 601 22 c 1,59,60
 601 22 601 22 601 22 c 1,61,-1
 601 22 l 1,62,63
 605 20 605 20 608 17 c 0,64,65
 611 16 611 16 614 14 c 0,66,67
 616 13 616 13 617 12 c 2,68,-1
 619 11 l 2,69,70
 621 10 621 10 623 9 c 256,71,72
 625 8 625 8 626 8 c 0,73,74
 627 7 627 7 629 7 c 2,75,-1
 631 6 l 2,76,77
 634 5 634 5 637 4 c 0,78,79
 676 -8 676 -8 714 4 c 0,80,81
 715 4 715 4 716 5 c 0,82,83
 721 6 721 6 725 8 c 0,84,85
 726 9 726 9 727 9 c 1,86,-1
 727 9 l 1,87,88
 728 10 728 10 730 10 c 0,89,90
 734 12 734 12 738 15 c 2,91,-1
 740 16 l 2,92,93
 750 22 750 22 760 31 c 0,94,95
 785 51 785 51 798 80 c 2,96,-1
 1025 580 l 1,97,-1
 1252 80 l 2,98,99
 1266 50 1266 50 1292 29 c 0,100,101
 1296 26 1296 26 1300 23 c 2,102,103
 1300 23 1300 23 1301 22 c 1,104,105
 1301 22 1301 22 1301 22 c 1,106,-1
 1301 22 l 1,107,108
 1304 20 1304 20 1308 17 c 0,109,110
 1311 16 1311 16 1314 14 c 0,111,112
 1315 13 1315 13 1317 12 c 2,113,-1
 1319 11 l 2,114,115
 1321 10 1321 10 1323 9 c 0,116,117
 1324 8 1324 8 1326 8 c 0,118,119
 1327 7 1327 7 1328 7 c 2,120,-1
 1331 6 l 2,121,122
 1334 5 1334 5 1337 4 c 0,123,124
 1355 -2 1355 -2 1375 -2 c 1,0,-1
1343 53 m 1,125,-1
 1343 53 l 1,126,127
 1343 54 1343 54 1342 54 c 1,128,129
 1342 54 1342 54 1342 54 c 1,130,131
 1341 54 1341 54 1340 55 c 2,132,-1
 1339 55 l 1,133,134
 1339 56 1339 56 1338 56 c 2,135,136
 1338 56 1338 56 1337 56 c 0,137,138
 1336 57 1336 57 1334 58 c 0,139,140
 1332 60 1332 60 1329 61 c 2,141,142
 1329 61 1329 61 1329 61.5 c 128,-1,143
 1329 62 1329 62 1329 62 c 257,144,145
 1329 62 1329 62 1329 62 c 129,-1,146
 1329 62 1329 62 1329 62 c 1,147,148
 1326 64 1326 64 1324 66 c 0,149,150
 1323 66 1323 66 1323 67 c 0,151,152
 1305 81 1305 81 1296 100 c 2,153,-1
 1047 649 l 2,154,155
 1039 663 1039 663 1025 663 c 256,156,157
 1011 663 1011 663 1003 649 c 2,158,-1
 754 100 l 2,159,160
 745 81 745 81 729 68 c 0,161,162
 728 67 728 67 728 67 c 2,163,164
 722 62 722 62 714 57 c 1,165,166
 714 57 714 57 714 57 c 257,167,168
 714 57 714 57 714 57 c 129,-1,169
 714 57 714 57 714 57 c 129,-1,170
 714 57 714 57 714 57 c 1,171,172
 711 55 711 55 708 54 c 2,173,174
 708 54 708 54 707 53 c 2,175,176
 707 53 707 53 706 53 c 0,177,178
 704 52 704 52 700 51 c 0,179,180
 700 50 700 50 699 50 c 0,181,182
 675 43 675 43 651 50 c 0,183,184
 650 51 650 51 649 51 c 2,185,186
 649 51 649 51 648 51 c 2,187,-1
 645 53 l 2,188,189
 644 53 644 53 643 53 c 1,190,191
 643 54 643 54 643 54 c 1,192,193
 642 54 642 54 642 54 c 257,194,195
 642 54 642 54 642 54 c 1,196,197
 641 54 641 54 640 55 c 2,198,-1
 639 55 l 1,199,200
 639 56 639 56 639 56 c 1,201,202
 638 56 638 56 638 56 c 2,203,204
 636 57 636 57 634 58 c 0,205,206
 632 60 632 60 630 61 c 2,207,208
 630 61 630 61 630 62 c 1,209,210
 629 62 629 62 629 62 c 129,-1,211
 629 62 629 62 629 62 c 1,212,213
 627 64 627 64 624 66 c 2,214,215
 624 66 624 66 623 67 c 0,216,217
 606 81 606 81 597 100 c 2,218,-1
 65 1270 l 2,219,220
 52 1301 52 1301 64 1332 c 256,221,222
 76 1363 76 1363 106 1377 c 0,223,224
 122 1385 122 1385 139 1385 c 0,225,226
 187 1385 187 1385 214 1337 c 1,227,-1
 653 369 l 2,228,229
 661 355 661 355 675 355 c 256,230,231
 689 355 689 355 697 369 c 2,232,-1
 1137 1337 l 2,233,234
 1163 1385 1163 1385 1211 1385 c 0,235,236
 1228 1385 1228 1385 1244 1377 c 0,237,238
 1275 1363 1275 1363 1287 1332 c 0,239,240
 1298 1301 1298 1301 1285 1270 c 2,241,-1
 1119 904 l 2,242,243
 1115 894 1115 894 1119 884 c 2,244,-1
 1353 369 l 2,245,246
 1361 355 1361 355 1375 355 c 256,247,248
 1389 355 1389 355 1397 369 c 2,249,-1
 1836 1337 l 1,250,251
 1863 1385 1863 1385 1911 1385 c 0,252,253
 1928 1385 1928 1385 1944 1377 c 0,254,255
 1974 1363 1974 1363 1987 1332 c 0,256,257
 1998 1301 1998 1301 1985 1270 c 2,258,-1
 1453 100 l 2,259,260
 1445 81 1445 81 1428 68 c 0,261,262
 1428 67 1428 67 1427 67 c 0,263,264
 1421 62 1421 62 1414 57 c 1,265,266
 1414 57 1414 57 1414 57 c 129,-1,267
 1414 57 1414 57 1414 57 c 257,268,269
 1414 57 1414 57 1414 57 c 129,-1,270
 1414 57 1414 57 1414 57 c 1,271,272
 1411 55 1411 55 1408 54 c 0,273,274
 1407 54 1407 54 1407 53 c 1,275,276
 1406 53 1406 53 1406 53 c 2,277,278
 1403 52 1403 52 1400 51 c 0,279,280
 1399 50 1399 50 1398 50 c 0,281,282
 1375 43 1375 43 1351 50 c 0,283,284
 1350 51 1350 51 1349 51 c 256,285,286
 1348 51 1348 51 1348 51 c 1,287,-1
 1344 53 l 1,288,289
 1344 53 1344 53 1343 53 c 1,125,-1
EndSplineSet
EndChar

StartChar: X
Encoding: 88 88 59
Width: 1402
GlyphClass: 2
Flags: W
LayerCount: 2
Fore
SplineSet
138 1 m 1,0,-1
 138 1 l 1,1,2
 199 1 199 1 242 52 c 2,3,-1
 1168 1224 l 2,4,5
 1202 1270 1202 1270 1195.5 1322.5 c 128,-1,6
 1189 1375 1189 1375 1146 1411 c 0,7,8
 1108 1440 1108 1440 1064 1440 c 0,9,10
 1002 1440 1002 1440 959 1389 c 2,11,-1
 601 935 l 1,12,-1
 242 1389 l 2,13,14
 199 1440 199 1440 138 1440 c 0,15,16
 93 1440 93 1440 56 1411 c 0,17,18
 12 1375 12 1375 6 1322.5 c 128,-1,19
 0 1270 0 1270 34 1224 c 2,20,-1
 431 720 l 1,21,-1
 34 217 l 2,22,23
 0 171 0 171 6 118.5 c 128,-1,24
 12 66 12 66 56 30 c 0,25,26
 92 2 92 2 138 1 c 1,27,-1
 138 1 l 1,0,-1
138 1391 m 1,28,-1
 138 1391 l 1,29,30
 177 1391 177 1391 204 1359 c 2,31,-1
 582 881 l 2,32,33
 590 872 590 872 601 872 c 256,34,35
 612 872 612 872 620 881 c 2,36,-1
 997 1359 l 2,37,38
 1025 1391 1025 1391 1064 1391 c 0,39,40
 1092 1391 1092 1391 1116 1373 c 0,41,42
 1144 1350 1144 1350 1147.5 1316.5 c 128,-1,43
 1151 1283 1151 1283 1130 1254 c 2,44,-1
 204 82 l 2,45,46
 177 50 177 50 138 50 c 1,47,-1
 138 50 l 1,48,49
 109 50 109 50 86 68 c 0,50,51
 58 91 58 91 54 124.5 c 128,-1,52
 50 158 50 158 72 187 c 2,53,-1
 481 705 l 2,54,55
 486 713 486 713 486 720.5 c 128,-1,56
 486 728 486 728 481 736 c 2,57,-1
 72 1254 l 2,58,59
 50 1283 50 1283 54 1316.5 c 128,-1,60
 58 1350 58 1350 86 1373 c 0,61,62
 109 1391 109 1391 138 1391 c 1,28,-1
1063 0 m 1,63,-1
 1063 0 l 1,64,65
 1108 0 1108 0 1146 30 c 0,66,67
 1189 65 1189 65 1196 119 c 0,68,69
 1201 174 1201 174 1168 218 c 2,70,-1
 1007 419 l 2,71,72
 964 470 964 470 902 470 c 0,73,74
 857 470 857 470 819 441 c 0,75,76
 776 406 776 406 769 351 c 0,77,78
 764 296 764 296 798 253 c 2,79,-1
 958 51 l 2,80,81
 999 2 999 2 1063 0 c 1,82,-1
 1063 0 l 1,63,-1
902 421 m 1,83,-1
 902 421 l 1,84,85
 941 421 941 421 969 389 c 2,86,-1
 1130 187 l 2,87,88
 1151 160 1151 160 1148 125 c 0,89,90
 1143 90 1143 90 1116 68 c 0,91,92
 1092 49 1092 49 1063 49 c 1,93,-1
 1063 49 l 1,94,95
 1022 50 1022 50 996 81 c 2,96,-1
 836 283 l 2,97,98
 814 310 814 310 817 345 c 0,99,100
 822 380 822 380 849 403 c 0,101,102
 873 421 873 421 902 421 c 1,83,-1
EndSplineSet
EndChar

StartChar: Y
Encoding: 89 89 60
Width: 1402
GlyphClass: 2
Flags: W
LayerCount: 2
Fore
SplineSet
601 591 m 1,0,-1
 601 591 l 1,1,2
 669 591 669 591 712 647 c 2,3,-1
 1168 1225 l 1,4,5
 1168 1225 1168 1225 1168 1225 c 1,6,7
 1169 1225 1169 1225 1169 1225 c 1,8,9
 1202 1270 1202 1270 1196 1323 c 0,10,11
 1190 1375 1190 1375 1147 1411 c 0,12,13
 1146 1411 1146 1411 1146 1412 c 0,14,15
 1101 1445 1101 1445 1048 1439 c 0,16,17
 996 1433 996 1433 960 1390 c 1,18,19
 960 1390 960 1390 960 1390 c 257,20,21
 960 1390 960 1390 959 1389 c 2,22,-1
 601 935 l 1,23,-1
 243 1389 l 2,24,25
 242 1390 242 1390 242 1390 c 1,26,27
 206 1433 206 1433 154 1439 c 0,28,29
 101 1445 101 1445 56 1412 c 0,30,31
 56 1411 56 1411 55 1411 c 0,32,33
 12 1375 12 1375 6 1323 c 0,34,35
 0 1270 0 1270 33 1225 c 1,36,37
 33 1225 33 1225 34 1225 c 1,38,39
 34 1225 34 1225 34 1225 c 1,40,-1
 490 647 l 2,41,42
 533 591 533 591 601 591 c 1,0,-1
72 1254 m 1,43,-1
 72 1254 l 1,44,45
 50 1284 50 1284 54 1317 c 256,46,47
 58 1350 58 1350 86 1373 c 0,48,49
 115 1395 115 1395 148 1391 c 256,50,51
 181 1387 181 1387 205 1359 c 2,52,-1
 582 881 l 2,53,54
 590 872 590 872 601 872 c 256,55,56
 612 872 612 872 620 881 c 2,57,-1
 997 1359 l 2,58,59
 1021 1387 1021 1387 1054 1391 c 256,60,61
 1087 1395 1087 1395 1116 1373 c 0,62,63
 1144 1350 1144 1350 1148 1317 c 256,64,65
 1152 1284 1152 1284 1130 1254 c 2,66,-1
 674 677 l 1,67,68
 674 677 674 677 674 676 c 1,69,70
 674 676 674 676 673 676 c 0,71,72
 646 639 646 639 601 639 c 256,73,74
 556 639 556 639 528 676 c 0,75,76
 528 677 528 677 528 677 c 1,77,-1
 72 1254 l 1,43,-1
601 -1 m 1,78,-1
 601 -1 l 1,79,80
 656 -1 656 -1 696 39 c 0,81,82
 735 78 735 78 735 133 c 2,83,-1
 735 391 l 2,84,85
 735 446 735 446 696 486 c 0,86,87
 656 525 656 525 601 525 c 256,88,89
 546 525 546 525 506 486 c 0,90,91
 467 446 467 446 467 391 c 2,92,-1
 467 133 l 2,93,94
 467 78 467 78 506 38 c 0,95,96
 546 -1 546 -1 601 -1 c 1,78,-1
601 476 m 1,97,-1
 601 476 l 1,98,99
 637 476 637 476 661 451 c 0,100,101
 686 427 686 427 686 391 c 2,102,-1
 686 133 l 2,103,104
 686 98 686 98 661 73 c 0,105,106
 637 48 637 48 601 48 c 256,107,108
 565 48 565 48 541 73 c 0,109,110
 516 98 516 98 516 133 c 2,111,-1
 516 391 l 2,112,113
 516 427 516 427 541 451 c 0,114,115
 565 476 565 476 601 476 c 1,97,-1
EndSplineSet
EndChar

StartChar: Z
Encoding: 90 90 61
Width: 1402
GlyphClass: 2
Flags: W
LayerCount: 2
Fore
SplineSet
1064 -1 m 1,0,-1
 1064 -1 l 1,1,2
 1119 -1 1119 -1 1158 38 c 128,-1,3
 1197 77 1197 77 1197 132 c 256,4,5
 1197 187 1197 187 1158 226 c 128,-1,6
 1119 265 1119 265 1064 265 c 2,7,-1
 412 265 l 1,8,-1
 1168 1223 l 2,9,10
 1202 1268 1202 1268 1195.5 1321 c 128,-1,11
 1189 1374 1189 1374 1146 1410 c 0,12,13
 1108 1438 1108 1438 1064 1438 c 0,14,15
 1002 1438 1002 1438 959 1388 c 2,16,-1
 33 215 l 2,17,18
 0 170 0 170 6 117 c 128,-1,19
 12 64 12 64 55 28 c 0,20,21
 89 2 89 2 132 0 c 0,22,23
 141 -1 141 -1 151 -1 c 2,24,-1
 1064 -1 l 1,0,-1
1064 1390 m 1,25,-1
 1064 1390 l 1,26,27
 1092 1390 1092 1390 1116 1372 c 0,28,29
 1143 1349 1143 1349 1147 1315.5 c 128,-1,30
 1151 1282 1151 1282 1130 1253 c 2,31,-1
 342 255 l 2,32,33
 334 243 334 243 340 230 c 0,34,35
 347 216 347 216 361 216 c 2,36,-1
 1064 216 l 2,37,38
 1098 216 1098 216 1123 191.5 c 128,-1,39
 1148 167 1148 167 1148 132 c 256,40,41
 1148 97 1148 97 1123 72 c 128,-1,42
 1098 47 1098 47 1064 47 c 2,43,-1
 151 47 l 2,44,45
 144 47 144 47 138 48 c 0,46,47
 136 48 136 48 135 48 c 0,48,49
 107 49 107 49 85 66 c 0,50,51
 58 89 58 89 54 122.5 c 128,-1,52
 50 156 50 156 72 185 c 2,53,-1
 997 1358 l 2,54,55
 1024 1390 1024 1390 1064 1390 c 1,25,-1
396 1171 m 1,56,-1
 396 1171 l 1,57,58
 452 1171 452 1171 491 1210 c 128,-1,59
 530 1249 530 1249 530 1305 c 0,60,61
 530 1360 530 1360 491 1399 c 128,-1,62
 452 1438 452 1438 396 1438 c 2,63,-1
 139 1438 l 2,64,65
 83 1438 83 1438 44 1399 c 128,-1,66
 5 1360 5 1360 5 1305 c 0,67,68
 5 1249 5 1249 44 1210 c 128,-1,69
 83 1171 83 1171 139 1171 c 2,70,-1
 396 1171 l 1,56,-1
139 1390 m 1,71,-1
 139 1390 l 1,72,-1
 396 1390 l 2,73,74
 432 1390 432 1390 457 1365 c 128,-1,75
 482 1340 482 1340 482 1305 c 0,76,77
 482 1269 482 1269 457 1244 c 128,-1,78
 432 1219 432 1219 396 1219 c 2,79,-1
 139 1219 l 2,80,81
 103 1219 103 1219 78 1244 c 128,-1,82
 53 1269 53 1269 53 1305 c 0,83,84
 53 1340 53 1340 78 1365 c 128,-1,85
 103 1390 103 1390 139 1390 c 1,71,-1
EndSplineSet
EndChar

StartChar: bracketleft
Encoding: 91 91 62
Width: 655
GlyphClass: 2
Flags: W
LayerCount: 2
Fore
SplineSet
322 -127 m 1,0,-1
 322 -127 l 1,1,2
 377 -127 377 -127 416 -88 c 128,-1,3
 455 -49 455 -49 455 6 c 256,4,5
 455 61 455 61 416 100 c 128,-1,6
 377 139 377 139 322 139 c 2,7,-1
 266 139 l 1,8,-1
 266 1296 l 1,9,-1
 322 1296 l 2,10,11
 377 1296 377 1296 416 1335 c 128,-1,12
 455 1374 455 1374 455 1429 c 256,13,14
 455 1484 455 1484 416 1523 c 128,-1,15
 377 1562 377 1562 322 1562 c 2,16,-1
 133 1562 l 2,17,18
 78 1562 78 1562 39 1523 c 128,-1,19
 0 1484 0 1484 0 1429 c 2,20,-1
 0 6 l 2,21,22
 0 -49 0 -49 39 -88 c 128,-1,23
 78 -127 78 -127 133 -127 c 2,24,-1
 322 -127 l 1,0,-1
133 1513 m 1,25,-1
 133 1513 l 1,26,-1
 322 1513 l 2,27,28
 357 1513 357 1513 381.5 1488.5 c 128,-1,29
 406 1464 406 1464 406 1429 c 256,30,31
 406 1394 406 1394 381.5 1369 c 128,-1,32
 357 1344 357 1344 322 1344 c 2,33,-1
 242 1344 l 2,34,35
 231 1344 231 1344 224 1337 c 128,-1,36
 217 1330 217 1330 217 1320 c 2,37,-1
 217 114 l 2,38,39
 217 104 217 104 224 97 c 128,-1,40
 231 90 231 90 242 90 c 2,41,-1
 322 90 l 2,42,43
 357 90 357 90 381.5 65.5 c 128,-1,44
 406 41 406 41 406 6 c 256,45,46
 406 -29 406 -29 381.5 -54 c 128,-1,47
 357 -79 357 -79 322 -79 c 2,48,-1
 133 -79 l 2,49,50
 98 -79 98 -79 73 -54 c 128,-1,51
 48 -29 48 -29 48 6 c 2,52,-1
 48 1429 l 2,53,54
 48 1464 48 1464 73 1488.5 c 128,-1,55
 98 1513 98 1513 133 1513 c 1,25,-1
EndSplineSet
EndChar

StartChar: backslash
Encoding: 92 92 63
Width: 1136
GlyphClass: 2
Flags: W
LayerCount: 2
Fore
SplineSet
793 -138 m 1,0,-1
 793 -138 l 1,1,2
 821 -138 821 -138 848 -126 c 0,3,4
 898 -101 898 -101 917 -51.5 c 128,-1,5
 936 -2 936 -2 914 50 c 2,6,-1
 885 112 l 2,7,8
 884 115 884 115 883 118 c 2,9,-1
 264 1478 l 2,10,11
 247 1514 247 1514 214.5 1535 c 128,-1,12
 182 1556 182 1556 143 1556 c 0,13,14
 114 1556 114 1556 88 1544 c 0,15,16
 37 1519 37 1519 18.5 1469.5 c 128,-1,17
 0 1420 0 1420 22 1368 c 2,18,-1
 50 1306 l 2,19,20
 51 1303 51 1303 52 1300 c 2,21,-1
 671 -60 l 2,22,23
 709 -134 709 -134 793 -138 c 1,24,25
 793 -138 793 -138 793 -138 c 1,0,-1
143 1507 m 1,26,-1
 143 1507 l 1,27,28
 192 1507 192 1507 220 1458 c 1,29,-1
 839 98 l 2,30,31
 840 96 840 96 840 94 c 0,32,33
 841 93 841 93 841 93 c 1,34,-1
 869 30 l 2,35,36
 883 -3 883 -3 871.5 -34.5 c 128,-1,37
 860 -66 860 -66 827 -82 c 0,38,39
 811 -89 811 -89 793 -89 c 1,40,-1
 793 -89 l 1,41,42
 740 -87 740 -87 716 -40 c 2,43,-1
 97 1320 l 2,44,45
 96 1322 96 1322 95 1324 c 0,46,47
 95 1325 95 1325 94 1325 c 2,48,-1
 66 1388 l 2,49,50
 52 1421 52 1421 63.5 1452.5 c 128,-1,51
 75 1484 75 1484 108 1500 c 0,52,53
 125 1507 125 1507 143 1507 c 1,26,-1
EndSplineSet
EndChar

StartChar: bracketright
Encoding: 93 93 64
Width: 655
GlyphClass: 2
Flags: W
LayerCount: 2
Fore
SplineSet
322 -126 m 1,0,-1
 322 -126 l 1,1,2
 377 -126 377 -126 416 -87 c 128,-1,3
 455 -48 455 -48 455 7 c 2,4,-1
 455 1430 l 2,5,6
 455 1485 455 1485 416 1524 c 128,-1,7
 377 1563 377 1563 322 1563 c 2,8,-1
 133 1563 l 2,9,10
 78 1563 78 1563 39 1524 c 128,-1,11
 0 1485 0 1485 0 1430 c 256,12,13
 0 1375 0 1375 39 1336 c 128,-1,14
 78 1297 78 1297 133 1297 c 2,15,-1
 189 1297 l 1,16,-1
 189 140 l 1,17,-1
 133 140 l 2,18,19
 78 140 78 140 39 101 c 128,-1,20
 0 62 0 62 0 7 c 256,21,22
 0 -48 0 -48 39 -87 c 128,-1,23
 78 -126 78 -126 133 -126 c 2,24,-1
 322 -126 l 1,0,-1
133 92 m 1,25,-1
 133 92 l 1,26,-1
 213 92 l 2,27,28
 223 92 223 92 230 99 c 128,-1,29
 237 106 237 106 237 116 c 2,30,-1
 237 1321 l 2,31,32
 237 1331 237 1331 230 1338.5 c 128,-1,33
 223 1346 223 1346 213 1346 c 2,34,-1
 133 1346 l 2,35,36
 98 1346 98 1346 73 1370.5 c 128,-1,37
 48 1395 48 1395 48 1430 c 256,38,39
 48 1465 48 1465 73 1490 c 128,-1,40
 98 1515 98 1515 133 1515 c 2,41,-1
 322 1515 l 2,42,43
 357 1515 357 1515 381.5 1490 c 128,-1,44
 406 1465 406 1465 406 1430 c 2,45,-1
 406 7 l 2,46,47
 406 -28 406 -28 381.5 -52.5 c 128,-1,48
 357 -77 357 -77 322 -77 c 2,49,-1
 133 -77 l 2,50,51
 98 -77 98 -77 73 -52.5 c 128,-1,52
 48 -28 48 -28 48 7 c 256,53,54
 48 42 48 42 73 67 c 128,-1,55
 98 92 98 92 133 92 c 1,25,-1
EndSplineSet
EndChar

StartChar: asciicircum
Encoding: 94 94 65
Width: 1402
GlyphClass: 2
Flags: W
LayerCount: 2
Fore
SplineSet
1064 583 m 1,0,-1
 1064 583 l 1,1,2
 1109 583 1109 583 1146 611 c 0,3,4
 1190 648 1190 648 1196 700.5 c 128,-1,5
 1202 753 1202 753 1168 798 c 2,6,-1
 712 1377 l 2,7,8
 667 1434 667 1434 601 1434 c 0,9,10
 548 1434 548 1434 508 1397 c 0,11,12
 505 1395 505 1395 502 1392 c 2,13,-1
 500 1389 l 2,14,15
 495 1383 495 1383 490 1377 c 2,16,-1
 34 798 l 2,17,18
 0 753 0 753 6 700.5 c 128,-1,19
 12 648 12 648 56 611 c 0,20,21
 93 583 93 583 138 583 c 1,22,-1
 138 583 l 1,23,24
 200 583 200 583 243 633 c 2,25,-1
 601 1087 l 1,26,-1
 959 633 l 2,27,28
 1002 583 1002 583 1064 583 c 1,0,-1
601 1151 m 1,29,-1
 601 1151 l 1,30,31
 590 1151 590 1151 582 1142 c 2,32,-1
 204 663 l 2,33,34
 177 631 177 631 138 631 c 1,35,-1
 138 631 l 1,36,37
 109 631 109 631 86 650 c 0,38,39
 58 672 58 672 54 705.5 c 128,-1,40
 50 739 50 739 72 768 c 2,41,-1
 529 1347 l 2,42,43
 529 1348 529 1348 530 1348 c 0,44,45
 533 1353 533 1353 537 1357 c 0,46,47
 537 1358 537 1358 538 1358 c 1,48,-1
 538 1359 l 1,49,50
 539 1359 539 1359 539 1360 c 0,51,52
 566 1386 566 1386 601 1386 c 0,53,54
 644 1386 644 1386 672 1348 c 0,55,56
 673 1348 673 1348 673 1347 c 2,57,-1
 1130 768 l 2,58,59
 1152 739 1152 739 1148 705.5 c 128,-1,60
 1144 672 1144 672 1116 650 c 0,61,62
 1093 631 1093 631 1064 631 c 0,63,64
 1025 631 1025 631 998 663 c 2,65,-1
 620 1142 l 2,66,67
 612 1151 612 1151 601 1151 c 1,29,-1
EndSplineSet
EndChar

StartChar: underscore
Encoding: 95 95 66
Width: 1184
GlyphClass: 2
Flags: W
LayerCount: 2
Fore
SplineSet
852 -264 m 1,0,-1
 852 -264 l 1,1,2
 907 -264 907 -264 945.5 -225.5 c 128,-1,3
 984 -187 984 -187 984 -132 c 256,4,5
 984 -77 984 -77 945.5 -38.5 c 128,-1,6
 907 0 907 0 852 0 c 2,7,-1
 132 0 l 2,8,9
 78 0 78 0 39 -38.5 c 128,-1,10
 0 -77 0 -77 0 -132 c 256,11,12
 0 -187 0 -187 39 -225.5 c 128,-1,13
 78 -264 78 -264 132 -264 c 2,14,-1
 852 -264 l 1,0,-1
132 -48 m 1,15,-1
 132 -48 l 1,16,-1
 852 -48 l 2,17,18
 887 -48 887 -48 911.5 -72.5 c 128,-1,19
 936 -97 936 -97 936 -132 c 0,20,21
 936 -166 936 -166 911.5 -191 c 128,-1,22
 887 -216 887 -216 852 -216 c 2,23,-1
 132 -216 l 2,24,25
 98 -216 98 -216 73.5 -191 c 128,-1,26
 49 -166 49 -166 49 -132 c 0,27,28
 49 -97 49 -97 73.5 -72.5 c 128,-1,29
 98 -48 98 -48 132 -48 c 1,15,-1
EndSplineSet
EndChar

StartChar: grave
Encoding: 96 96 67
Width: 638
GlyphClass: 2
Flags: W
LayerCount: 2
Fore
SplineSet
299 964 m 1,0,-1
 299 964 l 1,1,2
 344 964 344 964 382 993 c 0,3,4
 425 1028 425 1028 432 1083 c 0,5,6
 438 1138 438 1138 404 1181 c 2,7,-1
 243 1383 l 2,8,9
 200 1433 200 1433 138 1433 c 0,10,11
 93 1433 93 1433 55 1404 c 0,12,13
 12 1369 12 1369 5 1315 c 0,14,15
 0 1260 0 1260 34 1216 c 2,16,-1
 194 1015 l 2,17,18
 235 965 235 965 299 964 c 1,19,20
 299 964 299 964 299 964 c 1,0,-1
138 1385 m 1,21,-1
 138 1385 l 1,22,23
 177 1385 177 1385 205 1353 c 2,24,-1
 366 1151 l 2,25,26
 387 1123 387 1123 384 1088 c 0,27,28
 379 1054 379 1054 352 1031 c 0,29,30
 328 1013 328 1013 299 1013 c 1,31,32
 299 1013 299 1013 299 1013 c 1,33,34
 260 1013 260 1013 232 1045 c 2,35,-1
 72 1246 l 2,36,37
 50 1274 50 1274 54 1309 c 256,38,39
 58 1344 58 1344 85 1366 c 0,40,41
 109 1385 109 1385 138 1385 c 1,21,-1
EndSplineSet
EndChar

StartChar: a
Encoding: 97 97 68
Width: 1551
GlyphClass: 2
Flags: W
LayerCount: 2
Fore
SplineSet
1211 0 m 1,0,-1
 1211 0 l 1,1,2
 1239 0 1239 0 1264 11 c 0,3,4
 1313 34 1313 34 1333 84 c 0,5,6
 1351 134 1351 134 1330 183 c 2,7,-1
 798 1353 l 2,8,9
 785 1381 785 1381 760 1402 c 0,10,11
 751 1411 751 1411 740 1417 c 2,12,-1
 738 1418 l 2,13,14
 734 1420 734 1420 730 1423 c 1,15,-1
 730 1423 l 1,16,17
 729 1423 729 1423 728 1424 c 0,18,19
 727 1424 727 1424 726 1425 c 0,20,21
 721 1427 721 1427 716 1428 c 0,22,23
 715 1429 715 1429 714 1429 c 0,24,25
 676 1441 676 1441 637 1429 c 0,26,27
 634 1428 634 1428 631 1427 c 2,28,-1
 629 1426 l 2,29,30
 628 1426 628 1426 626 1425 c 0,31,32
 625 1425 625 1425 624 1424 c 0,33,34
 622 1423 622 1423 619 1422 c 2,35,-1
 618 1421 l 2,36,37
 616 1420 616 1420 614 1419 c 0,38,39
 611 1417 611 1417 609 1416 c 0,40,41
 605 1413 605 1413 602 1411 c 2,42,-1
 601 1410 l 2,43,44
 597 1407 597 1407 593 1404 c 0,45,46
 566 1383 566 1383 553 1353 c 2,47,-1
 21 183 l 2,48,49
 0 134 0 134 18 84 c 0,50,51
 38 34 38 34 87 11 c 0,52,53
 112 0 112 0 140 0 c 0,54,55
 178 0 178 0 210 20.5 c 128,-1,56
 242 41 242 41 258 76 c 2,57,-1
 676 995 l 1,58,-1
 1093 76 l 2,59,60
 1129 3 1129 3 1211 0 c 1,61,62
 1211 0 1211 0 1211 0 c 1,0,-1
676 1078 m 1,63,-1
 676 1078 l 1,64,65
 661 1078 661 1078 653 1064 c 2,66,-1
 214 96 l 2,67,68
 188 48 188 48 140 48 c 0,69,70
 123 48 123 48 107 56 c 0,71,72
 76 70 76 70 64 101 c 256,73,74
 52 132 52 132 66 163 c 2,75,-1
 597 1333 l 2,76,77
 606 1352 606 1352 624 1366 c 0,78,79
 624 1367 624 1367 625 1367 c 0,80,81
 627 1369 627 1369 630 1371 c 1,82,83
 630 1371 630 1371 630 1371 c 129,-1,84
 630 1371 630 1371 630 1371.5 c 128,-1,85
 630 1372 630 1372 630 1372 c 2,86,87
 632 1373 632 1373 635 1375 c 0,88,89
 637 1376 637 1376 638 1377 c 0,90,91
 639 1377 639 1377 639 1377 c 257,92,93
 639 1377 639 1377 639 1377 c 1,94,-1
 640 1378 l 2,95,96
 642 1379 642 1379 643 1379 c 1,97,98
 643 1379 643 1379 643 1379 c 257,99,100
 643 1379 643 1379 643 1380 c 1,101,102
 644 1380 644 1380 645 1380 c 2,103,-1
 649 1382 l 1,104,105
 649 1382 649 1382 649 1382 c 1,106,107
 651 1382 651 1382 652 1383 c 0,108,109
 675 1390 675 1390 699 1383 c 0,110,111
 700 1383 700 1383 700 1382 c 0,112,113
 704 1381 704 1381 706 1380 c 0,114,115
 707 1380 707 1380 707 1380 c 2,116,117
 708 1379 708 1379 709 1379 c 0,118,119
 712 1378 712 1378 714 1376 c 2,120,121
 714 1376 714 1376 714.5 1376 c 128,-1,122
 715 1376 715 1376 715 1376 c 129,-1,123
 715 1376 715 1376 715 1376 c 1,124,125
 722 1372 722 1372 728 1366 c 2,126,127
 728 1366 728 1366 729 1365 c 0,128,129
 746 1352 746 1352 754 1333 c 2,130,-1
 1285 163 l 2,131,132
 1299 132 1299 132 1287 101 c 256,133,134
 1275 70 1275 70 1245 56 c 0,135,136
 1228 48 1228 48 1211 48 c 1,137,-1
 1211 48 l 1,138,139
 1160 50 1160 50 1137 96 c 2,140,-1
 698 1064 l 2,141,142
 690 1078 690 1078 676 1078 c 1,63,-1
804 0 m 1,143,-1
 804 0 l 1,144,145
 860 0 860 0 899 39 c 128,-1,146
 938 78 938 78 938 134 c 0,147,148
 938 189 938 189 899 228 c 128,-1,149
 860 267 860 267 804 267 c 2,150,-1
 547 267 l 2,151,152
 491 267 491 267 452 228 c 128,-1,153
 413 189 413 189 413 134 c 0,154,155
 413 78 413 78 452 39 c 128,-1,156
 491 0 491 0 547 0 c 2,157,-1
 804 0 l 1,143,-1
547 219 m 1,158,-1
 547 219 l 1,159,-1
 804 219 l 2,160,161
 840 219 840 219 865 194 c 128,-1,162
 890 169 890 169 890 134 c 0,163,164
 890 98 890 98 865 73 c 128,-1,165
 840 48 840 48 804 48 c 2,166,-1
 547 48 l 2,167,168
 511 48 511 48 486 73 c 128,-1,169
 461 98 461 98 461 134 c 0,170,171
 461 169 461 169 486 194 c 128,-1,172
 511 219 511 219 547 219 c 1,158,-1
EndSplineSet
EndChar

StartChar: b
Encoding: 98 98 69
Width: 1374
GlyphClass: 2
Flags: W
LayerCount: 2
Fore
SplineSet
733 2 m 1,0,-1
 733 2 l 1,1,2
 934 2 934 2 1057 126 c 1,3,4
 1172 250 1172 250 1171 426 c 0,5,6
 1174 547 1174 547 1114 652 c 0,7,8
 1050 761 1050 761 932 812 c 1,9,10
 976 905 976 905 974 1007 c 0,11,12
 975 1183 975 1183 860 1308 c 1,13,14
 736 1431 736 1431 536 1431 c 2,15,-1
 240 1433 l 1,16,-1
 133 1433 l 2,17,18
 78 1433 78 1433 39 1394 c 128,-1,19
 0 1355 0 1355 0 1300 c 256,20,21
 0 1245 0 1245 39.5 1204.5 c 128,-1,22
 79 1164 79 1164 134 1164 c 2,23,-1
 257 1165 l 1,24,-1
 270 1165 l 2,25,26
 305 1165 305 1165 359 1165 c 128,-1,27
 413 1165 413 1165 464 1165.5 c 128,-1,28
 515 1166 515 1166 536 1166 c 0,29,30
 602 1166 602 1166 648 1120 c 128,-1,31
 694 1074 694 1074 694 1007 c 0,32,33
 694 946 694 946 654.5 902 c 128,-1,34
 615 858 615 858 555 850 c 1,35,-1
 438 850 l 2,36,37
 383 850 383 850 344.5 811 c 128,-1,38
 306 772 306 772 306 717 c 256,39,40
 306 662 306 662 344.5 623 c 128,-1,41
 383 584 383 584 438 584 c 2,42,-1
 529 584 l 2,43,44
 532 583 532 583 535 583 c 0,45,46
 551 583 551 583 567 584 c 0,47,48
 619 584 619 584 666 584 c 128,-1,49
 713 584 713 584 734 584 c 0,50,51
 800 584 800 584 845.5 538.5 c 128,-1,52
 891 493 891 493 891 426 c 0,53,54
 891 360 891 360 845.5 314 c 128,-1,55
 800 268 800 268 734 268 c 0,56,57
 713 268 713 268 666.5 268 c 128,-1,58
 620 268 620 268 569.5 268 c 128,-1,59
 519 268 519 268 481.5 268 c 128,-1,60
 444 268 444 268 438 268 c 1,61,62
 438 268 438 268 438 268 c 1,63,64
 383 268 383 268 344.5 229 c 128,-1,65
 306 190 306 190 306 135 c 256,66,67
 306 80 306 80 344.5 41 c 128,-1,68
 383 2 383 2 438 2 c 2,69,-1
 733 2 l 1,0,-1
438 220 m 1,70,-1
 438 220 l 1,71,72
 438 220 438 220 475.5 220 c 128,-1,73
 513 220 513 220 565 220 c 128,-1,74
 617 220 617 220 665 220 c 128,-1,75
 713 220 713 220 734 220 c 0,76,77
 820 220 820 220 879.5 279.5 c 128,-1,78
 939 339 939 339 939 426 c 256,79,80
 939 513 939 513 879.5 573 c 128,-1,81
 820 633 820 633 734 633 c 0,82,83
 713 633 713 633 665.5 633 c 128,-1,84
 618 633 618 633 567 633 c 0,85,86
 566 633 566 633 565 633 c 0,87,88
 553 632 553 632 541 632 c 0,89,90
 538 633 538 633 535 633 c 1,91,92
 535 633 535 633 535 633 c 1,93,-1
 438 633 l 2,94,95
 403 633 403 633 378.5 657.5 c 128,-1,96
 354 682 354 682 354 717 c 256,97,98
 354 752 354 752 378.5 777 c 128,-1,99
 403 802 403 802 438 802 c 2,100,-1
 556 802 l 2,101,102
 557 802 557 802 558 802 c 0,103,104
 638 811 638 811 690 869 c 128,-1,105
 742 927 742 927 742 1007 c 0,106,107
 742 1094 742 1094 682.5 1154 c 128,-1,108
 623 1214 623 1214 536 1214 c 0,109,110
 507 1214 507 1214 430 1214 c 128,-1,111
 353 1214 353 1214 293 1214 c 0,112,113
 280 1214 280 1214 270 1214 c 2,114,-1
 134 1213 l 2,115,116
 99 1213 99 1213 73.5 1239 c 128,-1,117
 48 1265 48 1265 48 1300 c 256,118,119
 48 1335 48 1335 73 1360 c 128,-1,120
 98 1385 98 1385 133 1385 c 2,121,-1
 240 1385 l 1,122,-1
 535 1383 l 2,123,124
 719 1383 719 1383 825 1274 c 0,125,126
 927 1164 927 1164 925 1008 c 0,127,128
 925 1007 925 1007 925 1007 c 2,129,130
 928 902 928 902 877 811 c 0,131,132
 872 801 872 801 876 791 c 0,133,134
 880 780 880 780 890 776 c 0,135,136
 1022 725 1022 725 1074.5 624 c 128,-1,137
 1127 523 1127 523 1122 427 c 0,138,139
 1122 426 1122 426 1122 425 c 0,140,141
 1124 270 1124 270 1022 160 c 0,142,143
 916 51 916 51 733 51 c 2,144,-1
 438 51 l 2,145,146
 403 51 403 51 378.5 75.5 c 128,-1,147
 354 100 354 100 354 135 c 256,148,149
 354 170 354 170 378.5 195 c 128,-1,150
 403 220 403 220 438 220 c 1,70,-1
133 0 m 1,151,-1
 133 0 l 1,152,153
 188 0 188 0 227 39 c 128,-1,154
 266 78 266 78 266 133 c 2,155,-1
 266 718 l 2,156,157
 266 772 266 772 227 811 c 128,-1,158
 188 850 188 850 133 850 c 256,159,160
 78 850 78 850 39 811 c 128,-1,161
 0 772 0 772 0 718 c 2,162,-1
 0 133 l 2,163,164
 0 78 0 78 39 39 c 128,-1,165
 78 0 78 0 133 0 c 1,151,-1
133 802 m 1,166,-1
 133 802 l 1,167,168
 168 802 168 802 193 777 c 128,-1,169
 218 752 218 752 218 718 c 2,170,-1
 218 133 l 2,171,172
 218 98 218 98 193 73.5 c 128,-1,173
 168 49 168 49 133 49 c 0,174,175
 99 49 99 49 74 73.5 c 128,-1,176
 49 98 49 98 49 133 c 2,177,-1
 49 718 l 2,178,179
 49 752 49 752 74 777 c 128,-1,180
 99 802 99 802 133 802 c 1,166,-1
EndSplineSet
EndChar

StartChar: c
Encoding: 99 99 70
Width: 1404
GlyphClass: 2
Flags: W
LayerCount: 2
Fore
SplineSet
718 1 m 1,0,-1
 718 1 l 1,1,2
 948 1 948 1 1141 138 c 0,3,4
 1151 145 1151 145 1160 153 c 1,5,-1
 1160 153 l 1,6,7
 1160 153 1160 153 1160 153 c 1,8,9
 1161 153 1161 153 1161 153 c 1,10,11
 1204 196 1204 196 1204 252 c 0,12,13
 1204 307 1204 307 1164.5 346.5 c 128,-1,14
 1125 386 1125 386 1070 386 c 0,15,16
 1025 386 1025 386 988 358 c 0,17,18
 866 267 866 267 718 267 c 0,19,20
 594 267 594 267 491.5 328 c 128,-1,21
 389 389 389 389 328 491.5 c 128,-1,22
 267 594 267 594 267 718 c 256,23,24
 267 842 267 842 328 944.5 c 128,-1,25
 389 1047 389 1047 491.5 1108 c 128,-1,26
 594 1169 594 1169 718 1169 c 0,27,28
 863 1169 863 1169 985 1082 c 0,29,30
 1023 1051 1023 1051 1070 1051 c 0,31,32
 1125 1051 1125 1051 1164.5 1090 c 128,-1,33
 1204 1129 1204 1129 1204 1184 c 0,34,35
 1204 1252 1204 1252 1144 1296 c 0,36,37
 950 1436 950 1436 718 1436 c 0,38,39
 520 1436 520 1436 357 1339 c 128,-1,40
 194 1242 194 1242 97 1079 c 128,-1,41
 0 916 0 916 0 718 c 256,42,43
 0 520 0 520 97 357 c 128,-1,44
 194 194 194 194 357 97.5 c 128,-1,45
 520 1 520 1 718 1 c 1,0,-1
718 1387 m 1,46,-1
 718 1387 l 1,47,48
 935 1387 935 1387 1116 1256 c 1,49,50
 1116 1256 1116 1256 1117 1256 c 0,51,52
 1155 1227 1155 1227 1155 1184 c 0,53,54
 1155 1149 1155 1149 1130 1124 c 128,-1,55
 1105 1099 1105 1099 1070 1099 c 0,56,57
 1040 1099 1040 1099 1015 1119 c 0,58,59
 1015 1120 1015 1120 1014 1120 c 0,60,61
 879 1217 879 1217 718 1217 c 0,62,63
 580 1217 580 1217 467 1150 c 128,-1,64
 354 1083 354 1083 286.5 969.5 c 128,-1,65
 219 856 219 856 219 718 c 0,66,67
 219 581 219 581 286.5 467.5 c 128,-1,68
 354 354 354 354 467 286.5 c 128,-1,69
 580 219 580 219 718 219 c 0,70,71
 882 219 882 219 1018 319 c 0,72,73
 1042 337 1042 337 1070 337 c 0,74,75
 1105 337 1105 337 1130 312 c 128,-1,76
 1155 287 1155 287 1155 252 c 0,77,78
 1155 216 1155 216 1128 189 c 1,79,80
 1128 189 1128 189 1128 189 c 257,81,82
 1128 189 1128 189 1128 189 c 1,83,84
 1122 183 1122 183 1115 179 c 0,85,86
 1114 179 1114 179 1113 178 c 0,87,88
 933 49 933 49 718 49 c 0,89,90
 534 49 534 49 382 139.5 c 128,-1,91
 230 230 230 230 139.5 382 c 128,-1,92
 49 534 49 534 49 718 c 0,93,94
 49 903 49 903 139.5 1054.5 c 128,-1,95
 230 1206 230 1206 382 1296.5 c 128,-1,96
 534 1387 534 1387 718 1387 c 1,46,-1
EndSplineSet
EndChar

StartChar: d
Encoding: 100 100 71
Width: 1382
GlyphClass: 2
Flags: W
LayerCount: 2
Fore
SplineSet
465 0 m 1,0,-1
 465 0 l 1,1,2
 482 0 482 0 499 1 c 2,3,-1
 509 1 l 2,4,5
 522 1 522 1 535 3 c 0,6,7
 807 33 807 33 994 234 c 1,8,9
 1182 448 1182 448 1182 718 c 0,10,11
 1182 915 1182 915 1085 1078 c 128,-1,12
 988 1241 988 1241 825 1338 c 128,-1,13
 662 1435 662 1435 465 1435 c 0,14,15
 352 1435 352 1435 256.5 1435.5 c 128,-1,16
 161 1436 161 1436 151 1436 c 1,17,18
 151 1436 151 1436 151 1436 c 1,19,20
 148 1436 148 1436 146 1435 c 2,21,-1
 133 1435 l 2,22,23
 78 1435 78 1435 39 1396.5 c 128,-1,24
 0 1358 0 1358 0 1303 c 256,25,26
 0 1248 0 1248 39 1209.5 c 128,-1,27
 78 1171 78 1171 133 1171 c 2,28,-1
 465 1171 l 2,29,30
 589 1171 589 1171 691.5 1109.5 c 128,-1,31
 794 1048 794 1048 854.5 945.5 c 128,-1,32
 915 843 915 843 915 718 c 256,33,34
 915 593 915 593 854.5 491 c 128,-1,35
 794 389 794 389 691.5 328 c 128,-1,36
 589 267 589 267 465 267 c 0,37,38
 424 267 424 267 370 266.5 c 128,-1,39
 316 266 316 266 266 266 c 1,40,-1
 266 720 l 2,41,42
 266 775 266 775 227 814 c 128,-1,43
 188 853 188 853 133 853 c 256,44,45
 78 853 78 853 39 814 c 128,-1,46
 0 775 0 775 0 720 c 2,47,-1
 0 136 l 2,48,49
 0 135 0 135 0 134 c 2,50,51
 0 134 0 134 0 133 c 0,52,53
 0 78 0 78 39 39.5 c 128,-1,54
 78 1 78 1 133 1 c 2,55,-1
 151 1 l 1,56,57
 151 1 151 1 152 1 c 0,58,59
 169 1 169 1 263 0.5 c 128,-1,60
 357 0 357 0 465 0 c 1,0,-1
133 804 m 1,61,-1
 133 804 l 1,62,63
 168 804 168 804 193 779.5 c 128,-1,64
 218 755 218 755 218 720 c 2,65,-1
 218 242 l 2,66,67
 218 232 218 232 225 224 c 0,68,69
 232 217 232 217 242 217 c 0,70,71
 295 218 295 218 357 218 c 128,-1,72
 419 218 419 218 465 218 c 0,73,74
 602 218 602 218 715.5 285.5 c 128,-1,75
 829 353 829 353 896.5 466.5 c 128,-1,76
 964 580 964 580 964 718 c 256,77,78
 964 856 964 856 896.5 970 c 128,-1,79
 829 1084 829 1084 715.5 1151.5 c 128,-1,80
 602 1219 602 1219 465 1219 c 2,81,-1
 133 1219 l 2,82,83
 98 1219 98 1219 73.5 1243.5 c 128,-1,84
 49 1268 49 1268 49 1303 c 256,85,86
 49 1338 49 1338 73.5 1362.5 c 128,-1,87
 98 1387 98 1387 132 1387 c 2,88,-1
 151 1387 l 2,89,90
 153 1386 153 1386 156 1387 c 0,91,92
 182 1387 182 1387 272 1387 c 128,-1,93
 362 1387 362 1387 465 1387 c 0,94,95
 649 1387 649 1387 801 1296.5 c 128,-1,96
 953 1206 953 1206 1043.5 1054 c 128,-1,97
 1134 902 1134 902 1134 718 c 0,98,99
 1134 544 1134 544 1054.5 399 c 128,-1,100
 975 254 975 254 839 162 c 128,-1,101
 703 70 703 70 529 52 c 0,102,103
 528 51 528 51 526 51 c 0,104,105
 518 49 518 49 509 49 c 2,106,-1
 499 49 l 2,107,108
 498 49 498 49 498 49 c 2,109,110
 481 49 481 49 465 49 c 0,111,112
 355 49 355 49 259.5 49 c 128,-1,113
 164 49 164 49 151 49 c 1,114,115
 151 49 151 49 151 49 c 1,116,-1
 133 49 l 2,117,118
 98 49 98 49 74 73 c 128,-1,119
 50 97 50 97 49 133 c 2,120,-1
 49 134 l 1,121,122
 49 134 49 134 49 135 c 2,123,-1
 49 720 l 2,124,125
 49 755 49 755 73.5 779.5 c 128,-1,126
 98 804 98 804 133 804 c 1,61,-1
EndSplineSet
EndChar

StartChar: e
Encoding: 101 101 72
Width: 1184
GlyphClass: 2
Flags: W
LayerCount: 2
Fore
SplineSet
852 1168 m 1,0,-1
 852 1168 l 1,1,2
 907 1168 907 1168 945.5 1206.5 c 128,-1,3
 984 1245 984 1245 984 1300 c 0,4,5
 984 1354 984 1354 945.5 1393 c 128,-1,6
 907 1432 907 1432 852 1432 c 2,7,-1
 132 1432 l 2,8,9
 78 1432 78 1432 39 1393 c 128,-1,10
 0 1354 0 1354 0 1300 c 0,11,12
 0 1245 0 1245 39 1206.5 c 128,-1,13
 78 1168 78 1168 132 1168 c 2,14,-1
 852 1168 l 1,0,-1
132 1383 m 1,15,-1
 132 1383 l 1,16,-1
 852 1383 l 2,17,18
 887 1383 887 1383 911.5 1358.5 c 128,-1,19
 936 1334 936 1334 936 1300 c 0,20,21
 936 1265 936 1265 911.5 1240.5 c 128,-1,22
 887 1216 887 1216 852 1216 c 2,23,-1
 132 1216 l 2,24,25
 98 1216 98 1216 73.5 1240.5 c 128,-1,26
 49 1265 49 1265 49 1300 c 0,27,28
 49 1334 49 1334 73.5 1358.5 c 128,-1,29
 98 1383 98 1383 132 1383 c 1,15,-1
852 1 m 1,30,-1
 852 1 l 1,31,32
 907 1 907 1 945.5 39.5 c 128,-1,33
 984 78 984 78 984 133 c 256,34,35
 984 188 984 188 945.5 226.5 c 128,-1,36
 907 265 907 265 852 265 c 2,37,-1
 268 265 l 1,38,-1
 268 588 l 1,39,-1
 392 588 l 2,40,41
 447 588 447 588 486.5 627 c 128,-1,42
 526 666 526 666 526 721 c 0,43,44
 526 777 526 777 486.5 816 c 128,-1,45
 447 855 447 855 392 855 c 2,46,-1
 134 855 l 2,47,48
 79 855 79 855 39.5 816 c 128,-1,49
 0 777 0 777 0 721 c 0,50,51
 0 720 0 720 0 720 c 2,52,53
 0 719 0 719 0 718 c 2,54,-1
 0 136 l 1,55,56
 0 136 0 136 0 135 c 256,57,58
 0 134 0 134 0 133 c 0,59,60
 0 78 0 78 39 39.5 c 128,-1,61
 78 1 78 1 132 1 c 2,62,-1
 852 1 l 1,30,-1
134 807 m 1,63,-1
 134 807 l 1,64,-1
 392 807 l 2,65,66
 427 807 427 807 452 782 c 128,-1,67
 477 757 477 757 477 721 c 0,68,69
 477 686 477 686 452 661 c 128,-1,70
 427 636 427 636 392 636 c 2,71,-1
 244 636 l 2,72,73
 234 636 234 636 227 629 c 128,-1,74
 220 622 220 622 220 612 c 2,75,-1
 220 241 l 2,76,77
 220 231 220 231 227 224 c 128,-1,78
 234 217 234 217 244 217 c 2,79,-1
 852 217 l 2,80,81
 887 217 887 217 911.5 192 c 128,-1,82
 936 167 936 167 936 133 c 0,83,84
 936 98 936 98 911.5 73.5 c 128,-1,85
 887 49 887 49 852 49 c 2,86,-1
 132 49 l 2,87,88
 98 49 98 49 74 73 c 128,-1,89
 50 97 50 97 49 133 c 2,90,-1
 49 134 l 2,91,92
 49 135 49 135 49 135 c 1,93,-1
 49 136 l 1,94,-1
 49 718 l 1,95,-1
 49 719 l 2,96,97
 49 720 49 720 49 720 c 1,98,-1
 49 721 l 2,99,100
 49 757 49 757 74 782 c 128,-1,101
 99 807 99 807 134 807 c 1,63,-1
EndSplineSet
EndChar

StartChar: f
Encoding: 102 102 73
Width: 1184
GlyphClass: 2
Flags: W
LayerCount: 2
Fore
SplineSet
852 1168 m 1,0,-1
 852 1168 l 1,1,2
 906 1168 906 1168 945 1206.5 c 128,-1,3
 984 1245 984 1245 984 1300 c 0,4,5
 984 1354 984 1354 945 1393 c 128,-1,6
 906 1432 906 1432 852 1432 c 2,7,-1
 132 1432 l 2,8,9
 77 1432 77 1432 38.5 1393 c 128,-1,10
 0 1354 0 1354 0 1300 c 0,11,12
 0 1245 0 1245 38.5 1206.5 c 128,-1,13
 77 1168 77 1168 132 1168 c 2,14,-1
 852 1168 l 1,0,-1
132 1383 m 1,15,-1
 132 1383 l 1,16,-1
 852 1383 l 2,17,18
 886 1383 886 1383 910.5 1358.5 c 128,-1,19
 935 1334 935 1334 935 1300 c 0,20,21
 935 1265 935 1265 910.5 1240.5 c 128,-1,22
 886 1216 886 1216 852 1216 c 2,23,-1
 132 1216 l 2,24,25
 97 1216 97 1216 72.5 1240.5 c 128,-1,26
 48 1265 48 1265 48 1300 c 0,27,28
 48 1334 48 1334 72.5 1358.5 c 128,-1,29
 97 1383 97 1383 132 1383 c 1,15,-1
133 -1 m 1,30,-1
 133 -1 l 1,31,32
 188 -1 188 -1 227 38 c 128,-1,33
 266 77 266 77 266 132 c 2,34,-1
 266 588 l 1,35,-1
 391 588 l 2,36,37
 447 588 447 588 486 627 c 128,-1,38
 525 666 525 666 525 721 c 0,39,40
 525 777 525 777 486 816 c 128,-1,41
 447 855 447 855 391 855 c 2,42,-1
 134 855 l 2,43,44
 78 855 78 855 39 816 c 128,-1,45
 0 777 0 777 0 721 c 0,46,47
 0 720 0 720 0 718 c 256,48,49
 0 716 0 716 0 714 c 2,50,-1
 0 132 l 2,51,52
 0 77 0 77 39 38 c 128,-1,53
 78 -1 78 -1 133 -1 c 1,30,-1
134 807 m 1,54,-1
 134 807 l 1,55,-1
 391 807 l 2,56,57
 427 807 427 807 452 782 c 128,-1,58
 477 757 477 757 477 721 c 0,59,60
 477 686 477 686 452 661 c 128,-1,61
 427 636 427 636 391 636 c 2,62,-1
 242 636 l 2,63,64
 232 636 232 636 224.5 629 c 128,-1,65
 217 622 217 622 217 612 c 2,66,-1
 217 132 l 2,67,68
 217 97 217 97 192.5 72.5 c 128,-1,69
 168 48 168 48 133 48 c 256,70,71
 98 48 98 48 73 72.5 c 128,-1,72
 48 97 48 97 48 132 c 2,73,-1
 48 714 l 2,74,75
 48 715 48 715 48 716 c 2,76,-1
 49 717 l 2,77,78
 49 718 49 718 49 719 c 1,79,-1
 48 719 l 1,80,81
 48 720 48 720 48 721 c 0,82,83
 48 757 48 757 73 782 c 128,-1,84
 98 807 98 807 134 807 c 1,54,-1
EndSplineSet
EndChar

StartChar: g
Encoding: 103 103 74
Width: 1634
GlyphClass: 2
Flags: W
LayerCount: 2
Fore
SplineSet
1301 -1 m 1,0,-1
 1301 -1 l 1,1,2
 1356 -1 1356 -1 1395 38 c 128,-1,3
 1434 77 1434 77 1434 132 c 2,4,-1
 1434 714 l 2,5,6
 1434 716 1434 716 1434 717 c 0,7,8
 1434 719 1434 719 1434 721 c 2,9,-1
 1434 722 l 1,10,11
 1434 722 1434 722 1434 722.5 c 128,-1,12
 1434 723 1434 723 1434 723 c 2,13,14
 1434 779 1434 779 1394 818.5 c 128,-1,15
 1354 858 1354 858 1298 858 c 2,16,-1
 1046 858 l 2,17,18
 982 858 982 858 937 804 c 0,19,20
 909 767 909 767 909 721 c 0,21,22
 909 666 909 666 948 626.5 c 128,-1,23
 987 587 987 587 1042 587 c 2,24,-1
 1168 587 l 1,25,-1
 1168 132 l 2,26,27
 1168 77 1168 77 1207 38 c 128,-1,28
 1246 -1 1246 -1 1301 -1 c 1,0,-1
1046 810 m 1,29,-1
 1046 810 l 1,30,-1
 1298 810 l 2,31,32
 1334 810 1334 810 1359.5 784.5 c 128,-1,33
 1385 759 1385 759 1385 723 c 2,34,35
 1385 723 1385 723 1385 722.5 c 128,-1,36
 1385 722 1385 722 1385 722 c 1,37,-1
 1385 721 l 2,38,39
 1385 720 1385 720 1385 719 c 2,40,-1
 1385 718 l 2,41,42
 1385 717 1385 717 1385 717 c 1,43,-1
 1385 716 l 1,44,45
 1385 716 1385 716 1385 716 c 1,46,47
 1385 715 1385 715 1385 714 c 2,48,-1
 1385 132 l 2,49,50
 1385 97 1385 97 1360.5 72 c 128,-1,51
 1336 47 1336 47 1301 47 c 256,52,53
 1266 47 1266 47 1241 72 c 128,-1,54
 1216 97 1216 97 1216 132 c 2,55,-1
 1216 612 l 2,56,57
 1216 622 1216 622 1209 629 c 128,-1,58
 1202 636 1202 636 1192 636 c 2,59,-1
 1042 636 l 2,60,61
 1007 636 1007 636 982 661 c 128,-1,62
 957 686 957 686 957 721 c 0,63,64
 957 750 957 750 975 774 c 1,65,66
 975 774 975 774 976 774 c 1,67,68
 976 774 976 774 976 775 c 0,69,70
 1004 810 1004 810 1046 810 c 1,29,-1
718 0 m 1,71,-1
 718 0 l 1,72,73
 721 0 721 0 724 1 c 0,74,75
 777 5 777 5 812.5 42.5 c 128,-1,76
 848 80 848 80 848 133 c 0,77,78
 848 184 848 184 814 221.5 c 128,-1,79
 780 259 780 259 728 264 c 0,80,81
 723 267 723 267 718 267 c 0,82,83
 593 267 593 267 491 328 c 128,-1,84
 389 389 389 389 328 491 c 128,-1,85
 267 593 267 593 267 718 c 0,86,87
 267 842 267 842 328 944.5 c 128,-1,88
 389 1047 389 1047 491 1107.5 c 128,-1,89
 593 1168 593 1168 718 1168 c 0,90,91
 862 1168 862 1168 984 1081 c 0,92,93
 1023 1050 1023 1050 1070 1050 c 0,94,95
 1125 1050 1125 1050 1164 1089.5 c 128,-1,96
 1203 1129 1203 1129 1203 1184 c 0,97,98
 1203 1251 1203 1251 1144 1295 c 0,99,100
 950 1435 950 1435 718 1435 c 0,101,102
 520 1435 520 1435 357 1338 c 128,-1,103
 194 1241 194 1241 97 1078.5 c 128,-1,104
 0 916 0 916 0 718 c 256,105,106
 0 520 0 520 97 357 c 128,-1,107
 194 194 194 194 357 97 c 128,-1,108
 520 0 520 0 718 0 c 1,71,-1
718 1387 m 1,109,-1
 718 1387 l 1,110,111
 934 1387 934 1387 1115 1256 c 0,112,113
 1116 1255 1116 1255 1116 1255 c 1,114,115
 1155 1227 1155 1227 1155 1184 c 0,116,117
 1155 1149 1155 1149 1130 1124 c 128,-1,118
 1105 1099 1105 1099 1070 1099 c 0,119,120
 1039 1099 1039 1099 1015 1119 c 0,121,122
 1014 1119 1014 1119 1013 1120 c 0,123,124
 879 1217 879 1217 718 1217 c 0,125,126
 580 1217 580 1217 466.5 1149.5 c 128,-1,127
 353 1082 353 1082 285.5 968.5 c 128,-1,128
 218 855 218 855 218 718 c 0,129,130
 218 582 218 582 284 469.5 c 128,-1,131
 350 357 350 357 460.5 290 c 128,-1,132
 571 223 571 223 708 219 c 0,133,134
 712 217 712 217 717 216 c 0,135,136
 752 215 752 215 776 191 c 128,-1,137
 800 167 800 167 800 133 c 256,138,139
 800 99 800 99 776 75 c 128,-1,140
 752 51 752 51 717 49 c 0,141,142
 715 49 715 49 712 49 c 0,143,144
 527 52 527 52 377.5 141.5 c 128,-1,145
 228 231 228 231 138 382.5 c 128,-1,146
 48 534 48 534 48 718 c 256,147,148
 48 902 48 902 138.5 1054 c 128,-1,149
 229 1206 229 1206 381 1296.5 c 128,-1,150
 533 1387 533 1387 718 1387 c 1,109,-1
EndSplineSet
EndChar

StartChar: h
Encoding: 104 104 75
Width: 1175
GlyphClass: 2
Flags: W
LayerCount: 2
Fore
SplineSet
842 1442 m 1,0,-1
 842 1442 l 1,1,2
 897 1442 897 1442 936 1403 c 128,-1,3
 975 1364 975 1364 975 1309 c 2,4,-1
 975 131 l 2,5,6
 975 76 975 76 936 37 c 128,-1,7
 897 -2 897 -2 842 -2 c 256,8,9
 787 -2 787 -2 748 37 c 128,-1,10
 709 76 709 76 709 131 c 2,11,-1
 709 1309 l 2,12,13
 709 1364 709 1364 748 1403 c 128,-1,14
 787 1442 787 1442 842 1442 c 1,0,-1
927 131 m 1,15,-1
 927 131 l 1,16,-1
 927 1309 l 2,17,18
 927 1343 927 1343 902 1368 c 128,-1,19
 877 1393 877 1393 842 1393 c 256,20,21
 807 1393 807 1393 782.5 1368 c 128,-1,22
 758 1343 758 1343 758 1309 c 2,23,-1
 758 131 l 2,24,25
 758 96 758 96 782.5 71.5 c 128,-1,26
 807 47 807 47 842 47 c 256,27,28
 877 47 877 47 902 71.5 c 128,-1,29
 927 96 927 96 927 131 c 1,15,-1
392 856 m 1,30,-1
 392 856 l 1,31,32
 447 856 447 856 486 816.5 c 128,-1,33
 525 777 525 777 525 722 c 256,34,35
 525 667 525 667 486 627.5 c 128,-1,36
 447 588 447 588 392 588 c 2,37,-1
 266 588 l 1,38,-1
 266 131 l 2,39,40
 266 76 266 76 227 37 c 128,-1,41
 188 -2 188 -2 133 -2 c 256,42,43
 78 -2 78 -2 39 37 c 128,-1,44
 0 76 0 76 0 131 c 2,45,-1
 0 1309 l 2,46,47
 0 1364 0 1364 39 1403 c 128,-1,48
 78 1442 78 1442 133 1442 c 256,49,50
 188 1442 188 1442 227 1403 c 128,-1,51
 266 1364 266 1364 266 1309 c 2,52,-1
 266 856 l 1,53,-1
 392 856 l 1,30,-1
392 637 m 1,54,-1
 392 637 l 1,55,56
 427 637 427 637 452 662 c 128,-1,57
 477 687 477 687 477 722 c 256,58,59
 477 757 477 757 452 782 c 128,-1,60
 427 807 427 807 392 807 c 2,61,-1
 242 807 l 2,62,63
 231 807 231 807 224 814.5 c 128,-1,64
 217 822 217 822 217 832 c 2,65,-1
 217 1309 l 2,66,67
 217 1343 217 1343 192.5 1368 c 128,-1,68
 168 1393 168 1393 133 1393 c 256,69,70
 98 1393 98 1393 73 1368 c 128,-1,71
 48 1343 48 1343 48 1309 c 2,72,-1
 48 131 l 2,73,74
 48 96 48 96 73 71.5 c 128,-1,75
 98 47 98 47 133 47 c 256,76,77
 168 47 168 47 192.5 71.5 c 128,-1,78
 217 96 217 96 217 131 c 2,79,-1
 217 613 l 2,80,81
 217 623 217 623 224 630 c 128,-1,82
 231 637 231 637 242 637 c 2,83,-1
 392 637 l 1,54,-1
EndSplineSet
EndChar

StartChar: i
Encoding: 105 105 76
Width: 466
GlyphClass: 2
Flags: W
LayerCount: 2
Fore
SplineSet
133 1 m 1,0,-1
 133 1 l 1,1,2
 188 1 188 1 227 40 c 128,-1,3
 266 79 266 79 266 134 c 2,4,-1
 266 1312 l 2,5,6
 266 1367 266 1367 227 1406 c 128,-1,7
 188 1445 188 1445 133 1445 c 256,8,9
 78 1445 78 1445 39 1406 c 128,-1,10
 0 1367 0 1367 0 1312 c 2,11,-1
 0 134 l 2,12,13
 0 79 0 79 39 40 c 128,-1,14
 78 1 78 1 133 1 c 1,0,-1
133 1396 m 1,15,-1
 133 1396 l 1,16,17
 168 1396 168 1396 192.5 1371.5 c 128,-1,18
 217 1347 217 1347 217 1312 c 2,19,-1
 217 134 l 2,20,21
 217 99 217 99 192.5 74.5 c 128,-1,22
 168 50 168 50 133 50 c 256,23,24
 98 50 98 50 73 74.5 c 128,-1,25
 48 99 48 99 48 134 c 2,26,-1
 48 1312 l 2,27,28
 48 1347 48 1347 73 1371.5 c 128,-1,29
 98 1396 98 1396 133 1396 c 1,15,-1
EndSplineSet
EndChar

StartChar: j
Encoding: 106 106 77
Width: 1184
GlyphClass: 2
Flags: W
LayerCount: 2
Fore
SplineSet
852 -1 m 1,0,-1
 852 -1 l 1,1,2
 907 -1 907 -1 945.5 38 c 128,-1,3
 984 77 984 77 984 132 c 1,4,5
 984 132 984 132 984 132 c 257,6,7
 984 132 984 132 984 132 c 1,8,-1
 984 1310 l 2,9,10
 984 1365 984 1365 945.5 1404 c 128,-1,11
 907 1443 907 1443 852 1443 c 256,12,13
 797 1443 797 1443 758 1404 c 128,-1,14
 719 1365 719 1365 719 1310 c 2,15,-1
 719 264 l 1,16,-1
 133 264 l 2,17,18
 78 264 78 264 39 225.5 c 128,-1,19
 0 187 0 187 0 132 c 256,20,21
 0 77 0 77 39 38 c 128,-1,22
 78 -1 78 -1 133 -1 c 2,23,-1
 852 -1 l 1,0,-1
133 216 m 1,24,-1
 133 216 l 1,25,-1
 743 216 l 2,26,27
 753 216 753 216 760 223 c 128,-1,28
 767 230 767 230 767 240 c 2,29,-1
 767 1310 l 2,30,31
 767 1344 767 1344 792 1369 c 128,-1,32
 817 1394 817 1394 852 1394 c 0,33,34
 886 1394 886 1394 911 1369 c 128,-1,35
 936 1344 936 1344 936 1310 c 2,36,-1
 936 132 l 1,37,38
 936 132 936 132 936 132 c 257,39,40
 936 132 936 132 936 131 c 0,41,42
 935 96 935 96 911 72 c 128,-1,43
 887 48 887 48 852 48 c 2,44,-1
 133 48 l 2,45,46
 98 48 98 48 73.5 72.5 c 128,-1,47
 49 97 49 97 49 132 c 0,48,49
 49 166 49 166 73.5 191 c 128,-1,50
 98 216 98 216 133 216 c 1,24,-1
EndSplineSet
EndChar

